<svg width="174" height="60" viewBox="0 0 174 60" fill="none"
    xmlns="http://www.w3.org/2000/svg">
    <rect width="174" height="60" rx="10" fill="white"/>
    <path d="M31.114 28.976L36.2546 23.835C26.8654 18.2744 12.9914 10.1167 12.2073 10L12.1445 10.0064L31.114 28.976Z" fill="#08B059"/>
    <path d="M11.0064 11.1445L11 11.2069V49.0228L11.006 49.0828L29.9756 30.1136L11.0064 11.1445Z" fill="#1BB899"/>
    <path d="M31.1171 31.2549L12.1484 50.224L12.208 50.2308C12.9957 50.1053 26.8673 41.9516 36.2553 36.3934L31.1171 31.2549Z" fill="#F04F3E"/>
    <path d="M44.7927 28.9087C44.7927 28.9087 41.827 27.1394 37.6861 24.6846L32.2539 30.1172L37.6837 35.547C41.8258 33.0918 44.7927 31.3225 44.7927 31.3225C45.4392 30.9829 45.9996 30.7822 45.9996 30.1156C45.9996 29.4494 45.3624 29.2205 44.7927 28.9087Z" fill="#F99C1C"/>
    <path d="M62.14 33.16C63.94 33.16 65.42 33.68 66.58 34.8H66.72V31.56C65.46 30.84 64 30.52 62.02 30.52C57.5 30.52 54.62 33.18 54.62 37.36C54.62 41.54 57.5 44.2 62.02 44.2C64 44.2 65.46 43.88 66.72 43.16V36.64H60.94V39.12H63.86V41.38C63.32 41.5 62.76 41.56 62.14 41.56C59.4 41.56 57.62 39.92 57.62 37.36C57.62 34.8 59.4 33.16 62.14 33.16ZM73.6639 34.4C70.7039 34.4 68.6239 36.42 68.6239 39.3C68.6239 42.16 70.7039 44.2 73.6639 44.2C76.6039 44.2 78.6839 42.16 78.6839 39.3C78.6839 36.42 76.6039 34.4 73.6639 34.4ZM73.6639 36.72C75.0639 36.72 76.0439 37.78 76.0439 39.3C76.0439 40.82 75.0639 41.88 73.6639 41.88C72.2439 41.88 71.2639 40.82 71.2639 39.3C71.2639 37.78 72.2439 36.72 73.6639 36.72ZM84.9725 34.4C82.0125 34.4 79.9325 36.42 79.9325 39.3C79.9325 42.16 82.0125 44.2 84.9725 44.2C87.9125 44.2 89.9925 42.16 89.9925 39.3C89.9925 36.42 87.9125 34.4 84.9725 34.4ZM84.9725 36.72C86.3725 36.72 87.3525 37.78 87.3525 39.3C87.3525 40.82 86.3725 41.88 84.9725 41.88C83.5525 41.88 82.5725 40.82 82.5725 39.3C82.5725 37.78 83.5525 36.72 84.9725 36.72ZM101.201 34.6H99.0211L98.9411 35.84H98.9011C98.2811 34.92 97.2411 34.4 95.8411 34.4C93.1811 34.4 91.2411 36.38 91.2411 39.22C91.2411 42.06 93.1811 44.04 95.8411 44.04C97.0011 44.04 97.9011 43.68 98.5411 43.02H98.5811V43.08C98.5811 44.74 97.5211 45.68 95.6411 45.68C94.2411 45.68 92.9811 45.16 92.2811 44.34H92.1811V46.98C93.0211 47.62 94.3811 48 95.9611 48C99.2211 48 101.201 46.18 101.201 43.24V34.6ZM96.2811 41.72C94.8611 41.72 93.8811 40.74 93.8811 39.22C93.8811 37.7 94.8611 36.72 96.2811 36.72C97.6811 36.72 98.6611 37.7 98.6611 39.22C98.6611 40.74 97.6811 41.72 96.2811 41.72ZM103.519 44H106.139V30H103.519V44ZM117.561 39.96V38.9C117.561 36.14 115.741 34.4 112.821 34.4C109.961 34.4 107.921 36.42 107.921 39.3C107.921 42.2 110.181 44.2 113.501 44.2C114.961 44.2 116.221 43.88 117.001 43.32V40.8H116.901C116.141 41.54 114.981 41.94 113.621 41.94C112.001 41.94 110.841 41.24 110.561 39.96H117.561ZM112.901 36.66C114.141 36.66 115.021 37.24 115.201 38.38H110.561C110.821 37.28 111.781 36.66 112.901 36.66ZM123.994 30.72V44H126.954V39.54H129.854C133.174 39.54 134.874 38.04 134.874 35.14C134.874 32.22 133.174 30.72 129.854 30.72H123.994ZM126.954 36.9V33.36H129.714C131.194 33.36 131.874 33.92 131.874 35.14C131.874 36.34 131.194 36.9 129.714 36.9H126.954ZM136.566 44H139.186V30H136.566V44ZM150.928 44V34.6H148.748L148.648 35.82H148.608C148.008 34.92 146.948 34.4 145.568 34.4C142.908 34.4 140.968 36.46 140.968 39.3C140.968 42.14 142.908 44.2 145.568 44.2C146.968 44.2 148.008 43.66 148.628 42.74H148.668L148.748 44H150.928ZM146.008 41.88C144.588 41.88 143.608 40.82 143.608 39.3C143.608 37.78 144.588 36.72 146.008 36.72C147.408 36.72 148.388 37.78 148.388 39.3C148.388 40.82 147.408 41.88 146.008 41.88ZM156.746 47.8L162.126 34.6H159.426L157.246 40.8H157.206L155.006 34.6H152.206L155.826 43.7L154.046 47.8H156.746Z" fill="#33277B"/>
    <path d="M58.812 16.932C59.988 16.932 60.876 17.256 61.608 17.952H61.668V16.68C60.912 16.152 60 15.912 58.764 15.912C56.148 15.912 54.432 17.52 54.432 20.016C54.432 22.512 56.148 24.12 58.764 24.12C60 24.12 60.912 23.88 61.668 23.352V19.908H58.26V20.928H60.564V22.776C60.06 22.992 59.484 23.1 58.812 23.1C56.88 23.1 55.596 21.888 55.596 20.016C55.596 18.144 56.88 16.932 58.812 16.932ZM68.6532 21.528V20.964C68.6532 19.332 67.5372 18.264 65.8092 18.264C64.0932 18.264 62.8812 19.476 62.8812 21.192C62.8812 22.956 64.1652 24.12 66.1452 24.12C67.0212 24.12 67.7892 23.88 68.2932 23.472V22.44H68.2452C67.7172 22.944 66.9972 23.208 66.1692 23.208C64.8972 23.208 64.0572 22.572 63.9132 21.528H68.6532ZM65.8212 19.176C66.8412 19.176 67.5612 19.764 67.7052 20.676H63.9132C64.1052 19.776 64.8612 19.176 65.8212 19.176ZM73.0554 22.884H73.0074C72.7794 23.124 72.4914 23.208 72.1794 23.208C71.5794 23.208 71.2194 22.812 71.2194 22.14V19.272H73.0314V18.384H71.2194V16.86H70.3794L70.2234 18.384H69.1674V19.272H70.1994V22.164C70.1994 23.424 70.8594 24.12 72.0354 24.12C72.4674 24.12 72.8034 24.048 73.0554 23.916V22.884ZM77.4093 15.948C77.0133 15.948 76.7373 16.224 76.7373 16.62C76.7373 17.016 77.0133 17.292 77.4093 17.292C77.8053 17.292 78.0813 17.016 78.0813 16.62C78.0813 16.224 77.8053 15.948 77.4093 15.948ZM76.9053 24H77.9253V18.384H76.9053V24ZM82.7351 22.884H82.6871C82.4591 23.124 82.1711 23.208 81.8591 23.208C81.2591 23.208 80.8991 22.812 80.8991 22.14V19.272H82.7111V18.384H80.8991V16.86H80.0591L79.9031 18.384H78.8471V19.272H79.8791V22.164C79.8791 23.424 80.5391 24.12 81.7151 24.12C82.1471 24.12 82.4831 24.048 82.7351 23.916V22.884ZM89.201 18.264C87.461 18.264 86.225 19.476 86.225 21.192C86.225 22.908 87.461 24.12 89.201 24.12C90.941 24.12 92.177 22.908 92.177 21.192C92.177 19.476 90.941 18.264 89.201 18.264ZM89.201 19.176C90.341 19.176 91.145 20.004 91.145 21.192C91.145 22.38 90.341 23.208 89.201 23.208C88.049 23.208 87.257 22.38 87.257 21.192C87.257 20.004 88.049 19.176 89.201 19.176ZM96.3333 18.264C95.3853 18.264 94.7013 18.636 94.3173 19.272H94.2933L94.2693 18.384H93.4053V24H94.4253V21.084C94.4253 19.896 95.0493 19.176 96.0933 19.176C97.0413 19.176 97.6173 19.8 97.6173 20.856V24H98.6373V20.736C98.6373 19.2 97.7613 18.264 96.3333 18.264Z" fill="#33277B"/>
</svg>
