<svg width="174" height="60" viewBox="0 0 174 60" fill="none"
    xmlns="http://www.w3.org/2000/svg">
    <rect width="174" height="60" rx="10" fill="white"/>
    <path d="M25.103 12H45.897C50.3723 12 54 15.6277 54 20.103V40.897C54 45.3723 50.3723 49 45.897 49H25.103C20.6277 49 17 45.3723 17 40.897V20.103C17 15.6277 20.6277 12 25.103 12Z" fill="url(#paint0_linear_339_2793)"/>
    <path d="M28.8564 38.8558L28.8599 38.857L27.5948 41.0481C27.133 41.8479 26.1103 42.1219 25.3105 41.6602C24.5108 41.1984 24.2366 40.1757 24.6984 39.3758L25.6303 37.7617L25.7198 37.6068C25.8795 37.3773 26.2736 36.981 27.0621 37.0555C27.0621 37.0555 28.9174 37.2569 29.0517 38.2212C29.0517 38.2212 29.0699 38.5384 28.8564 38.8558V38.8558ZM46.7989 33.2596H42.8541C42.5854 33.2415 42.4682 33.1455 42.422 33.0897L42.4191 33.0847L38.1963 25.7705L38.1908 25.7742L37.9376 25.4111C37.5225 24.7763 36.8634 26.3997 36.8634 26.3997C36.0765 28.2086 36.9752 30.2652 37.2884 30.8868L43.1537 41.0459C43.6154 41.8456 44.6381 42.1198 45.438 41.6578C46.2377 41.1961 46.5119 40.1734 46.05 39.3735L44.5834 36.8332C44.555 36.7717 44.5055 36.6046 44.8063 36.6039H46.7989C47.7225 36.6039 48.4712 35.8552 48.4712 34.9317C48.4712 34.0081 47.7225 33.2594 46.7989 33.2594V33.2596ZM39.1368 35.5328C39.1368 35.5328 39.3474 36.6039 38.5326 36.6039H23.9496C23.026 36.6039 22.2773 35.8552 22.2773 34.9317C22.2773 34.0081 23.026 33.2594 23.9496 33.2594H27.6987C28.304 33.2244 28.4474 32.875 28.4474 32.875L28.4509 32.8767L33.3447 24.4002L33.3432 24.3999C33.4324 24.2362 33.3581 24.0814 33.3453 24.057L31.729 21.2576C31.2672 20.4579 31.5412 19.435 32.3411 18.9734C33.1409 18.5116 34.1636 18.7855 34.6254 19.5853L35.3749 20.8836L36.1231 19.5876C36.5849 18.7879 37.6076 18.5138 38.4075 18.9757C39.2073 19.4375 39.4813 20.46 39.0196 21.2599L32.2095 33.0551C32.1798 33.1269 32.1707 33.2396 32.3922 33.2594H36.4628L36.4637 33.2992C36.4637 33.2992 38.8163 33.3357 39.1368 35.5328Z" fill="white"/>
    <path d="M74.28 43H77.46L71.8 29.72H68.94L63.28 43H66.38L67.28 40.76H73.38L74.28 43ZM70.34 33.12L72.38 38.22H68.28L70.3 33.12H70.34ZM84.2861 33.4C82.8861 33.4 81.8261 33.92 81.2261 34.84H81.1861L81.0861 33.6H78.9061V46.8H81.5261V42.18H81.5661C82.2061 42.84 83.1261 43.2 84.2861 43.2C86.9461 43.2 88.8861 41.14 88.8861 38.3C88.8861 35.46 86.9461 33.4 84.2861 33.4ZM83.8461 40.88C82.4261 40.88 81.4661 39.82 81.4661 38.3C81.4661 36.78 82.4261 35.72 83.8461 35.72C85.2861 35.72 86.2461 36.78 86.2461 38.3C86.2461 39.82 85.2861 40.88 83.8461 40.88ZM96.0439 33.4C94.6439 33.4 93.5839 33.92 92.9839 34.84H92.9439L92.8439 33.6H90.6639V46.8H93.2839V42.18H93.3239C93.9639 42.84 94.8839 43.2 96.0439 43.2C98.7039 43.2 100.644 41.14 100.644 38.3C100.644 35.46 98.7039 33.4 96.0439 33.4ZM95.6039 40.88C94.1839 40.88 93.2239 39.82 93.2239 38.3C93.2239 36.78 94.1839 35.72 95.6039 35.72C97.0439 35.72 98.0039 36.78 98.0039 38.3C98.0039 39.82 97.0439 40.88 95.6039 40.88ZM111.856 29.52C108.496 29.52 106.496 31.12 106.496 33.78C106.496 36.22 107.816 37.36 111.236 37.74C113.256 37.96 113.876 38.32 113.876 39.12C113.876 40.08 113.016 40.58 111.396 40.58C109.596 40.58 107.936 40.02 106.696 38.98H106.556V42.04C107.616 42.8 109.316 43.2 111.496 43.2C114.896 43.2 116.816 41.7 116.816 39.04C116.816 36.5 115.496 35.3 111.996 34.92C110.016 34.7 109.436 34.36 109.436 33.6C109.436 32.7 110.356 32.14 111.816 32.14C113.496 32.14 114.996 32.66 115.876 33.56H116.016V30.5C115.196 29.92 113.516 29.52 111.856 29.52ZM124.613 40.34H124.513C124.113 40.76 123.673 40.88 123.193 40.88C122.373 40.88 121.893 40.38 121.893 39.48V35.82H124.593V33.6H121.893V30.96H119.693L119.353 33.6H117.713V35.82H119.273V39.58C119.273 41.96 120.493 43.2 122.773 43.2C123.573 43.2 124.153 43.1 124.613 42.88V40.34ZM130.848 33.4C127.888 33.4 125.808 35.42 125.808 38.3C125.808 41.16 127.888 43.2 130.848 43.2C133.788 43.2 135.868 41.16 135.868 38.3C135.868 35.42 133.788 33.4 130.848 33.4ZM130.848 35.72C132.248 35.72 133.228 36.78 133.228 38.3C133.228 39.82 132.248 40.88 130.848 40.88C129.428 40.88 128.448 39.82 128.448 38.3C128.448 36.78 129.428 35.72 130.848 35.72ZM142.796 33.4C141.436 33.4 140.516 33.96 139.996 35.06H139.956L139.836 33.6H137.656V43H140.276V38.96C140.276 36.86 140.996 35.88 142.596 35.88C143.176 35.88 143.676 36.04 144.076 36.32H144.176V33.76C143.896 33.54 143.396 33.4 142.796 33.4ZM154.53 38.96V37.9C154.53 35.14 152.71 33.4 149.79 33.4C146.93 33.4 144.89 35.42 144.89 38.3C144.89 41.2 147.15 43.2 150.47 43.2C151.93 43.2 153.19 42.88 153.97 42.32V39.8H153.87C153.11 40.54 151.95 40.94 150.59 40.94C148.97 40.94 147.81 40.24 147.53 38.96H154.53ZM149.87 35.66C151.11 35.66 151.99 36.24 152.17 37.38H147.53C147.79 36.28 148.75 35.66 149.87 35.66Z" fill="#33277B"/>
    <path d="M67.812 14.932C68.988 14.932 69.876 15.256 70.608 15.952H70.668V14.68C69.912 14.152 69 13.912 67.764 13.912C65.148 13.912 63.432 15.52 63.432 18.016C63.432 20.512 65.148 22.12 67.764 22.12C69 22.12 69.912 21.88 70.668 21.352V17.908H67.26V18.928H69.564V20.776C69.06 20.992 68.484 21.1 67.812 21.1C65.88 21.1 64.596 19.888 64.596 18.016C64.596 16.144 65.88 14.932 67.812 14.932ZM77.6532 19.528V18.964C77.6532 17.332 76.5372 16.264 74.8092 16.264C73.0932 16.264 71.8812 17.476 71.8812 19.192C71.8812 20.956 73.1652 22.12 75.1452 22.12C76.0212 22.12 76.7892 21.88 77.2932 21.472V20.44H77.2452C76.7172 20.944 75.9972 21.208 75.1692 21.208C73.8972 21.208 73.0572 20.572 72.9132 19.528H77.6532ZM74.8212 17.176C75.8412 17.176 76.5612 17.764 76.7052 18.676H72.9132C73.1052 17.776 73.8612 17.176 74.8212 17.176ZM82.0554 20.884H82.0074C81.7794 21.124 81.4914 21.208 81.1794 21.208C80.5794 21.208 80.2194 20.812 80.2194 20.14V17.272H82.0314V16.384H80.2194V14.86H79.3794L79.2234 16.384H78.1674V17.272H79.1994V20.164C79.1994 21.424 79.8594 22.12 81.0354 22.12C81.4674 22.12 81.8034 22.048 82.0554 21.916V20.884ZM86.4093 13.948C86.0133 13.948 85.7373 14.224 85.7373 14.62C85.7373 15.016 86.0133 15.292 86.4093 15.292C86.8053 15.292 87.0813 15.016 87.0813 14.62C87.0813 14.224 86.8053 13.948 86.4093 13.948ZM85.9053 22H86.9253V16.384H85.9053V22ZM91.7351 20.884H91.6871C91.4591 21.124 91.1711 21.208 90.8591 21.208C90.2591 21.208 89.8991 20.812 89.8991 20.14V17.272H91.7111V16.384H89.8991V14.86H89.0591L88.9031 16.384H87.8471V17.272H88.8791V20.164C88.8791 21.424 89.5391 22.12 90.7151 22.12C91.1471 22.12 91.4831 22.048 91.7351 21.916V20.884ZM98.201 16.264C96.461 16.264 95.225 17.476 95.225 19.192C95.225 20.908 96.461 22.12 98.201 22.12C99.941 22.12 101.177 20.908 101.177 19.192C101.177 17.476 99.941 16.264 98.201 16.264ZM98.201 17.176C99.341 17.176 100.145 18.004 100.145 19.192C100.145 20.38 99.341 21.208 98.201 21.208C97.049 21.208 96.257 20.38 96.257 19.192C96.257 18.004 97.049 17.176 98.201 17.176ZM105.333 16.264C104.385 16.264 103.701 16.636 103.317 17.272H103.293L103.269 16.384H102.405V22H103.425V19.084C103.425 17.896 104.049 17.176 105.093 17.176C106.041 17.176 106.617 17.8 106.617 18.856V22H107.637V18.736C107.637 17.2 106.761 16.264 105.333 16.264Z" fill="#33277B"/>
    <defs>
        <linearGradient id="paint0_linear_339_2793" x1="35.5" y1="12" x2="35.5" y2="49" gradientUnits="userSpaceOnUse">
            <stop stop-color="#17C9FB"/>
            <stop offset="1" stop-color="#1A74E8"/>
        </linearGradient>
    </defs>
</svg>
