<svg width="120" height="131" viewBox="0 0 120 131" fill="none" xmlns="http://www.w3.org/2000/svg">
<path d="M95.2143 116.312C95.2143 121.149 77.0147 125.071 54.5622 125.071C32.1098 125.071 13.9102 121.149 13.9102 116.312C13.9102 111.474 32.1087 107.552 54.5622 107.552C77.0158 107.552 95.2143 111.473 95.2143 116.312Z" fill="#049157"/>
<path d="M57.0736 124.335C57.0736 127.582 44.2967 130.214 28.5373 130.214C12.7779 130.214 0 127.582 0 124.335C0 121.088 12.7768 118.456 28.5373 118.456C44.2978 118.456 57.0736 121.088 57.0736 124.335Z" fill="#049157"/>
<path d="M17.7122 113.196C17.7122 117.086 31.9393 122.132 49.4898 122.132C67.0403 122.132 81.2674 117.086 81.2674 113.196C81.2674 109.305 67.0392 108.04 49.4898 108.04C31.9404 108.04 17.7122 109.304 17.7122 113.196Z" fill="#79BDD1"/>
<path d="M24.5583 54.1199C30.6345 47.8427 67.3012 45.425 74.4202 54.1199C81.5391 62.8147 82.7306 108.699 82.7306 111.934C82.7306 115.826 67.85 118.98 49.4898 118.98C31.1295 118.98 16.2478 115.826 16.2478 111.934C16.2478 108.699 18.4799 60.397 24.5583 54.1199Z" fill="#CFE8DE"/>
<path d="M16.2478 111.934C16.2478 115.825 31.1284 118.98 49.4898 118.98C67.8511 118.98 82.7306 115.825 82.7306 111.934C82.7306 108.042 67.85 104.888 49.4898 104.888C31.1295 104.888 16.2478 108.044 16.2478 111.934Z" fill="#79BDD1"/>
<path d="M32.7373 107.734V111.292C32.7373 112.155 33.2624 112.968 34.1952 113.693C34.3378 113.809 34.4864 113.917 34.6405 114.016C35.0784 114.306 35.5377 114.562 36.0143 114.782C36.1609 114.848 36.3076 114.909 36.4585 114.977C36.9254 115.177 37.429 115.363 37.9746 115.534C38.117 115.582 38.2679 115.626 38.4189 115.671C38.8998 115.816 39.4109 115.951 39.9404 116.071C40.0859 116.102 40.2326 116.138 40.3846 116.169C40.8742 116.271 41.3814 116.364 41.9061 116.449L42.3493 116.515C42.8421 116.586 43.35 116.649 43.8654 116.698C44.0121 116.716 44.1587 116.73 44.3097 116.737C44.8078 116.787 45.315 116.823 45.8312 116.845C45.9778 116.855 46.1288 116.863 46.2754 116.868C46.7768 116.89 47.2847 116.9 47.7958 116.9H47.8541C47.9824 116.9 48.1107 116.9 48.2401 116.9C48.7523 116.9 49.258 116.882 49.7562 116.855C49.9071 116.855 50.0538 116.846 50.2004 116.833C50.7169 116.806 51.2238 116.766 51.7208 116.718C51.8729 116.705 52.0195 116.691 52.1662 116.669C52.687 116.615 53.1938 116.548 53.6866 116.473C53.8376 116.451 53.9842 116.424 54.1309 116.397C54.6517 116.312 55.1585 116.211 55.648 116.104C55.799 116.069 55.9456 116.038 56.0923 115.996C56.6207 115.872 57.1329 115.729 57.6127 115.578C57.7637 115.535 57.9103 115.485 58.057 115.437C58.604 115.249 59.1108 115.05 59.5774 114.84C59.7337 114.769 59.8793 114.698 60.0216 114.625C60.5577 114.364 61.0657 114.05 61.5377 113.686C61.6936 113.564 61.8422 113.433 61.9831 113.294C62.6193 112.677 62.9708 112 62.9708 111.303V107.745L32.7373 107.734Z" fill="#DE7A00"/>
<g style="mix-blend-mode:multiply">
<g style="mix-blend-mode:multiply">
<path d="M61.5378 108.947V113.673C61.6937 113.551 61.8424 113.42 61.9832 113.281V108.947H61.5378Z" fill="#EDD3CE"/>
</g>
<g style="mix-blend-mode:multiply">
<path d="M59.5774 108.796V114.829C59.7337 114.758 59.8793 114.687 60.0217 114.614V108.796H59.5774Z" fill="#EDD3CE"/>
</g>
<g style="mix-blend-mode:multiply">
<path d="M57.6128 108.796V115.567C57.7638 115.524 57.9104 115.474 58.0571 115.426V108.796H57.6128Z" fill="#EDD3CE"/>
</g>
<g style="mix-blend-mode:multiply">
<path d="M55.6479 108.796V116.092C55.7989 116.057 55.9456 116.026 56.0922 115.984V108.796H55.6479Z" fill="#EDD3CE"/>
</g>
<g style="mix-blend-mode:multiply">
<path d="M53.6865 108.796V116.463C53.8375 116.441 53.9841 116.415 54.1308 116.388V108.796H53.6865Z" fill="#EDD3CE"/>
</g>
<g style="mix-blend-mode:multiply">
<path d="M51.7212 108.796V116.706C51.8732 116.693 52.0199 116.679 52.1665 116.657V108.796H51.7212Z" fill="#EDD3CE"/>
</g>
<g style="mix-blend-mode:multiply">
<path d="M49.7563 108.796V116.843C49.9073 116.843 50.054 116.834 50.2006 116.821V108.796H49.7563Z" fill="#EDD3CE"/>
</g>
<g style="mix-blend-mode:multiply">
<path d="M47.7959 108.796V116.894H47.8541C47.9824 116.894 48.1108 116.894 48.2402 116.894V108.807L47.7959 108.796Z" fill="#EDD3CE"/>
</g>
<g style="mix-blend-mode:multiply">
<path d="M45.8284 108.796V116.838C45.975 116.848 46.126 116.857 46.2726 116.861V108.796H45.8284Z" fill="#EDD3CE"/>
</g>
<g style="mix-blend-mode:multiply">
<path d="M43.8655 108.796V116.693C44.0121 116.71 44.1588 116.724 44.3097 116.732V108.796H43.8655Z" fill="#EDD3CE"/>
</g>
<g style="mix-blend-mode:multiply">
<path d="M41.9062 108.796V116.444L42.3494 116.509V108.796H41.9062Z" fill="#EDD3CE"/>
</g>
<g style="mix-blend-mode:multiply">
<path d="M39.9407 108.796V116.065C40.0862 116.096 40.2329 116.132 40.3849 116.163V108.796H39.9407Z" fill="#EDD3CE"/>
</g>
<g style="mix-blend-mode:multiply">
<path d="M37.9746 108.796V115.528C38.1169 115.577 38.2679 115.621 38.4189 115.665V108.796H37.9746Z" fill="#EDD3CE"/>
</g>
<g style="mix-blend-mode:multiply">
<path d="M36.0154 108.796V114.776C36.162 114.842 36.3087 114.904 36.4596 114.972V108.796H36.0154Z" fill="#EDD3CE"/>
</g>
<g style="mix-blend-mode:multiply">
<path d="M34.1953 108.796V113.691C34.3379 113.806 34.4866 113.914 34.6407 114.014V108.796H34.1953Z" fill="#EDD3CE"/>
</g>
</g>
<path d="M47.8522 102.619C39.504 102.619 32.7366 104.908 32.7366 107.732C32.7366 110.556 39.504 112.845 47.8522 112.845C56.2005 112.845 62.9733 110.555 62.9733 107.728C62.9733 104.9 56.2005 102.619 47.8522 102.619Z" fill="#FEC833"/>
<g style="mix-blend-mode:multiply">
<path d="M34.4759 107.404C34.4759 110.228 41.2433 112.517 49.5915 112.517C51.7392 112.523 53.884 112.361 56.0064 112.033C53.6535 112.545 50.8575 112.843 47.8522 112.843C39.504 112.843 32.7366 110.553 32.7366 107.73C32.7366 105.681 36.295 103.915 41.4374 103.1C37.2525 104.011 34.4759 105.599 34.4759 107.404Z" fill="#EDD3CE"/>
</g>
<g style="mix-blend-mode:soft-light">
<path d="M62.9657 107.744C62.9657 108.552 62.4115 109.317 61.4227 109.994C60.3142 110.759 62.0416 109.279 62.0416 107.877C62.0416 105.053 54.6811 102.989 46.3329 102.989C43.057 102.989 40.5855 103.194 42.7206 102.933C44.4224 102.729 46.135 102.628 47.849 102.63C56.1972 102.63 62.9657 104.925 62.9657 107.744Z" fill="#FFFBDC"/>
</g>
<path d="M47.8519 103.597C41.0996 103.597 35.625 105.449 35.625 107.733C35.625 110.017 41.0996 111.867 47.8519 111.867C54.6043 111.867 60.0777 110.016 60.0777 107.728C60.0777 105.441 54.6032 103.597 47.8519 103.597Z" stroke="#E38F2F" stroke-width="2.4" stroke-miterlimit="10"/>
<path d="M44.3711 105.831C43.3144 105.831 42.4733 106.155 41.7605 106.396C41.2619 106.547 40.7472 106.637 40.2272 106.666L37.6123 106.758V107.585C37.6123 107.717 37.8916 107.858 38.3574 107.858C38.8502 107.858 39.5123 107.858 39.9684 107.858C40.0299 108.35 40.9195 108.915 41.3702 109.135C41.7153 109.305 42.1897 109.336 42.6728 109.286C43.1785 109.231 43.6659 109.13 43.7845 108.894C43.9031 108.658 43.53 108.139 43.53 108.139C43.53 108.139 42.3072 108.031 42.277 107.852L47.3192 107.836C48.0805 108.348 48.7684 108.675 49.423 108.832C50.2015 109.006 50.9978 109.087 51.7952 109.073C52.8735 109.073 53.8084 108.94 54.5837 108.689C55.3105 108.453 55.7634 108.156 55.9338 107.807C56.2573 107.807 57.2687 107.823 57.9739 107.823C58.6036 107.823 58.5616 106.722 58.5616 106.722C58.5616 106.722 58.1691 106.73 57.5652 106.73C57.1555 106.73 56.4017 106.73 56.0049 106.73C55.9381 106.283 55.7386 106.582 55.3439 106.355C55.0204 106.168 53.0687 105.508 53.0687 105.508V106.326C53.0687 106.36 53.1021 106.395 53.169 106.434C53.679 106.708 53.5593 106.828 53.5593 106.828H49.2116C49.2116 106.828 47.4702 106.492 46.8016 106.309C46.1061 106.117 45.251 105.829 44.3711 105.831Z" fill="#E38F2F"/>
<path d="M44.426 105.198C43.3692 105.198 42.4721 105.326 41.7593 105.571C41.0897 105.799 40.6508 106.11 40.4492 106.503C40.0179 106.503 38.9277 106.508 38.3454 106.508C37.9141 106.508 37.6111 106.611 37.6111 106.757C37.6111 106.904 37.8904 107.031 38.3562 107.031C38.849 107.031 39.8939 107.031 40.35 107.025C40.4093 107.518 40.9182 108.085 41.369 108.305C41.714 108.473 42.5907 108.477 43.0738 108.427C43.5795 108.373 43.7682 108.245 43.5288 108.131C43.1029 107.934 42.8764 107.816 42.6392 107.592C42.4236 107.39 42.3049 107.201 42.2758 107.023L47.318 107.005C48.0793 107.519 48.7672 107.846 49.4207 108.004C50.1993 108.177 50.9956 108.257 51.7929 108.242C52.8712 108.242 53.8061 108.11 54.5804 107.86C55.3082 107.624 55.7611 107.328 55.9315 106.976C56.255 106.976 56.9354 106.976 57.6406 106.976C58.2714 106.976 58.5593 106.844 58.5593 106.722C58.5593 106.6 58.2358 106.453 57.6309 106.453C57.22 106.453 56.3779 106.453 55.9822 106.453C55.9643 106.256 55.8959 106.067 55.7837 105.905C55.6715 105.742 55.5193 105.611 55.3416 105.524C55.0181 105.336 54.0563 105.287 53.5398 105.334C53.1085 105.373 53.0664 105.465 53.0664 105.502C53.0664 105.54 53.0998 105.573 53.1667 105.61C53.6767 105.884 53.9744 106.17 54.0531 106.461L48.8492 106.477C48.2256 106.035 47.5334 105.7 46.8004 105.484C46.0253 105.283 45.2267 105.187 44.426 105.198ZM46.5071 106.481L42.4009 106.495C42.6942 106.132 43.3175 105.956 44.2987 105.95C45.068 105.94 45.8276 106.123 46.5082 106.481H46.5071ZM53.3198 107.326C52.8877 107.441 52.4417 107.495 51.9946 107.486C51.537 107.497 51.0797 107.456 50.6316 107.362C50.3072 107.28 49.9948 107.156 49.7021 106.994L53.9571 106.98C53.8353 107.121 53.6217 107.237 53.3209 107.326H53.3198Z" fill="#FFDB31"/>
<path d="M34.8628 102.151V105.709C34.8628 106.572 35.3879 107.386 36.3217 108.11C36.4598 108.218 36.6107 108.326 36.766 108.433C37.2043 108.723 37.6639 108.978 38.1408 109.198C38.2875 109.264 38.4341 109.327 38.5851 109.393C39.0806 109.604 39.5866 109.789 40.1012 109.948C40.2435 109.998 40.3934 110.042 40.5455 110.088C41.0253 110.234 41.5375 110.368 42.0669 110.487C42.2125 110.518 42.3592 110.555 42.5112 110.585C42.9997 110.693 43.5076 110.781 44.0305 110.865L44.4748 110.931C44.9687 111.003 45.4765 111.066 45.992 111.114C46.1386 111.131 46.2853 111.145 46.4362 111.154C46.9344 111.203 47.4416 111.239 47.9577 111.262C48.1044 111.271 48.2543 111.279 48.402 111.284C48.9045 111.306 49.4113 111.315 49.9224 111.315H49.9785C50.11 111.315 50.2383 111.315 50.3666 111.315C50.8778 111.315 51.3846 111.296 51.8838 111.269C52.0337 111.269 52.1804 111.261 52.327 111.248C52.8435 111.221 53.3503 111.18 53.8474 111.131C53.9995 111.119 54.145 111.106 54.2917 111.083C54.8136 111.029 55.3193 110.963 55.8132 110.888C55.9641 110.865 56.1108 110.838 56.2574 110.811C56.7782 110.727 57.284 110.625 57.7735 110.518C57.9245 110.482 58.0711 110.451 58.2189 110.41C58.7472 110.286 59.2583 110.144 59.7393 109.993C59.8902 109.948 60.0369 109.9 60.1824 109.85C60.7302 109.663 61.237 109.464 61.7029 109.255C61.8592 109.183 62.0069 109.112 62.1482 109.039C62.6841 108.779 63.1921 108.464 63.6643 108.1C63.8197 107.978 63.9681 107.848 64.1086 107.709C64.7448 107.091 65.0963 106.415 65.0963 105.717V102.158L34.8628 102.151Z" fill="#DE7A00"/>
<g style="mix-blend-mode:multiply">
<g style="mix-blend-mode:multiply">
<path d="M63.6641 103.364V108.09C63.8195 107.968 63.9678 107.838 64.1083 107.699V103.364H63.6641Z" fill="#EDD3CE"/>
</g>
<g style="mix-blend-mode:multiply">
<path d="M61.7029 103.213V109.252C61.8592 109.179 62.007 109.108 62.1482 109.036V103.213H61.7029Z" fill="#EDD3CE"/>
</g>
<g style="mix-blend-mode:multiply">
<path d="M59.738 103.213V109.985C59.889 109.941 60.0357 109.892 60.1812 109.843V103.213H59.738Z" fill="#EDD3CE"/>
</g>
<g style="mix-blend-mode:multiply">
<path d="M57.7734 103.213V110.509C57.9244 110.473 58.071 110.442 58.2188 110.401V103.213H57.7734Z" fill="#EDD3CE"/>
</g>
<g style="mix-blend-mode:multiply">
<path d="M55.8132 103.213V110.879C55.9642 110.856 56.1108 110.829 56.2575 110.802V103.213H55.8132Z" fill="#EDD3CE"/>
</g>
<g style="mix-blend-mode:multiply">
<path d="M53.8474 103.213V111.123C53.9995 111.11 54.145 111.097 54.2917 111.074V103.213H53.8474Z" fill="#EDD3CE"/>
</g>
<g style="mix-blend-mode:multiply">
<path d="M51.8838 103.213V111.261C52.0337 111.261 52.1803 111.252 52.327 111.239V103.213H51.8838Z" fill="#EDD3CE"/>
</g>
<g style="mix-blend-mode:multiply">
<path d="M49.9255 103.213V111.309H49.9816C50.1132 111.309 50.2415 111.309 50.3698 111.309V103.213H49.9255Z" fill="#EDD3CE"/>
</g>
<g style="mix-blend-mode:multiply">
<path d="M47.9578 103.213V111.256C48.1044 111.265 48.2543 111.274 48.402 111.278V103.213H47.9578Z" fill="#EDD3CE"/>
</g>
<g style="mix-blend-mode:multiply">
<path d="M45.9922 103.213V111.11C46.1388 111.127 46.2855 111.141 46.4364 111.15V103.213H45.9922Z" fill="#EDD3CE"/>
</g>
<g style="mix-blend-mode:multiply">
<path d="M44.0305 103.213V110.861L44.4748 110.926V103.213H44.0305Z" fill="#EDD3CE"/>
</g>
<g style="mix-blend-mode:multiply">
<path d="M42.0669 103.213V110.482C42.2125 110.513 42.3591 110.55 42.5112 110.58V103.213H42.0669Z" fill="#EDD3CE"/>
</g>
<g style="mix-blend-mode:multiply">
<path d="M40.1008 103.213V109.944C40.2432 109.994 40.393 110.038 40.5451 110.083V103.213H40.1008Z" fill="#EDD3CE"/>
</g>
<g style="mix-blend-mode:multiply">
<path d="M38.1409 103.213V109.193C38.2875 109.259 38.4342 109.323 38.5851 109.389V103.213H38.1409Z" fill="#EDD3CE"/>
</g>
<g style="mix-blend-mode:multiply">
<path d="M36.3215 103.213V108.108C36.4596 108.215 36.6105 108.323 36.7658 108.431V103.213H36.3215Z" fill="#EDD3CE"/>
</g>
</g>
<path d="M49.9783 97.0361C41.629 97.0361 34.8616 99.3266 34.8616 102.15C34.8616 104.973 41.629 107.262 49.9783 107.262C58.3276 107.262 65.094 104.973 65.094 102.15C65.094 99.3266 58.3265 97.0361 49.9783 97.0361Z" fill="#FEC833"/>
<g style="mix-blend-mode:multiply">
<path d="M36.6009 101.824C36.6009 104.647 43.3683 106.937 51.7176 106.937C53.8652 106.943 56.0099 106.782 58.1325 106.455C55.7796 106.965 52.9825 107.262 49.9783 107.262C41.629 107.262 34.8616 104.973 34.8616 102.15C34.8616 100.101 38.42 98.3357 43.5646 97.5205C39.3775 98.4296 36.6009 100.017 36.6009 101.824Z" fill="#EDD3CE"/>
</g>
<g style="mix-blend-mode:soft-light">
<path d="M65.0917 102.162C65.0917 102.969 64.5363 103.733 63.5486 104.412C62.438 105.175 64.1665 103.696 64.1665 102.293C64.1665 99.47 56.8071 97.4061 48.4588 97.4061C45.1829 97.4061 42.7104 97.611 44.8465 97.35C46.5484 97.1477 48.261 97.0483 49.9749 97.0524C58.3232 97.0524 65.0917 99.3374 65.0917 102.162Z" fill="#FFFBDC"/>
</g>
<path d="M49.9784 98.0142C43.226 98.0142 37.7515 99.8657 37.7515 102.15C37.7515 104.434 43.226 106.285 49.9784 106.285C56.7307 106.285 62.2042 104.434 62.2042 102.15C62.2042 99.8657 56.7307 98.0142 49.9784 98.0142Z" stroke="#E38F2F" stroke-width="2.4" stroke-miterlimit="10"/>
<path d="M46.4977 100.25C45.4399 100.25 44.5999 100.573 43.886 100.815C43.3876 100.965 42.8733 101.055 42.3538 101.084L39.7378 101.175V102.002C39.7378 102.136 40.0171 102.275 40.484 102.275C40.9768 102.275 41.6399 102.275 42.0939 102.275C42.1554 102.769 43.046 103.333 43.4957 103.553C43.8407 103.722 44.313 103.755 44.7983 103.703C45.3029 103.651 45.7903 103.548 45.91 103.31C46.0178 103.095 45.6544 102.556 45.6544 102.556C45.6544 102.556 44.4316 102.448 44.4015 102.268L49.4447 102.251C50.206 102.766 50.8939 103.091 51.5485 103.249C52.327 103.422 53.1233 103.502 53.9207 103.487C54.999 103.487 55.9339 103.356 56.7092 103.103C57.436 102.869 57.8954 102.573 58.0603 102.222C58.3838 102.222 59.3953 102.238 60.0994 102.238C60.7291 102.238 60.6871 101.136 60.6871 101.136C60.6871 101.136 60.2946 101.144 59.6918 101.144H58.1326C58.0657 100.699 57.8662 100.998 57.4716 100.772C57.1481 100.584 55.1953 99.9243 55.1953 99.9243C55.1953 99.9243 55.1953 100.714 55.1953 100.75C55.1953 100.787 55.2287 100.82 55.2945 100.858C55.8056 101.133 55.6859 101.253 55.6859 101.253H51.3382C51.3382 101.253 49.5967 100.917 48.9282 100.734C48.2327 100.535 47.3787 100.247 46.4977 100.25Z" fill="#E38F2F"/>
<path d="M46.5527 99.6157C45.497 99.6157 44.5999 99.7451 43.886 99.9877C43.2186 100.216 42.7775 100.527 42.577 100.919C42.1456 100.919 41.0544 100.927 40.4721 100.927C40.0408 100.927 39.7378 101.035 39.7378 101.175C39.7378 101.315 40.0171 101.449 40.484 101.449C40.9768 101.449 42.0216 101.449 42.4756 101.442C42.5371 101.937 43.046 102.501 43.4968 102.722C43.8418 102.891 44.7174 102.895 45.2016 102.844C45.7062 102.79 45.8949 102.662 45.6555 102.55C45.2307 102.353 45.0085 102.233 44.7648 102.005C44.5546 101.804 44.4327 101.613 44.4025 101.436L49.4458 101.42C50.207 101.932 50.895 102.26 51.5495 102.417C52.3281 102.591 53.1244 102.671 53.9218 102.657C55.0001 102.657 55.935 102.523 56.7103 102.273C57.4371 102.038 57.8964 101.74 58.0614 101.391C58.3849 101.391 59.0653 101.391 59.7705 101.391C60.4013 101.391 60.6882 101.258 60.6882 101.135C60.6882 101.012 60.3647 100.868 59.7597 100.868C59.35 100.868 58.5089 100.868 58.1121 100.868C58.0452 100.421 57.8662 100.165 57.4716 99.9381C57.1481 99.7516 56.1852 99.7009 55.6676 99.7483C55.2427 99.7882 55.1953 99.8799 55.1953 99.9177C55.1953 99.9554 55.2298 99.9877 55.2956 100.025C55.8067 100.302 56.1054 100.587 56.183 100.877L50.978 100.895C50.3555 100.451 49.6629 100.116 48.9293 99.9015C48.1535 99.7 47.3541 99.6039 46.5527 99.6157ZM48.6316 100.9L44.5265 100.914C44.8198 100.55 45.4431 100.375 46.4244 100.367C47.1931 100.357 47.952 100.541 48.6316 100.9ZM55.4465 101.742C55.0145 101.858 54.5684 101.912 54.1213 101.904C53.6637 101.915 53.2064 101.873 52.7583 101.78C52.4333 101.699 52.1204 101.575 51.8277 101.412L56.0827 101.398C55.9066 101.568 55.6874 101.687 55.4487 101.742H55.4465Z" fill="#FFDB31"/>
<path d="M30.9375 97.0709V100.629C30.9375 101.492 31.4616 102.305 32.3964 103.031C32.5345 103.139 32.6844 103.247 32.8407 103.355C33.2785 103.644 33.7378 103.9 34.2145 104.12C34.3611 104.186 34.5078 104.248 34.6587 104.315C35.1542 104.526 35.6603 104.712 36.1748 104.871C36.3172 104.92 36.4681 104.965 36.6202 105.01C37.0989 105.155 37.6111 105.289 38.1406 105.408C38.2872 105.44 38.4339 105.477 38.5848 105.506C39.0737 105.608 39.5805 105.701 40.1052 105.786C40.2519 105.809 40.3985 105.832 40.5495 105.853C41.0434 105.924 41.5502 105.987 42.0667 106.036C42.2122 106.055 42.3589 106.067 42.5109 106.076C43.0091 106.124 43.5159 106.16 44.0303 106.184C44.1769 106.192 44.329 106.201 44.4745 106.206C44.9777 106.227 45.4849 106.238 45.996 106.237H46.0542C46.1826 106.237 46.3109 106.237 46.4403 106.232C46.9525 106.232 47.4582 106.214 47.9575 106.187C48.1073 106.187 48.254 106.179 48.4017 106.165C48.9171 106.14 49.4239 106.099 49.9221 106.051C50.0731 106.037 50.2197 106.023 50.3664 106.001C50.8861 105.948 51.3929 105.881 51.8868 105.806C52.0378 105.783 52.1855 105.757 52.3311 105.73C52.8519 105.646 53.3587 105.544 53.8472 105.437C53.9992 105.401 54.1448 105.37 54.2914 105.329C54.8209 105.205 55.3331 105.064 55.8129 104.912C55.9639 104.867 56.1105 104.818 56.2572 104.769C56.8035 104.582 57.3107 104.384 57.7787 104.174C57.9339 104.103 58.0806 104.032 58.2218 103.958C58.7582 103.695 59.2663 103.377 59.7379 103.011C59.8925 102.888 60.0404 102.758 60.1811 102.62C60.8173 102.002 61.1688 101.326 61.1688 100.628V97.0698L30.9375 97.0709Z" fill="#DE7A00"/>
<g style="mix-blend-mode:multiply">
<g style="mix-blend-mode:multiply">
<path d="M59.7383 98.2852V103.011C59.8929 102.888 60.0408 102.758 60.1815 102.62V98.2852H59.7383Z" fill="#EDD3CE"/>
</g>
<g style="mix-blend-mode:multiply">
<path d="M57.7788 98.1309V104.17C57.9341 104.099 58.0807 104.027 58.222 103.954V98.1309H57.7788Z" fill="#EDD3CE"/>
</g>
<g style="mix-blend-mode:multiply">
<path d="M55.8132 98.1309V104.902C55.9642 104.858 56.1108 104.808 56.2575 104.76V98.1309H55.8132Z" fill="#EDD3CE"/>
</g>
<g style="mix-blend-mode:multiply">
<path d="M53.8474 98.1309V105.427C53.9995 105.391 54.145 105.36 54.2917 105.319V98.1309H53.8474Z" fill="#EDD3CE"/>
</g>
<g style="mix-blend-mode:multiply">
<path d="M51.887 98.1309V105.796C52.0379 105.773 52.1857 105.747 52.3312 105.72V98.1309H51.887Z" fill="#EDD3CE"/>
</g>
<g style="mix-blend-mode:multiply">
<path d="M49.9255 98.1309V106.042C50.0765 106.028 50.2231 106.014 50.3698 105.991V98.1309H49.9255Z" fill="#EDD3CE"/>
</g>
<g style="mix-blend-mode:multiply">
<path d="M47.9578 98.1309V106.178C48.1076 106.178 48.2543 106.169 48.402 106.155V98.1309H47.9578Z" fill="#EDD3CE"/>
</g>
<g style="mix-blend-mode:multiply">
<path d="M45.9963 98.1309V106.227H46.0546C46.1829 106.227 46.3112 106.227 46.4406 106.222V98.1309H45.9963Z" fill="#EDD3CE"/>
</g>
<g style="mix-blend-mode:multiply">
<path d="M44.0305 98.1309V106.174C44.1772 106.182 44.3292 106.192 44.4748 106.196V98.1309H44.0305Z" fill="#EDD3CE"/>
</g>
<g style="mix-blend-mode:multiply">
<path d="M42.0669 98.1309V106.028C42.2125 106.046 42.3591 106.058 42.5112 106.068V98.1309H42.0669Z" fill="#EDD3CE"/>
</g>
<g style="mix-blend-mode:multiply">
<path d="M40.1057 98.1309V105.778C40.2524 105.8 40.399 105.823 40.55 105.844V98.1309H40.1057Z" fill="#EDD3CE"/>
</g>
<g style="mix-blend-mode:multiply">
<path d="M38.1409 98.1309V105.399C38.2875 105.431 38.4342 105.468 38.5851 105.497V98.1309H38.1409Z" fill="#EDD3CE"/>
</g>
<g style="mix-blend-mode:multiply">
<path d="M36.1753 98.1309V104.862C36.3176 104.912 36.4686 104.956 36.6206 105.001V98.1309H36.1753Z" fill="#EDD3CE"/>
</g>
<g style="mix-blend-mode:multiply">
<path d="M34.2148 98.1309V104.111C34.3615 104.177 34.5081 104.24 34.6591 104.307V98.1309H34.2148Z" fill="#EDD3CE"/>
</g>
<g style="mix-blend-mode:multiply">
<path d="M32.3967 98.1309V103.027C32.5347 103.134 32.6846 103.242 32.841 103.35V98.1309H32.3967Z" fill="#EDD3CE"/>
</g>
</g>
<path d="M46.0523 91.957C37.7041 91.957 30.9355 94.2464 30.9355 97.0695C30.9355 99.8927 37.7041 102.183 46.0523 102.183C54.4005 102.183 61.168 99.8938 61.168 97.0695C61.168 94.2453 54.4005 91.957 46.0523 91.957Z" fill="#FEC833"/>
<g style="mix-blend-mode:multiply">
<path d="M32.6728 96.7442C32.6728 99.5684 39.4402 101.858 47.7895 101.858C49.9367 101.864 52.0812 101.702 54.2033 101.375C51.8493 101.886 49.0522 102.183 46.0491 102.183C37.7009 102.183 30.9324 99.8941 30.9324 97.0698C30.9324 95.0209 34.4908 93.2567 39.6343 92.4404C35.4515 93.3495 32.6728 94.9368 32.6728 96.7442Z" fill="#EDD3CE"/>
</g>
<g style="mix-blend-mode:soft-light">
<path d="M61.1659 97.0814C61.1659 97.8891 60.6106 98.6537 59.6229 99.3341C58.5133 100.097 60.2408 98.617 60.2408 97.2141C60.2408 94.3909 52.8813 92.3258 44.5342 92.3258C41.2572 92.3258 38.7858 92.5307 40.9219 92.2709C42.6236 92.0662 44.3363 91.965 46.0503 91.9678C54.3974 91.9678 61.1659 94.2583 61.1659 97.0814Z" fill="#FFFBDC"/>
</g>
<path d="M46.0523 92.9341C39.2989 92.9341 33.8254 94.7856 33.8254 97.0696C33.8254 99.3536 39.2989 101.206 46.0523 101.206C52.8057 101.206 58.2781 99.3536 58.2781 97.0696C58.2781 94.7856 52.8047 92.9341 46.0523 92.9341Z" stroke="#E38F2F" stroke-width="2.4" stroke-miterlimit="10"/>
<path d="M42.5717 95.1706C41.5149 95.1706 40.6749 95.4941 39.9611 95.7346C39.4624 95.8848 38.9477 95.9753 38.4277 96.0042L35.8118 96.0958V96.9219C35.8118 97.0567 36.0921 97.1958 36.558 97.1958C37.0507 97.1958 37.7139 97.1958 38.1689 97.1904C38.2304 97.6853 39.12 98.2482 39.5707 98.4693C39.9147 98.6386 40.3881 98.671 40.8722 98.6203C41.3769 98.5653 41.8643 98.4639 41.984 98.2278C42.1037 97.9916 41.7284 97.4729 41.7284 97.4729C41.7284 97.4729 40.5067 97.3651 40.4754 97.1861L45.5197 97.1699C46.2799 97.6832 46.969 98.0089 47.6224 98.1674C48.4012 98.339 49.1974 98.419 49.9947 98.4057C51.073 98.4057 52.0068 98.273 52.7832 98.0229C53.51 97.7878 53.9629 97.4912 54.1332 97.1408C54.4567 97.1408 55.4682 97.1559 56.1723 97.1559C56.8031 97.1559 56.7611 96.0549 56.7611 96.0549C56.7611 96.0549 56.3685 96.0624 55.7647 96.0624H54.2065C54.1397 95.617 53.9413 95.9147 53.5466 95.6893C53.2231 95.5017 51.2692 94.8428 51.2692 94.8428V95.6688C51.2692 95.7022 51.3038 95.7378 51.3695 95.7766C51.8817 96.0505 51.761 96.1702 51.761 96.1702H47.4122C47.4122 96.1702 45.6707 95.8338 45.0011 95.6505C44.3077 95.4564 43.4559 95.1674 42.5717 95.1706Z" fill="#E38F2F"/>
<path d="M42.6277 94.5362C41.5721 94.5362 40.6749 94.6645 39.9611 94.9072C39.2925 95.1368 38.8515 95.4463 38.6509 95.8399C38.2196 95.8399 37.1284 95.8464 36.5472 95.8464C36.1159 95.8464 35.8118 95.9489 35.8118 96.0955C35.8118 96.2422 36.091 96.3694 36.558 96.3694C37.0507 96.3694 38.0945 96.3694 38.5496 96.3619C38.6121 96.8557 39.12 97.423 39.5718 97.643C39.9158 97.8123 40.7925 97.8144 41.2755 97.7627C41.7813 97.7109 41.9689 97.5826 41.7295 97.4693C41.3057 97.272 41.0825 97.1523 40.8388 96.9302C40.6296 96.7285 40.5078 96.5376 40.4765 96.3608L45.5208 96.3425C46.281 96.8579 46.9701 97.1847 47.6235 97.341C48.4021 97.5142 49.1984 97.5945 49.9958 97.5804C51.0741 97.5804 52.0079 97.4478 52.7843 97.1965C53.5111 96.9614 53.9639 96.6649 54.1343 96.3155C54.4578 96.3155 55.1382 96.309 55.8434 96.309C56.4742 96.309 56.7621 96.1785 56.7621 96.0556C56.7621 95.9327 56.4387 95.7882 55.8337 95.7882C55.4229 95.7882 54.5807 95.7882 54.185 95.7882C54.1192 95.3396 53.9381 95.0851 53.5456 94.8597C53.2221 94.6721 52.2581 94.6203 51.7416 94.6688C51.3102 94.7077 51.2682 94.7993 51.2682 94.8381C51.2682 94.877 51.3027 94.9061 51.3685 94.946C51.8807 95.2199 52.1783 95.5067 52.2548 95.7968L47.0509 95.8141C46.4278 95.3719 45.7354 95.0366 45.0022 94.822C44.2272 94.62 43.4285 94.5239 42.6277 94.5362ZM44.7078 95.8205L40.6027 95.8346C40.8971 95.469 41.5203 95.29 42.5016 95.2878C43.27 95.2773 44.0288 95.4605 44.7078 95.8205ZM51.5216 96.6638C51.0898 96.7784 50.6441 96.8324 50.1974 96.8245C49.7395 96.8349 49.2819 96.7933 48.8334 96.7005C48.5086 96.6188 48.196 96.4944 47.9039 96.3306L52.1589 96.3177C52.0359 96.4589 51.8224 96.5754 51.5216 96.6638Z" fill="#FFDB31"/>
<path d="M34.6404 92.5137V96.0723C34.6404 96.9349 35.1666 97.748 36.0982 98.4727C36.2373 98.5805 36.3883 98.6883 36.5447 98.7962C36.982 99.0857 37.4409 99.3413 37.9173 99.5607C38.0651 99.6276 38.2106 99.6901 38.3627 99.757C38.858 99.9685 39.3641 100.154 39.8788 100.312C40.02 100.362 40.171 100.405 40.323 100.45C40.8029 100.596 41.314 100.73 41.8435 100.85C41.989 100.882 42.1368 100.917 42.2877 100.949C42.7773 101.05 43.2841 101.143 43.8081 101.229L44.2524 101.295C44.7462 101.366 45.2541 101.428 45.7685 101.478C45.9162 101.496 46.0618 101.509 46.2149 101.518C46.7124 101.567 47.2192 101.603 47.7353 101.626C47.8809 101.635 48.0318 101.644 48.1796 101.647C48.681 101.671 49.1889 101.68 49.6989 101.68H49.7582C49.8865 101.68 50.0148 101.68 50.1453 101.674C50.6564 101.674 51.1622 101.657 51.6549 101.631C51.8059 101.631 51.9526 101.621 52.0992 101.609C52.6157 101.582 53.1214 101.542 53.6207 101.493C53.7706 101.48 53.9183 101.466 54.0639 101.445C54.5858 101.391 55.0915 101.324 55.5854 101.248C55.7363 101.227 55.883 101.199 56.0296 101.173C56.5494 101.089 57.0572 100.985 57.5457 100.88C57.6967 100.844 57.8433 100.813 57.99 100.772C58.5194 100.647 59.0305 100.504 59.5115 100.353C59.6624 100.309 59.8091 100.261 59.9547 100.211C60.5024 100.024 61.0092 99.8239 61.4761 99.6147C61.6314 99.5446 61.7781 99.4734 61.9204 99.399C62.456 99.1386 62.9637 98.8243 63.4354 98.4608C63.5913 98.3386 63.7403 98.2079 63.8818 98.0694C64.518 97.4515 64.8685 96.7753 64.8685 96.0776V92.5191L34.6404 92.5137Z" fill="#DE7A00"/>
<g style="mix-blend-mode:multiply">
<g style="mix-blend-mode:multiply">
<path d="M63.4409 93.728V98.4545C63.5968 98.3323 63.7458 98.2016 63.8873 98.063V93.728H63.4409Z" fill="#EDD3CE"/>
</g>
<g style="mix-blend-mode:multiply">
<path d="M61.4817 93.5757V99.6145C61.637 99.5444 61.7836 99.4732 61.9259 99.3988V93.5757H61.4817Z" fill="#EDD3CE"/>
</g>
<g style="mix-blend-mode:multiply">
<path d="M59.5225 93.5757V100.348C59.6734 100.304 59.8201 100.255 59.9656 100.205V93.5757H59.5225Z" fill="#EDD3CE"/>
</g>
<g style="mix-blend-mode:multiply">
<path d="M57.5513 93.5757V100.873C57.7022 100.837 57.8489 100.806 57.9955 100.765V93.5757H57.5513Z" fill="#EDD3CE"/>
</g>
<g style="mix-blend-mode:multiply">
<path d="M55.5908 93.5757V101.242C55.7418 101.22 55.8884 101.192 56.0351 101.166V93.5757H55.5908Z" fill="#EDD3CE"/>
</g>
<g style="mix-blend-mode:multiply">
<path d="M53.6265 93.5757V101.487C53.7763 101.474 53.9241 101.46 54.0696 101.438V93.5757H53.6265Z" fill="#EDD3CE"/>
</g>
<g style="mix-blend-mode:multiply">
<path d="M51.6606 93.5757V101.625C51.8116 101.625 51.9583 101.615 52.1049 101.602V93.5757H51.6606Z" fill="#EDD3CE"/>
</g>
<g style="mix-blend-mode:multiply">
<path d="M49.699 93.5757V101.673H49.7583C49.8866 101.673 50.0149 101.673 50.1454 101.668V93.58L49.699 93.5757Z" fill="#EDD3CE"/>
</g>
<g style="mix-blend-mode:multiply">
<path d="M47.7356 93.5757V101.619C47.8812 101.629 48.0321 101.638 48.1799 101.641V93.5757H47.7356Z" fill="#EDD3CE"/>
</g>
<g style="mix-blend-mode:multiply">
<path d="M45.7686 93.5757V101.474C45.9163 101.492 46.0619 101.505 46.215 101.513V93.5757H45.7686Z" fill="#EDD3CE"/>
</g>
<g style="mix-blend-mode:multiply">
<path d="M43.8081 93.5757V101.224L44.2524 101.29V93.5757H43.8081Z" fill="#EDD3CE"/>
</g>
<g style="mix-blend-mode:multiply">
<path d="M41.8438 93.5757V100.846C41.9893 100.877 42.1371 100.913 42.288 100.944V93.5757H41.8438Z" fill="#EDD3CE"/>
</g>
<g style="mix-blend-mode:multiply">
<path d="M39.8789 93.5757V100.308C40.0202 100.357 40.1711 100.401 40.3232 100.446V93.5757H39.8789Z" fill="#EDD3CE"/>
</g>
<g style="mix-blend-mode:multiply">
<path d="M37.9177 93.5757V99.5563C38.0655 99.6231 38.211 99.6857 38.3631 99.7525V93.5757H37.9177Z" fill="#EDD3CE"/>
</g>
<g style="mix-blend-mode:multiply">
<path d="M36.0984 93.5757V98.4714C36.2375 98.5793 36.3885 98.6871 36.5448 98.7949V93.5757H36.0984Z" fill="#EDD3CE"/>
</g>
</g>
<path d="M49.7553 87.3999C41.4071 87.3999 34.6396 89.6893 34.6396 92.5135C34.6396 95.3377 41.4071 97.626 49.7553 97.626C58.1035 97.626 64.8721 95.3366 64.8721 92.5135C64.8721 89.6903 58.1046 87.3999 49.7553 87.3999Z" fill="#FEC833"/>
<g style="mix-blend-mode:multiply">
<path d="M36.38 92.187C36.38 95.0112 43.1475 97.3006 51.4957 97.3006C53.6433 97.3065 55.7881 97.1446 57.9105 96.8164C55.5577 97.3286 52.7606 97.6263 49.7553 97.6263C41.4071 97.6263 34.6396 95.3369 34.6396 92.5138C34.6396 90.4649 38.1981 88.6985 43.3416 87.8833C39.1556 88.7924 36.38 90.3797 36.38 92.187Z" fill="#EDD3CE"/>
</g>
<g style="mix-blend-mode:soft-light">
<path d="M64.8687 92.5236C64.8687 93.3324 64.3144 94.0958 63.3256 94.7752C62.2182 95.543 63.9435 94.0592 63.9435 92.6573C63.9435 89.8331 56.5852 87.7702 48.2369 87.7702C44.961 87.7702 42.4885 87.9751 44.6246 87.713C46.3265 87.5097 48.039 87.4093 49.753 87.4122C58.1013 87.4122 64.8687 89.7015 64.8687 92.5236Z" fill="#FFFBDC"/>
</g>
<path d="M49.755 88.377C43.0027 88.377 37.5249 90.2285 37.5249 92.5135C37.5249 94.7986 42.9984 96.648 49.7507 96.648C56.5031 96.648 61.9787 94.7975 61.9787 92.5135C61.9787 90.2296 56.5031 88.377 49.755 88.377Z" stroke="#E38F2F" stroke-width="2.4" stroke-miterlimit="10"/>
<path d="M46.2742 90.6125C45.2185 90.6125 44.3764 90.936 43.6647 91.1776C43.166 91.3277 42.6513 91.4182 42.1313 91.4471L39.5154 91.5377V92.3659C39.5154 92.5007 39.7936 92.6387 40.2616 92.6387C40.7544 92.6387 41.4164 92.6387 41.8715 92.6333C41.9329 93.1272 42.8236 93.6912 43.2733 93.9112C43.6183 94.0816 44.0917 94.1118 44.5748 94.0622C45.0794 94.0082 45.5679 93.9058 45.6865 93.6696C45.8051 93.4335 45.432 92.9148 45.432 92.9148C45.432 92.9148 44.2103 92.8069 44.179 92.6279L49.2223 92.6118C49.9825 93.1251 50.6715 93.4507 51.325 93.6092C52.1036 93.7819 52.8998 93.8619 53.6972 93.8476C54.7755 93.8476 55.7104 93.7149 56.4857 93.4647C57.2136 93.2297 57.6665 92.932 57.8379 92.5826C58.1614 92.5826 59.1707 92.5988 59.8748 92.5988C60.5067 92.5988 60.4636 91.4978 60.4636 91.4978C60.4636 91.4978 60.0722 91.5043 59.4683 91.5043H57.9102C57.8422 91.0579 57.6438 91.3576 57.2492 91.1323C56.9257 90.9446 54.9739 90.2847 54.9739 90.2847V91.1096C54.9739 91.1452 55.0074 91.1797 55.0731 91.2175C55.5843 91.4924 55.4646 91.6121 55.4646 91.6121H51.1115C51.1115 91.6121 49.3711 91.2768 48.7004 91.0924C48.0103 90.8983 47.1552 90.6103 46.2742 90.6125Z" fill="#E38F2F"/>
<path d="M46.3314 89.9792C45.2746 89.9792 44.3764 90.1086 43.6647 90.3512C42.9951 90.5788 42.5551 90.8904 42.3546 91.2829C41.9232 91.2829 40.8331 91.2894 40.2508 91.2894C39.8195 91.2894 39.5154 91.3972 39.5154 91.5374C39.5154 91.6776 39.7936 91.8124 40.2616 91.8124C40.7544 91.8124 41.7992 91.8124 42.2543 91.8049C42.3147 92.2987 42.8236 92.8649 43.2744 93.0859C43.6194 93.2542 44.4961 93.2574 44.9781 93.2067C45.4838 93.1539 45.6725 93.0245 45.4331 92.9123C45.0072 92.715 44.7861 92.5964 44.5424 92.3731C44.3322 92.1726 44.2103 91.9795 44.1801 91.8038L49.2234 91.7865C49.9836 92.3009 50.6726 92.6276 51.3261 92.7851C52.1047 92.9572 52.901 93.0372 53.6983 93.0234C54.7766 93.0234 55.7115 92.8908 56.4868 92.6406C57.2136 92.4044 57.6676 92.1079 57.839 91.7585C58.1625 91.7585 58.8429 91.7585 59.5471 91.7585C60.1779 91.7585 60.4647 91.6258 60.4647 91.5051C60.4647 91.3843 60.1412 91.2366 59.5363 91.2366C59.1265 91.2366 58.2844 91.2366 57.8886 91.2366C57.8218 90.789 57.6428 90.5335 57.2481 90.307C56.9246 90.1194 55.9617 90.0698 55.4452 90.1172C55.0139 90.156 54.9729 90.2477 54.9729 90.2865C54.9729 90.3253 55.0063 90.3555 55.0721 90.3944C55.5832 90.6715 55.8808 90.9562 55.9595 91.2463L50.7546 91.2635C50.1316 90.8208 49.4392 90.4852 48.7058 90.2703C47.9309 90.0673 47.1323 89.9694 46.3314 89.9792ZM48.4157 91.2635L44.3106 91.2765C44.6039 90.913 45.2272 90.7373 46.2095 90.7308C46.9779 90.7206 47.7366 90.9038 48.4157 91.2635ZM55.2306 92.1057C54.7983 92.2216 54.3518 92.2764 53.9043 92.2685C53.4466 92.2795 52.9892 92.2372 52.5413 92.1424C52.2166 92.0605 51.9038 91.9369 51.6107 91.7747L55.8668 91.7606C55.7403 91.9023 55.5268 92.0173 55.2263 92.1057H55.2306Z" fill="#FFDB31"/>
<g style="mix-blend-mode:soft-light">
<path d="M24.5582 54.12C26.2738 52.3482 30.4295 50.8849 35.6647 49.8906C33.9114 53.5937 33.5588 57.754 33.0929 61.8162C32.3015 68.7177 31.5477 75.6278 31.0107 82.5585C30.1028 94.2468 29.7114 105.959 30.1826 117.669C28.7193 117.447 27.3424 117.201 26.0689 116.932C26.9218 74.3802 29.6866 63.919 29.6866 63.919C29.6866 63.919 24.4859 72.9546 23.8864 116.427C22.6938 116.122 21.6219 115.796 20.6784 115.456C20.4369 115.366 21.4505 83.4675 23.6459 70.0171C19.2324 92.2917 19.1569 114.833 18.7936 114.649C17.1502 113.816 16.2412 112.899 16.2412 111.938C16.2477 108.699 18.4798 60.3971 24.5582 54.12Z" fill="#AFDFF9"/>
</g>
<path d="M29.6899 51.2219C29.6899 54.14 38.9073 56.5059 50.278 56.5059C61.6487 56.5059 70.8639 54.1335 70.8639 51.2219V44.5986H29.6899V51.2219Z" fill="#79BDD1"/>
<g style="mix-blend-mode:multiply">
<path d="M50.7297 48.0095C49.7574 46.8029 48.7047 45.6634 47.5789 44.5986H70.8638V51.2219C70.8638 53.8499 63.3889 56.0292 53.6001 56.4369C55.2089 54.0257 52.277 49.9214 50.7297 48.0095Z" fill="#D6E7F1"/>
</g>
<path d="M28.2593 45.9298C28.2593 48.493 38.0643 50.5753 50.1586 50.5753C62.2528 50.5753 72.0568 48.4962 72.0568 45.933V40.1152H28.2593V45.9298Z" fill="#049157"/>
<path d="M28.2593 40.115C28.2593 42.6782 38.0643 44.7573 50.1586 44.7573C62.2528 44.7573 72.0568 42.6782 72.0568 40.115C72.0568 37.5517 62.2528 35.478 50.1586 35.478C38.0643 35.478 28.2593 37.5517 28.2593 40.115Z" fill="#1F95C5"/>
<path d="M31.8975 40.115C31.8975 42.2523 40.0732 43.9863 50.1585 43.9863C60.2439 43.9863 68.4196 42.2523 68.4196 40.115C68.4196 37.9777 60.2439 36.2437 50.1585 36.2437C40.0732 36.2437 31.8975 37.9766 31.8975 40.115Z" fill="white"/>
<g style="mix-blend-mode:soft-light" opacity="0.5">
<path d="M50.1585 37.6013C41.1655 37.6013 33.6961 38.9794 32.1821 40.7943C32.0104 40.6083 31.9097 40.3678 31.8975 40.115C31.8975 37.9766 40.0732 36.2437 50.1585 36.2437C60.2439 36.2437 68.4196 37.9766 68.4196 40.115C68.4074 40.3678 68.3066 40.6083 68.135 40.7943C66.621 38.9794 59.1516 37.6013 50.1585 37.6013Z" fill="#CDEAFC"/>
</g>
<path d="M40.4883 40.3935C40.4883 40.9381 41.0857 41.3791 41.8243 41.3791H60.7345C61.4742 41.3791 62.0716 40.9381 62.0716 40.3935C62.0716 39.8543 61.4742 39.4111 60.7345 39.4111H41.8243C41.0857 39.4111 40.4883 39.8511 40.4883 40.3935Z" fill="#0074A2"/>
<path d="M31.4075 27.5877C33.631 26.4522 50.6445 16.9066 63.2488 10.9702C64.0349 13.1927 64.6247 15.4993 64.8285 17.8534C65.1854 21.9673 64.7875 25.802 61.8664 28.5561C60.8086 26.7477 60.1551 25.3286 60.1551 25.3286C60.1551 25.3286 41.755 34.2488 36.9468 36.233C32.1386 38.2171 28.1263 29.2624 31.4075 27.5877Z" fill="#EEAC89"/>
<path d="M35.8915 30.937C38.1452 29.7875 55.4185 20.1944 68.1641 14.1372C68.8402 16.1537 69.3189 18.2609 69.4138 20.423C69.581 24.208 69.0127 27.7698 65.9945 30.4463C65.0305 28.8288 64.4471 27.5423 64.4471 27.5423C64.4471 27.5423 45.8281 36.621 40.9811 38.6721C36.1341 40.7231 32.5649 32.6354 35.8915 30.937Z" fill="#EEAC89"/>
<path d="M47.4314 40.4278H43.6196C41.1492 38.9903 40.1626 34.9184 42.4658 33.7419C44.6332 32.6366 61.2661 23.4565 73.507 17.6064C74.0893 19.4116 74.4775 21.302 74.5087 23.256C74.5551 26.6744 73.9135 29.9116 70.9794 32.422C70.4738 31.5865 70.0127 30.7247 69.5981 29.8404C69.5981 29.8404 52.5836 38.1664 47.4314 40.4278Z" fill="#EEAC89"/>
<path d="M111.409 31.7854V5.53924L96.0704 8.86275C96.0704 8.86275 81.1273 1.69165 71.3536 2.06908C65.3528 2.29661 29.869 21.7362 26.5835 23.4098C23.2979 25.0834 27.3145 34.0381 32.1227 32.055C36.9309 30.0719 55.33 21.1517 55.33 21.1517C55.33 21.1517 59.104 28.8167 62.9795 31.3519C76.0647 39.9055 95.844 30.7588 95.844 30.7588L111.409 31.7854Z" fill="#F8B894"/>
<path d="M62.8747 35.3982C62.8302 35.7577 62.7691 36.111 62.6914 36.4582C62.6666 36.5661 62.6418 36.6663 62.617 36.7677C62.5232 37.1279 62.4132 37.4816 62.286 37.8256C62.245 37.9334 62.2051 38.0337 62.162 38.1362C62.0133 38.4992 61.8434 38.8532 61.653 39.1962C61.5969 39.304 61.5376 39.4032 61.4762 39.5057C61.2879 39.8247 61.0812 40.1326 60.8572 40.4277H50.0332V23.6419L52.4055 23.5923C53.5416 23.5896 54.6706 23.7717 55.7482 24.1315C56.0243 24.2242 56.2938 24.3267 56.5602 24.441C57.2256 24.7263 57.8592 25.0809 58.4504 25.4989C58.5939 25.5981 58.7362 25.7027 58.8731 25.8083C59.2903 26.1309 59.6818 26.4853 60.0442 26.8684C60.1402 26.9708 60.235 27.0733 60.3267 27.1789C60.6219 27.5144 60.8953 27.8684 61.1451 28.239C61.2131 28.3468 61.2821 28.4439 61.3468 28.5495C61.5593 28.8909 61.753 29.2437 61.9269 29.6063C61.9733 29.7088 62.0229 29.8101 62.066 29.9158C62.2191 30.2614 62.3516 30.6157 62.4628 30.9769C62.4962 31.0794 62.5243 31.1818 62.5556 31.2864C62.6536 31.6355 62.7324 31.9898 62.7917 32.3475C62.81 32.4489 62.8251 32.5513 62.8413 32.6581C62.8913 33.008 62.9223 33.3605 62.934 33.7138C62.9405 33.8162 62.9427 33.9219 62.9427 34.0244V34.1322C62.9427 34.4557 62.9276 34.7717 62.9006 35.0876C62.8963 35.1901 62.8877 35.2958 62.8747 35.3982Z" fill="#DE7A00"/>
<g style="mix-blend-mode:multiply">
<g style="mix-blend-mode:multiply">
<path d="M52.6689 24.1348V24.4443H56.5659C56.2996 24.3299 56.0268 24.2286 55.754 24.1348H52.6689Z" fill="#EDD3CE"/>
</g>
<g style="mix-blend-mode:multiply">
<path d="M53.7 25.502V25.8114H58.8758C58.7389 25.7036 58.5965 25.5958 58.4531 25.502H53.7Z" fill="#EDD3CE"/>
</g>
<g style="mix-blend-mode:multiply">
<path d="M54.7339 26.8716V27.1821H60.3324C60.2408 27.0743 60.1459 26.974 60.0499 26.8716H54.7339Z" fill="#EDD3CE"/>
</g>
<g style="mix-blend-mode:multiply">
<path d="M55.7688 28.2422V28.5528H61.3555C61.2908 28.4449 61.2218 28.3446 61.1538 28.2422H55.7688Z" fill="#EDD3CE"/>
</g>
<g style="mix-blend-mode:multiply">
<path d="M56.801 29.6099V29.9194H62.0718C62.0286 29.8115 61.979 29.7123 61.9327 29.6099H56.801Z" fill="#EDD3CE"/>
</g>
<g style="mix-blend-mode:multiply">
<path d="M57.8337 30.98V31.2895H62.561C62.5298 31.1816 62.5017 31.0824 62.4683 30.98H57.8337Z" fill="#EDD3CE"/>
</g>
<g style="mix-blend-mode:multiply">
<path d="M58.8691 32.3506V32.6612H62.847C62.8308 32.5533 62.8157 32.452 62.7974 32.3506H58.8691Z" fill="#EDD3CE"/>
</g>
<g style="mix-blend-mode:multiply">
<path d="M59.9023 33.7173V34.0279H62.9486C62.9486 33.9254 62.9486 33.8197 62.9399 33.7173H59.9023Z" fill="#EDD3CE"/>
</g>
<g style="mix-blend-mode:multiply">
<path d="M56.9812 35.0874V35.398H62.8752C62.8882 35.2955 62.8968 35.1898 62.9065 35.0874H56.9812Z" fill="#EDD3CE"/>
</g>
<g style="mix-blend-mode:multiply">
<path d="M57.8608 36.458V36.7718H62.6172C62.642 36.6704 62.6668 36.5648 62.6916 36.4623L57.8608 36.458Z" fill="#EDD3CE"/>
</g>
<g style="mix-blend-mode:multiply">
<path d="M56.1562 37.8257V38.1362H62.1624C62.2055 38.0338 62.2454 37.9314 62.2864 37.8257H56.1562Z" fill="#EDD3CE"/>
</g>
<g style="mix-blend-mode:multiply">
<path d="M55.614 39.1958V39.5053H61.4768C61.5382 39.3975 61.5975 39.3004 61.6536 39.1958H55.614Z" fill="#EDD3CE"/>
</g>
</g>
<path d="M41.5459 40.428C40.3892 38.8579 39.6907 36.9978 39.528 35.0545C39.3653 33.1111 39.7448 31.1607 40.6243 29.4202C41.5038 27.6796 42.8488 26.2172 44.5098 25.1955C46.1708 24.1738 48.0827 23.6328 50.0327 23.6328C51.9828 23.6328 53.8946 24.1738 55.5556 25.1955C57.2166 26.2172 58.5616 27.6796 59.4411 29.4202C60.3207 31.1607 60.7002 33.1111 60.5375 35.0545C60.3747 36.9978 59.6762 38.8579 58.5195 40.428H41.5459Z" fill="#FEC833"/>
<g style="mix-blend-mode:multiply">
<path d="M41.5461 40.4274C41.1363 39.8733 40.7819 39.2802 40.4883 38.6567C40.9018 39.2973 41.3838 39.891 41.9257 40.4274H41.5461Z" fill="#EDD3CE"/>
</g>
<g style="mix-blend-mode:multiply">
<path d="M56.803 40.4279C58.3391 38.8979 59.3655 36.931 59.742 34.7958C60.1186 32.6606 59.8269 30.4612 58.9068 28.498C60.058 30.2918 60.6374 32.3929 60.5683 34.5232C60.4992 36.6535 59.7848 38.7126 58.5196 40.4279H56.803Z" fill="#EDD3CE"/>
</g>
<g style="mix-blend-mode:soft-light">
<path d="M50.0569 23.644C51.6647 23.6432 53.2512 24.0122 54.6936 24.7224C56.2669 25.4956 53.2163 24.2911 50.3254 24.2911C44.5026 24.2911 40.2497 29.4219 40.2497 35.244C40.2497 37.5279 40.6714 39.2522 40.1344 37.763C39.5614 36.1709 39.3799 34.4644 39.6051 32.7874C39.8304 31.1104 40.4558 29.5122 41.4286 28.1278C42.4014 26.7434 43.693 25.6134 45.1944 24.8332C46.6957 24.053 48.3628 23.6455 50.0548 23.6451L50.0569 23.644Z" fill="#FFFBDC"/>
</g>
<path d="M58.7125 34.1838C58.7135 32.7493 58.3589 31.3368 57.6806 30.0728C57.0023 28.8088 56.0212 27.7326 54.8253 26.9405C53.6294 26.1484 52.2558 25.665 50.8273 25.5336C49.3989 25.4022 47.9601 25.6268 46.6398 26.1875C45.3194 26.7481 44.1585 27.6272 43.2609 28.7463C42.3634 29.8653 41.7571 31.1893 41.4964 32.6C41.2357 34.0106 41.3286 35.4639 41.7668 36.8299C42.205 38.1958 42.9749 39.4319 44.0077 40.4275H56.0577C56.8962 39.618 57.5634 38.648 58.0195 37.5754C58.4755 36.5028 58.7112 35.3494 58.7125 34.1838ZM58.403 34.1838C58.402 35.3486 58.1584 36.5004 57.6876 37.5657C57.2167 38.6311 56.5291 39.5866 55.6684 40.3714H44.3969C43.3672 39.4334 42.5878 38.2531 42.1295 36.9377C41.6712 35.6223 41.5484 34.2132 41.7722 32.8384C41.9961 31.4635 42.5595 30.1662 43.4115 29.0641C44.2635 27.962 45.377 27.09 46.6511 26.5272C47.9253 25.9643 49.3197 25.7283 50.7081 25.8406C52.0965 25.9529 53.4349 26.41 54.602 27.1704C55.7691 27.9308 56.728 28.9704 57.3917 30.1951C58.0554 31.4198 58.4031 32.7908 58.403 34.1838Z" fill="#E38F2F"/>
<path d="M53.1666 37.5141C53.0587 37.1626 52.3535 36.6719 52.1238 36.8391C51.7141 37.1356 51.9082 37.6532 51.438 37.8182C51.0605 37.9576 50.6652 38.043 50.2638 38.0716L50.2303 34.5551C51.2892 34.0245 51.9621 33.5447 52.2877 33.0885C52.6542 32.5438 52.8243 31.8906 52.77 31.2363C52.7157 30.5821 52.4403 29.9658 51.9891 29.489C51.5047 28.9815 50.8649 28.6502 50.171 28.5475C50.171 28.3243 50.1602 27.8466 50.1602 27.3549C50.1602 26.9149 49.4917 26.4404 49.2383 26.4404C48.9849 26.4404 49.0841 26.9419 49.0841 27.3624C49.0841 27.6493 49.0916 28.2359 49.0938 28.512C48.174 28.5583 47.6446 28.6834 47.1798 28.9573C46.7927 29.1859 46.2266 29.7521 46.3247 30.1122C46.4067 30.4099 47.058 30.5436 47.1367 30.5436C47.2137 30.5416 47.2885 30.5177 47.3523 30.4746C47.8802 30.132 48.4819 29.9198 49.1078 29.8556L49.1413 33.4854C48.1438 33.9803 47.4731 34.4483 47.0925 34.9153C46.7056 35.3796 46.4982 35.9673 46.508 36.5716C46.5039 36.9172 46.5697 37.26 46.7014 37.5795C46.8332 37.899 47.0282 38.1885 47.2747 38.4307C47.7459 38.8966 48.3907 39.2039 49.1962 39.3441C49.1962 39.5824 48.8889 40.0429 48.7541 40.4224H50.2843C50.2843 40.0677 50.2767 39.6363 50.2735 39.4099C51.2914 39.3678 52.4581 39.0119 52.9121 38.6981C53.2679 38.4631 53.2679 37.8506 53.1666 37.5141ZM49.1865 37.9843C48.4371 37.7794 48.0683 37.3448 48.0619 36.66C48.0565 36.1015 48.4253 35.5817 49.1585 35.1212L49.1865 37.9843ZM50.2142 32.8901L50.185 29.9235C50.4601 29.9994 50.7073 30.1533 50.8967 30.3667C51.1181 30.6231 51.2371 30.9522 51.231 31.2909C51.2477 31.627 51.1579 31.9599 50.9744 32.242C50.7643 32.5042 50.5063 32.7241 50.2142 32.8901Z" fill="#E38F2F"/>
<path d="M52.6091 37.2133C52.5013 36.8607 52.2339 36.7292 52.0031 36.8963C51.6667 37.1649 51.2871 37.3746 50.8806 37.5164C50.504 37.6551 50.1098 37.7404 49.7096 37.7698L49.674 34.2522C50.734 33.7227 51.4068 33.2428 51.7325 32.7867C52.0991 32.2421 52.2693 31.5889 52.2152 30.9347C52.1611 30.2804 51.8859 29.6641 51.4349 29.1871C50.9498 28.6799 50.3098 28.3484 49.6158 28.2446C49.6158 28.0225 49.6061 27.5448 49.6061 27.053C49.6061 26.6131 49.3343 26.4136 49.082 26.4136C48.8297 26.4136 48.5288 26.64 48.5288 27.0606C48.5288 27.3474 48.5375 27.933 48.5407 28.2101C47.6198 28.2565 47.0914 28.3805 46.6256 28.6555C46.2385 28.8841 46.1339 29.5538 46.2331 29.9139C46.314 30.2116 46.5038 30.2428 46.5825 30.2428C46.6595 30.241 46.7344 30.217 46.7982 30.1738C47.3258 29.831 47.9276 29.6188 48.5536 29.5548L48.5892 33.1846C47.5907 33.6796 46.92 34.1476 46.5404 34.6145C46.1332 35.1204 45.9268 35.7587 45.9606 36.4072C45.9944 37.0558 46.2661 37.6691 46.7237 38.13C47.1939 38.5958 47.8409 38.9031 48.6442 39.0433C48.6442 39.3269 48.6582 40.0138 48.6582 40.4279H49.7365C49.7365 40.0635 49.729 39.411 49.7247 39.1134C50.7426 39.0714 51.9082 38.7166 52.3644 38.4017C52.7073 38.1612 52.7137 37.5498 52.6091 37.2133ZM48.6313 37.6824C47.8765 37.4775 47.5131 37.043 47.5066 36.3582C47.5012 35.7996 47.87 35.2799 48.6032 34.8194L48.6313 37.6824ZM49.6589 32.5904L49.6298 29.6239C49.9051 29.6992 50.1524 29.8532 50.3415 30.0671C50.5632 30.3232 50.6819 30.6525 50.6747 30.9912C50.6925 31.3273 50.603 31.6604 50.4191 31.9423C50.2087 32.205 49.9499 32.425 49.6567 32.5904H49.6589Z" fill="#FFDB31"/>
<g style="mix-blend-mode:multiply">
<path d="M71.5618 5.03125C71.5618 5.03125 52.4219 13.6085 47.6461 16.0456C39.7583 20.0711 46.3996 31.9191 53.6652 28.2074C60.9308 24.4956 66.0916 22.9687 66.0916 22.9687C66.0916 22.9687 78.7832 35.5909 92.853 26.7537L71.5618 5.03125Z" fill="#D7CAC8"/>
</g>
<path d="M73.5004 4.04199L49.2127 16.4431C41.3228 20.4708 47.2577 30.5599 54.5234 26.8525L66.5648 20.7059C66.5648 20.7059 80.7229 34.607 94.7915 25.7742L73.5004 4.04199Z" fill="#F8B894"/>
<path d="M120 0H100.881V39.2706H120V0Z" fill="#049157"/>
<path d="M104.929 7.99622C104.929 8.6814 105.133 9.35106 105.514 9.92056C105.895 10.4901 106.436 10.9338 107.069 11.1957C107.702 11.4576 108.399 11.5259 109.071 11.392C109.742 11.2581 110.36 10.9279 110.844 10.4433C111.328 9.95862 111.658 9.34126 111.792 8.66922C111.925 7.99718 111.856 7.30064 111.594 6.66766C111.332 6.03468 110.888 5.49368 110.318 5.11307C109.748 4.73245 109.078 4.5293 108.393 4.5293C107.938 4.52916 107.487 4.61875 107.067 4.79295C106.646 4.96716 106.264 5.22256 105.942 5.54455C105.621 5.86654 105.365 6.24881 105.192 6.66948C105.018 7.09016 104.928 7.541 104.929 7.99622Z" fill="#61B9D9"/>
<path d="M15.3379 119.175V122.264C15.3379 123.019 15.7929 123.72 16.6049 124.35C16.7235 124.447 16.8561 124.539 16.9909 124.628C17.3713 124.88 17.7704 125.102 18.1846 125.292C18.3119 125.352 18.4391 125.4 18.5696 125.463C19.0006 125.646 19.4408 125.807 19.8883 125.946C20.0113 125.989 20.1428 126.026 20.2744 126.066C20.6906 126.194 21.137 126.308 21.5953 126.413C21.7225 126.441 21.8487 126.471 21.9813 126.498C22.4062 126.586 22.8465 126.667 23.3022 126.741L23.6883 126.8C24.1196 126.862 24.5588 126.915 25.006 126.958C25.1332 126.974 25.2604 126.984 25.392 126.993C25.8233 127.036 26.2654 127.065 26.7129 127.086C26.8412 127.093 26.9717 127.1 27.1 127.104C27.5314 127.124 27.9756 127.131 28.4199 127.131H28.4673C28.5752 127.131 28.6916 127.131 28.8027 127.131C29.248 127.131 29.688 127.116 30.1204 127.091C30.2519 127.091 30.3792 127.085 30.5064 127.073C30.955 127.049 31.3956 127.016 31.8284 126.972C31.9589 126.962 32.0872 126.949 32.2144 126.93C32.6662 126.884 33.1062 126.823 33.5354 126.76C33.6669 126.741 33.7941 126.717 33.9225 126.693C34.3743 126.621 34.8142 126.531 35.2391 126.44C35.3706 126.407 35.4979 126.381 35.6251 126.346C36.0845 126.238 36.5287 126.115 36.946 125.984C37.0776 125.945 37.2048 125.903 37.3331 125.861C37.8076 125.698 38.2475 125.523 38.653 125.342C38.7888 125.28 38.9161 125.218 39.039 125.153C39.5046 124.927 39.9457 124.654 40.3556 124.338C40.4907 124.231 40.6202 124.118 40.7438 123.998C41.2959 123.459 41.6 122.878 41.6 122.273V119.183L15.3379 119.175Z" fill="#DE7A00"/>
<g style="mix-blend-mode:multiply">
<g style="mix-blend-mode:multiply">
<path d="M40.3589 120.229V124.335C40.4939 124.228 40.6235 124.115 40.7471 123.995V120.229H40.3589Z" fill="#EDD3CE"/>
</g>
<g style="mix-blend-mode:multiply">
<path d="M38.656 120.097V125.339C38.7919 125.278 38.9191 125.215 39.042 125.15V120.097H38.656Z" fill="#EDD3CE"/>
</g>
<g style="mix-blend-mode:multiply">
<path d="M36.9492 120.097V125.981C37.0808 125.942 37.208 125.9 37.3363 125.858V120.097H36.9492Z" fill="#EDD3CE"/>
</g>
<g style="mix-blend-mode:multiply">
<path d="M35.2422 120.097V126.437C35.3737 126.405 35.501 126.379 35.6282 126.343V120.097H35.2422Z" fill="#EDD3CE"/>
</g>
<g style="mix-blend-mode:multiply">
<path d="M33.5354 120.097V126.757C33.667 126.738 33.7942 126.714 33.9225 126.69V120.097H33.5354Z" fill="#EDD3CE"/>
</g>
<g style="mix-blend-mode:multiply">
<path d="M31.8315 120.097V126.97C31.962 126.959 32.0903 126.946 32.2176 126.928V120.097H31.8315Z" fill="#EDD3CE"/>
</g>
<g style="mix-blend-mode:multiply">
<path d="M30.1238 120.097V127.088C30.2553 127.088 30.3826 127.082 30.5098 127.07V120.097H30.1238Z" fill="#EDD3CE"/>
</g>
<g style="mix-blend-mode:multiply">
<path d="M28.4199 120.097V127.131H28.4674C28.5752 127.131 28.6917 127.131 28.8027 127.131V120.1L28.4199 120.097Z" fill="#EDD3CE"/>
</g>
<g style="mix-blend-mode:multiply">
<path d="M26.7129 120.097V127.086C26.8412 127.093 26.9717 127.1 27.1 127.104V120.095L26.7129 120.097Z" fill="#EDD3CE"/>
</g>
<g style="mix-blend-mode:multiply">
<path d="M25.0061 120.097V126.959C25.1333 126.974 25.2606 126.985 25.3921 126.993V120.092L25.0061 120.097Z" fill="#EDD3CE"/>
</g>
<g style="mix-blend-mode:multiply">
<path d="M23.3022 120.097V126.741L23.6883 126.8V120.097H23.3022Z" fill="#EDD3CE"/>
</g>
<g style="mix-blend-mode:multiply">
<path d="M21.5952 120.097V126.413C21.7225 126.441 21.8486 126.471 21.9812 126.498V120.097H21.5952Z" fill="#EDD3CE"/>
</g>
<g style="mix-blend-mode:multiply">
<path d="M19.8884 120.097V125.946C20.0114 125.989 20.1429 126.026 20.2745 126.066V120.097H19.8884Z" fill="#EDD3CE"/>
</g>
<g style="mix-blend-mode:multiply">
<path d="M18.1846 120.097V125.293C18.3118 125.352 18.439 125.401 18.5695 125.463V120.097H18.1846Z" fill="#EDD3CE"/>
</g>
<g style="mix-blend-mode:multiply">
<path d="M16.606 120.097V124.35C16.7246 124.447 16.8572 124.539 16.992 124.628V120.099L16.606 120.097Z" fill="#EDD3CE"/>
</g>
</g>
<path d="M28.4671 114.731C21.2145 114.731 15.3345 116.721 15.3345 119.173C15.3345 121.625 21.2145 123.616 28.4671 123.616C35.7198 123.616 41.6009 121.626 41.6009 119.173C41.6009 116.719 35.722 114.731 28.4671 114.731Z" fill="#FEC833"/>
<g style="mix-blend-mode:multiply">
<path d="M16.8466 118.89C16.8466 121.343 22.7277 123.333 29.9804 123.333C31.8464 123.339 33.7101 123.198 35.5541 122.912C33.5054 123.357 31.0792 123.616 28.4686 123.616C21.2159 123.616 15.3359 121.626 15.3359 119.173C15.3359 117.393 18.4307 115.86 22.897 115.15C19.2599 115.94 16.8466 117.319 16.8466 118.89Z" fill="#EDD3CE"/>
</g>
<g style="mix-blend-mode:soft-light">
<path d="M41.5988 119.182C41.5988 119.885 41.1179 120.55 40.2585 121.14C39.2945 121.802 40.7976 120.517 40.7976 119.298C40.7976 116.846 34.4033 115.052 27.1495 115.052C24.3049 115.052 22.1559 115.23 24.0127 115.004C25.4908 114.825 26.9784 114.736 28.4672 114.737C35.7199 114.737 41.5988 116.73 41.5988 119.182Z" fill="#FFFBDC"/>
</g>
<path d="M28.4672 115.58C22.6013 115.58 17.8459 117.188 17.8459 119.173C17.8459 121.157 22.6013 122.767 28.4672 122.767C34.3332 122.767 39.0907 121.157 39.0907 119.173C39.0907 117.188 34.3354 115.58 28.4672 115.58Z" stroke="#E38F2F" stroke-width="2.08" stroke-miterlimit="10"/>
<path d="M25.4478 117.523C24.5291 117.523 23.7991 117.802 23.1834 118.012C22.7499 118.143 22.3026 118.222 21.8506 118.247L19.5786 118.327V119.051C19.5786 119.166 19.8212 119.287 20.2256 119.287C20.6569 119.287 21.2295 119.287 21.6274 119.287C21.6813 119.718 22.4534 120.207 22.8448 120.399C23.1456 120.545 23.5565 120.572 23.977 120.528C24.4137 120.483 24.8397 120.393 24.9475 120.187C25.0553 119.981 24.7254 119.531 24.7254 119.531C24.7254 119.531 23.6632 119.435 23.6352 119.282L28.0185 119.265C28.6795 119.713 29.2769 119.997 29.8451 120.128C30.5222 120.278 31.2146 120.348 31.9079 120.336C32.7275 120.35 33.5444 120.237 34.3298 120.003C34.9617 119.798 35.3553 119.541 35.503 119.237C35.7823 119.237 36.6633 119.25 37.2747 119.25C37.8224 119.25 37.7869 118.295 37.7869 118.295C37.7869 118.295 37.445 118.295 36.9242 118.295C36.5673 118.295 35.9128 118.295 35.5688 118.295C35.5106 117.907 35.337 118.167 34.9951 117.971C34.7105 117.809 33.0175 117.235 33.0175 117.235V117.953C33.0175 117.982 33.0466 118.012 33.1038 118.044C33.548 118.283 33.4434 118.387 33.4434 118.387H29.6532C29.6532 118.387 28.1436 118.095 27.5581 117.936C26.9574 117.771 26.2091 117.521 25.4478 117.523Z" fill="#E38F2F"/>
<path d="M25.4934 116.973C24.5758 116.973 23.7961 117.081 23.1772 117.296C22.596 117.495 22.2143 117.767 22.0385 118.105C21.6611 118.105 20.7165 118.105 20.2054 118.105C19.8312 118.105 19.5681 118.196 19.5681 118.321C19.5681 118.446 19.8107 118.558 20.2151 118.558C20.6464 118.558 21.55 118.558 21.9404 118.552C21.9943 118.983 22.4364 119.472 22.8278 119.663C23.1287 119.81 23.89 119.814 24.3094 119.771C24.7494 119.724 24.9133 119.612 24.7041 119.516C24.3342 119.343 24.1369 119.241 23.9309 119.043C23.777 118.915 23.6663 118.742 23.6139 118.548L27.9972 118.533C28.6582 118.981 29.2556 119.263 29.8239 119.396C30.5008 119.547 31.1932 119.617 31.8867 119.604C32.7062 119.617 33.523 119.505 34.3085 119.271C34.9404 119.067 35.334 118.809 35.4817 118.505C35.7589 118.505 36.3541 118.505 36.9676 118.505C37.5154 118.505 37.7656 118.391 37.7656 118.289C37.7656 118.188 37.482 118.056 36.9579 118.056H35.527C35.5112 117.885 35.4517 117.721 35.3543 117.579C35.2569 117.438 35.1247 117.324 34.9706 117.249C34.6859 117.086 33.8524 117.042 33.4028 117.083C33.0318 117.117 32.993 117.197 32.993 117.231C32.993 117.264 33.0221 117.291 33.0793 117.322C33.5235 117.561 33.7823 117.81 33.8492 118.061L29.3278 118.076C28.7861 117.691 28.1841 117.4 27.5465 117.213C26.8759 117.042 26.1854 116.961 25.4934 116.973ZM27.3017 118.087L23.7336 118.1C23.9892 117.783 24.5305 117.627 25.3834 117.625C26.0515 117.615 26.7112 117.774 27.3017 118.087ZM33.2216 118.82C32.8462 118.921 32.4585 118.968 32.07 118.96C31.6718 118.97 31.2737 118.934 30.8838 118.852C30.6013 118.78 30.3294 118.672 30.0751 118.529L33.7726 118.516C33.6206 118.666 33.4299 118.772 33.2216 118.82Z" fill="#FFDB31"/>
<path d="M17.1836 114.324V117.414C17.1836 118.169 17.6408 118.871 18.4517 119.5C18.5703 119.597 18.7029 119.689 18.8377 119.779C19.2179 120.03 19.6166 120.252 20.0303 120.443C20.1586 120.501 20.2859 120.551 20.4174 120.612C20.8474 120.797 21.2869 120.958 21.734 121.095C21.858 121.138 21.9896 121.176 22.1211 121.215C22.5384 121.343 22.9838 121.459 23.4421 121.563C23.5693 121.59 23.6955 121.621 23.8281 121.647C24.253 121.737 24.6933 121.818 25.149 121.891C25.2763 121.91 25.4035 121.931 25.5351 121.949C25.9664 122.011 26.4052 122.065 26.8527 122.108C26.98 122.123 27.1072 122.135 27.2388 122.142C27.6701 122.185 28.1111 122.217 28.5597 122.235C28.6869 122.243 28.8185 122.25 28.9468 122.254C29.3781 122.274 29.8224 122.28 30.2667 122.28H30.3184C30.4262 122.28 30.5416 122.28 30.6538 122.28C31.098 122.28 31.538 122.265 31.9704 122.243C32.1019 122.243 32.2292 122.235 32.3575 122.223C32.8053 122.199 33.2453 122.166 33.6773 122.122C33.8089 122.111 33.9372 122.099 34.0644 122.08C34.5162 122.034 34.9573 121.972 35.3854 121.91C35.5169 121.89 35.6442 121.867 35.7714 121.845C36.2232 121.771 36.6642 121.682 37.0891 121.59C37.2206 121.559 37.3479 121.531 37.474 121.496C37.9355 121.389 38.3798 121.266 38.796 121.133C38.9287 121.095 39.0537 121.053 39.1821 121.009C39.6565 120.847 40.0975 120.674 40.503 120.492C40.6389 120.43 40.7661 120.368 40.889 120.304C41.3548 120.077 41.7963 119.803 42.2067 119.487C42.3413 119.381 42.4701 119.268 42.5927 119.149C43.1459 118.61 43.45 118.028 43.45 117.417V114.327L17.1836 114.324Z" fill="#DE7A00"/>
<g style="mix-blend-mode:multiply">
<g style="mix-blend-mode:multiply">
<path d="M42.2073 115.378V119.482C42.3419 119.376 42.4707 119.263 42.5933 119.144V115.376L42.2073 115.378Z" fill="#EDD3CE"/>
</g>
<g style="mix-blend-mode:multiply">
<path d="M40.5034 115.248V120.489C40.6393 120.427 40.7665 120.365 40.8895 120.301V115.248H40.5034Z" fill="#EDD3CE"/>
</g>
<g style="mix-blend-mode:multiply">
<path d="M38.7966 115.248V121.13C38.9293 121.092 39.0543 121.05 39.1827 121.006V115.248H38.7966Z" fill="#EDD3CE"/>
</g>
<g style="mix-blend-mode:multiply">
<path d="M37.094 115.248V121.587C37.2256 121.556 37.3528 121.528 37.479 121.493V115.248H37.094Z" fill="#EDD3CE"/>
</g>
<g style="mix-blend-mode:multiply">
<path d="M35.3857 115.248V121.908C35.5173 121.887 35.6445 121.864 35.7718 121.842V115.248H35.3857Z" fill="#EDD3CE"/>
</g>
<g style="mix-blend-mode:multiply">
<path d="M33.6777 115.248V122.119C33.8093 122.108 33.9376 122.096 34.0649 122.077V115.248H33.6777Z" fill="#EDD3CE"/>
</g>
<g style="mix-blend-mode:multiply">
<path d="M31.9707 115.248V122.24C32.1023 122.24 32.2295 122.232 32.3578 122.22V115.248H31.9707Z" fill="#EDD3CE"/>
</g>
<g style="mix-blend-mode:multiply">
<path d="M30.2668 115.248V122.286H30.3186C30.4264 122.286 30.5418 122.286 30.654 122.286V115.256L30.2668 115.248Z" fill="#EDD3CE"/>
</g>
<g style="mix-blend-mode:multiply">
<path d="M28.5601 115.247V122.235C28.6873 122.243 28.8189 122.25 28.9472 122.254V115.245L28.5601 115.247Z" fill="#EDD3CE"/>
</g>
<g style="mix-blend-mode:multiply">
<path d="M26.8499 115.247V122.108C26.9771 122.123 27.1043 122.135 27.2359 122.142V115.247H26.8499Z" fill="#EDD3CE"/>
</g>
<g style="mix-blend-mode:multiply">
<path d="M25.1497 115.248V121.891C25.2769 121.911 25.4041 121.931 25.5357 121.95V115.248H25.1497Z" fill="#EDD3CE"/>
</g>
<g style="mix-blend-mode:multiply">
<path d="M23.4426 115.247V121.563C23.5699 121.59 23.696 121.621 23.8287 121.647V115.247H23.4426Z" fill="#EDD3CE"/>
</g>
<g style="mix-blend-mode:multiply">
<path d="M21.7346 115.247V121.099C21.8586 121.142 21.9902 121.18 22.1217 121.219V115.251L21.7346 115.247Z" fill="#EDD3CE"/>
</g>
<g style="mix-blend-mode:multiply">
<path d="M20.0308 115.247V120.443C20.1591 120.501 20.2863 120.55 20.4179 120.612V115.247H20.0308Z" fill="#EDD3CE"/>
</g>
<g style="mix-blend-mode:multiply">
<path d="M18.4521 115.248V119.501C18.5708 119.598 18.7034 119.689 18.8382 119.779V115.25L18.4521 115.248Z" fill="#EDD3CE"/>
</g>
</g>
<path d="M30.3163 109.885C23.0625 109.885 17.1836 111.874 17.1836 114.328C17.1836 116.781 23.0625 118.77 30.3163 118.77C37.57 118.77 43.4478 116.781 43.4478 114.328C43.4478 111.874 37.5689 109.885 30.3163 109.885Z" fill="#FEC833"/>
<g style="mix-blend-mode:multiply">
<path d="M18.6943 114.04C18.6943 116.494 24.5743 118.483 31.827 118.483C33.6929 118.488 35.5565 118.347 37.4007 118.063C35.3519 118.508 32.9268 118.766 30.3162 118.766C23.0625 118.766 17.1836 116.777 17.1836 114.324C17.1836 112.544 20.2772 111.01 24.7425 110.301C21.1065 111.091 18.6943 112.473 18.6943 114.04Z" fill="#EDD3CE"/>
</g>
<g style="mix-blend-mode:soft-light">
<path d="M43.4469 114.334C43.4469 115.036 42.9649 115.699 42.1055 116.289C41.1437 116.953 42.6447 115.666 42.6447 114.448C42.6447 111.995 36.2503 110.202 28.9977 110.202C26.1509 110.202 24.003 110.38 25.8598 110.153C27.3384 109.976 28.8262 109.889 30.3153 109.891C37.5669 109.891 43.4469 111.88 43.4469 114.334Z" fill="#FFFBDC"/>
</g>
<path d="M30.3165 110.731C24.4483 110.731 19.6941 112.338 19.6941 114.323C19.6941 116.309 24.4483 117.915 30.3165 117.915C36.1846 117.915 40.9388 116.309 40.9388 114.323C40.9388 112.338 36.1824 110.731 30.3165 110.731Z" stroke="#E38F2F" stroke-width="2.08" stroke-miterlimit="10"/>
<path d="M27.2918 112.674C26.3742 112.674 25.642 112.951 25.0274 113.163C24.5943 113.294 24.1473 113.372 23.6957 113.397L21.4226 113.478V114.199C21.4226 114.315 21.6652 114.436 22.0696 114.436H23.4714C23.5253 114.867 24.2984 115.355 24.6909 115.545C24.9907 115.692 25.4016 115.719 25.821 115.676C26.261 115.63 26.6837 115.541 26.7915 115.336C26.8993 115.131 26.5704 114.678 26.5704 114.678C26.5704 114.678 25.5083 114.581 25.4813 114.427L29.8636 114.414C30.5246 114.86 31.122 115.144 31.6913 115.277C32.3679 115.428 33.06 115.497 33.753 115.484C34.5726 115.498 35.3894 115.386 36.1749 115.152C36.8068 114.947 37.2014 114.688 37.3481 114.385C37.6263 114.385 38.5073 114.398 39.1208 114.398C39.6675 114.398 39.6309 113.442 39.6309 113.442C39.6309 113.442 39.2901 113.449 38.7682 113.449C38.4113 113.449 37.7568 113.449 37.4128 113.449C37.3546 113.06 37.182 113.322 36.8391 113.126C36.5545 112.963 34.8615 112.39 34.8615 112.39V113.107C34.8615 113.136 34.8906 113.168 34.9478 113.2C35.392 113.437 35.2874 113.541 35.2874 113.541H31.5134C31.5134 113.541 30.0038 113.251 29.4182 113.09C28.7993 112.921 28.0563 112.671 27.2918 112.674Z" fill="#E38F2F"/>
<path d="M27.3404 112.123C26.4228 112.123 25.6421 112.231 25.0242 112.446C24.443 112.645 24.0602 112.917 23.8855 113.256C23.5081 113.256 22.5635 113.256 22.0578 113.256C21.6825 113.256 21.4194 113.346 21.4194 113.472C21.4194 113.598 21.6621 113.708 22.0664 113.708H23.7917C23.8445 114.139 24.2866 114.628 24.6791 114.819C24.9789 114.966 25.7391 114.969 26.1597 114.926C26.5985 114.881 26.7624 114.769 26.5543 114.672C26.1855 114.499 25.9882 114.396 25.7812 114.199C25.6267 114.071 25.5162 113.898 25.4652 113.704L29.8475 113.69C30.5085 114.136 31.1058 114.419 31.6752 114.552C32.3515 114.702 33.0432 114.772 33.7358 114.759C34.5557 114.773 35.3729 114.661 36.1588 114.427C36.7896 114.223 37.1853 113.965 37.332 113.662C37.6102 113.662 38.2043 113.662 38.8168 113.662C39.3657 113.662 39.6147 113.547 39.6147 113.446C39.6147 113.344 39.3322 113.214 38.8082 113.214C38.4512 113.214 37.7212 113.214 37.3773 113.214C37.3618 113.043 37.3023 112.879 37.2046 112.737C37.1069 112.596 36.9743 112.482 36.8198 112.407C36.5362 112.243 35.7027 112.2 35.2541 112.241C34.8831 112.276 34.8432 112.356 34.8432 112.389C34.8432 112.422 34.8724 112.448 34.9295 112.481C35.3738 112.719 35.6315 112.967 35.7005 113.218L31.1792 113.235C30.6374 112.849 30.0349 112.558 29.3967 112.372C28.7254 112.198 28.0339 112.114 27.3404 112.123ZM29.1476 113.238L25.5817 113.249C25.8362 112.933 26.3786 112.778 27.2304 112.775C27.8982 112.766 28.5576 112.925 29.1476 113.238ZM35.0686 113.97C34.6931 114.07 34.3055 114.117 33.917 114.11C33.5187 114.121 33.1207 114.084 32.7308 114.002C32.4489 113.929 32.1775 113.821 31.9232 113.679L35.6196 113.666C35.4677 113.816 35.2769 113.922 35.0686 113.97Z" fill="#FFDB31"/>
<path d="M13.7742 109.911V113C13.7742 113.755 14.2292 114.458 15.0401 115.087C15.1609 115.184 15.2924 115.277 15.4272 115.366C15.8081 115.616 16.2067 115.838 16.6198 116.03C16.7481 116.087 16.8765 116.138 17.0069 116.199C17.4369 116.383 17.8764 116.544 18.3235 116.682C18.4486 116.726 18.5791 116.764 18.7096 116.802C19.128 116.93 19.5722 117.046 20.0305 117.15C20.1588 117.177 20.2861 117.208 20.4176 117.235C20.8425 117.324 21.2828 117.405 21.7385 117.479L22.1246 117.537C22.5559 117.598 22.9937 117.652 23.4422 117.694C23.5695 117.71 23.6956 117.722 23.8283 117.729C24.2596 117.773 24.7017 117.803 25.1492 117.823C25.2764 117.83 25.408 117.838 25.5352 117.841C25.9723 117.86 26.4126 117.87 26.8562 117.869H26.9058C27.0201 117.869 27.1311 117.869 27.2422 117.869C27.6875 117.869 28.1275 117.854 28.5599 117.829C28.6914 117.829 28.8187 117.823 28.947 117.811C29.3945 117.788 29.8344 117.752 30.2668 117.711C30.3984 117.699 30.5267 117.688 30.6539 117.668C31.1058 117.622 31.5468 117.561 31.9749 117.498C32.1064 117.479 32.2337 117.456 32.3598 117.432C32.8127 117.359 33.2527 117.269 33.6775 117.178C33.8091 117.146 33.9374 117.119 34.0646 117.085C34.5251 116.977 34.9682 116.854 35.3855 116.722C35.5171 116.683 35.6443 116.641 35.7716 116.599C36.2468 116.435 36.6871 116.263 37.0925 116.08C37.2273 116.017 37.3556 115.956 37.4785 115.891C37.9443 115.664 38.3858 115.391 38.7962 115.075C38.9308 114.969 39.0596 114.857 39.1823 114.737C39.7343 114.198 40.0395 113.615 40.0395 113.004V109.915L13.7742 109.911Z" fill="#DE7A00"/>
<g style="mix-blend-mode:multiply">
<g style="mix-blend-mode:multiply">
<path d="M38.7971 110.963V115.068C38.9317 114.963 39.0605 114.85 39.1831 114.731V110.963H38.7971Z" fill="#EDD3CE"/>
</g>
<g style="mix-blend-mode:multiply">
<path d="M37.094 110.834V116.076C37.2288 116.013 37.3571 115.952 37.48 115.887V110.834H37.094Z" fill="#EDD3CE"/>
</g>
<g style="mix-blend-mode:multiply">
<path d="M35.3862 110.834V116.718C35.5178 116.679 35.645 116.637 35.7722 116.595V110.834H35.3862Z" fill="#EDD3CE"/>
</g>
<g style="mix-blend-mode:multiply">
<path d="M33.6782 110.834V117.174C33.8098 117.142 33.9381 117.115 34.0653 117.081V110.834H33.6782Z" fill="#EDD3CE"/>
</g>
<g style="mix-blend-mode:multiply">
<path d="M31.9756 110.834V117.494C32.1071 117.475 32.2344 117.452 32.3605 117.428V110.834H31.9756Z" fill="#EDD3CE"/>
</g>
<g style="mix-blend-mode:multiply">
<path d="M30.2676 110.834V117.707C30.3991 117.695 30.5275 117.684 30.6547 117.664V110.834H30.2676Z" fill="#EDD3CE"/>
</g>
<g style="mix-blend-mode:multiply">
<path d="M28.5605 110.834V117.825C28.6921 117.825 28.8193 117.819 28.9477 117.807V110.834H28.5605Z" fill="#EDD3CE"/>
</g>
<g style="mix-blend-mode:multiply">
<path d="M26.8567 110.834V117.865H26.9063C27.0206 117.865 27.1317 117.865 27.2427 117.865V110.834H26.8567Z" fill="#EDD3CE"/>
</g>
<g style="mix-blend-mode:multiply">
<path d="M25.1497 110.834V117.823C25.2769 117.83 25.4085 117.838 25.5357 117.841V110.832L25.1497 110.834Z" fill="#EDD3CE"/>
</g>
<g style="mix-blend-mode:multiply">
<path d="M23.4429 110.834V117.695C23.5701 117.711 23.6963 117.723 23.8289 117.729V110.834H23.4429Z" fill="#EDD3CE"/>
</g>
<g style="mix-blend-mode:multiply">
<path d="M21.7395 110.834V117.479L22.1255 117.537V110.834H21.7395Z" fill="#EDD3CE"/>
</g>
<g style="mix-blend-mode:multiply">
<path d="M20.0312 110.834V117.15C20.1596 117.177 20.2868 117.208 20.4184 117.235V110.834H20.0312Z" fill="#EDD3CE"/>
</g>
<g style="mix-blend-mode:multiply">
<path d="M18.3245 110.834V116.679C18.4495 116.723 18.58 116.761 18.7105 116.799V110.834H18.3245Z" fill="#EDD3CE"/>
</g>
<g style="mix-blend-mode:multiply">
<path d="M16.6206 110.834V116.032C16.7489 116.089 16.8772 116.14 17.0077 116.2V110.834H16.6206Z" fill="#EDD3CE"/>
</g>
<g style="mix-blend-mode:multiply">
<path d="M15.0408 110.834V115.087C15.1615 115.184 15.2931 115.277 15.4279 115.366V110.837L15.0408 110.834Z" fill="#EDD3CE"/>
</g>
</g>
<path d="M26.9059 105.469C19.6521 105.469 13.7732 107.456 13.7732 109.909C13.7732 112.363 19.6521 114.352 26.9059 114.352C34.1596 114.352 40.0385 112.364 40.0385 109.909C40.0385 107.455 34.1585 105.469 26.9059 105.469Z" fill="#FEC833"/>
<g style="mix-blend-mode:multiply">
<path d="M15.285 109.627C15.285 112.082 21.1639 114.069 28.4176 114.069C30.2832 114.074 32.1464 113.934 33.9903 113.651C31.9415 114.094 29.5143 114.353 26.9059 114.353C19.6521 114.353 13.7732 112.364 13.7732 109.91C13.7732 108.131 16.8658 106.596 21.3321 105.888C17.6961 106.678 15.285 108.057 15.285 109.627Z" fill="#EDD3CE"/>
</g>
<g style="mix-blend-mode:soft-light">
<path d="M40.0363 109.92C40.0363 110.622 39.5543 111.286 38.6949 111.877C37.732 112.54 39.2341 111.254 39.2341 110.036C39.2341 107.583 32.8397 105.789 25.586 105.789C22.7403 105.789 20.5934 105.967 22.4492 105.741C23.9274 105.564 25.4149 105.476 26.9037 105.478C34.1563 105.478 40.0363 107.466 40.0363 109.92Z" fill="#FFFBDC"/>
</g>
<path d="M26.9058 106.318C21.0388 106.318 16.2834 107.927 16.2834 109.91C16.2834 111.893 21.0388 113.503 26.9058 113.503C32.7729 113.503 37.5271 111.895 37.5271 109.91C37.5271 107.925 32.7718 106.318 26.9058 106.318Z" stroke="#E38F2F" stroke-width="2.08" stroke-miterlimit="10"/>
<path d="M23.8799 108.26C22.9644 108.26 22.2322 108.538 21.6154 108.75C21.1825 108.88 20.736 108.959 20.2848 108.984L18.0117 109.064V109.777C18.0117 109.894 18.2554 110.014 18.6587 110.014H20.0605C20.1133 110.446 20.8865 110.934 21.279 111.125C21.5788 111.272 21.9896 111.299 22.409 111.255C22.849 111.209 23.2717 111.12 23.3795 110.916C23.4874 110.712 23.1585 110.257 23.1585 110.257C23.1585 110.257 22.0953 110.161 22.0694 110.007L26.4516 109.993C27.1126 110.438 27.71 110.723 28.2783 110.855C28.9547 111.007 29.6469 111.077 30.34 111.065C31.1599 111.078 31.9771 110.966 32.7629 110.731C33.3948 110.526 33.7884 110.27 33.9372 109.965C34.2143 109.965 35.0953 109.979 35.7078 109.979C36.2566 109.979 36.22 109.022 36.22 109.022C36.22 109.022 35.8781 109.03 35.3573 109.03C35.0004 109.03 34.3459 109.03 34.0019 109.03C33.9426 108.64 33.7711 108.901 33.4282 108.706C33.1436 108.543 31.4496 107.97 31.4496 107.97C31.4496 107.97 31.4496 108.656 31.4496 108.688C31.4496 108.72 31.4787 108.748 31.5358 108.78C31.9801 109.018 31.8755 109.121 31.8755 109.121H28.1014C28.1014 109.121 26.5918 108.831 26.0073 108.671C25.3884 108.507 24.6465 108.257 23.8799 108.26Z" fill="#E38F2F"/>
<path d="M23.9295 107.709C23.013 107.709 22.2323 107.816 21.6122 108.032C21.031 108.229 20.6493 108.502 20.4746 108.842C20.0972 108.842 19.1526 108.842 18.6469 108.842C18.2717 108.842 18.0085 108.931 18.0085 109.058C18.0085 109.184 18.2512 109.295 18.6555 109.295C19.0868 109.295 19.9905 109.295 20.3873 109.289C20.439 109.721 20.8811 110.21 21.2736 110.401C21.5734 110.548 22.3336 110.551 22.7542 110.509C23.193 110.463 23.3569 110.351 23.1488 110.254C22.78 110.081 22.5827 109.979 22.3746 109.78C22.2205 109.653 22.1103 109.48 22.0597 109.286L26.442 109.271C27.103 109.718 27.7003 110 28.2686 110.134C28.9451 110.285 29.6373 110.355 30.3303 110.342C31.1503 110.356 31.9674 110.243 32.7533 110.009C33.3841 109.805 33.7787 109.547 33.9276 109.243C34.2047 109.243 34.7999 109.243 35.4113 109.243C35.9602 109.243 36.2103 109.128 36.2103 109.022C36.2103 108.916 35.9267 108.789 35.4027 108.789C35.0468 108.789 34.3147 108.789 33.9718 108.789C33.9561 108.618 33.8967 108.454 33.7993 108.312C33.7018 108.171 33.5696 108.057 33.4154 107.981C33.1307 107.817 32.2972 107.774 31.8486 107.816C31.4776 107.85 31.4367 107.931 31.4367 107.963C31.4367 107.995 31.4669 108.023 31.524 108.055C31.9683 108.294 32.2271 108.542 32.295 108.794L27.7737 108.808C27.2319 108.423 26.6294 108.132 25.9912 107.946C25.3177 107.775 24.6243 107.695 23.9295 107.709ZM25.7368 108.825L22.1708 108.837C22.4264 108.519 22.9677 108.364 23.8195 108.362C24.4874 108.352 25.147 108.511 25.7368 108.825ZM31.6577 109.556C31.2825 109.657 30.8947 109.705 30.5061 109.697C30.1079 109.708 29.7098 109.671 29.32 109.589C29.0376 109.518 28.766 109.409 28.5123 109.266L32.2087 109.253C32.0572 109.405 31.8664 109.511 31.6577 109.561V109.556Z" fill="#FFDB31"/>
<path d="M16.9917 105.952V109.042C16.9917 109.792 17.4467 110.498 18.2587 111.128C18.3784 111.224 18.51 111.318 18.6447 111.406C19.025 111.657 19.4237 111.878 19.8373 112.069C19.9657 112.129 20.0929 112.177 20.2245 112.241C20.6548 112.424 21.0943 112.585 21.5411 112.724C21.664 112.765 21.7966 112.804 21.9282 112.843C22.3455 112.971 22.7908 113.085 23.248 113.191C23.3763 113.217 23.5036 113.248 23.6351 113.275C24.06 113.364 24.4978 113.445 24.955 113.519L25.3421 113.577C25.7734 113.638 26.2112 113.692 26.6587 113.735C26.787 113.75 26.9153 113.762 27.0458 113.77C27.4771 113.813 27.9174 113.844 28.3667 113.863C28.495 113.87 28.6255 113.877 28.7528 113.882C29.1895 113.901 29.6294 113.909 30.0737 113.909H30.1244C30.2322 113.909 30.3476 113.909 30.4597 113.909C30.904 113.909 31.345 113.894 31.7774 113.87C31.909 113.87 32.0362 113.863 32.1645 113.851C32.6109 113.828 33.053 113.793 33.4844 113.751C33.617 113.74 33.7432 113.728 33.8715 113.708C34.3233 113.662 34.7632 113.6 35.1924 113.538C35.3229 113.52 35.4512 113.496 35.5795 113.473C36.0302 113.399 36.4713 113.31 36.8961 113.218C37.0266 113.186 37.1538 113.159 37.2822 113.125C37.7415 113.017 38.1868 112.894 38.6031 112.763C38.7335 112.724 38.8619 112.681 38.9891 112.639C39.4636 112.476 39.9046 112.302 40.31 112.121C40.4459 112.059 40.5731 111.997 40.6961 111.932C41.1618 111.706 41.6033 111.432 42.0138 111.116C42.1481 111.01 42.2769 110.897 42.3998 110.777C42.953 110.238 43.2624 109.657 43.2624 109.052V105.952H16.9917Z" fill="#DE7A00"/>
<g style="mix-blend-mode:multiply">
<g style="mix-blend-mode:multiply">
<path d="M42.0142 107.005V111.112C42.1485 111.005 42.2773 110.892 42.4002 110.773V107.005H42.0142Z" fill="#EDD3CE"/>
</g>
<g style="mix-blend-mode:multiply">
<path d="M40.3103 106.875V112.117C40.4462 112.055 40.5734 111.993 40.6963 111.928V106.875H40.3103Z" fill="#EDD3CE"/>
</g>
<g style="mix-blend-mode:multiply">
<path d="M38.6035 106.875V112.759C38.734 112.72 38.8623 112.677 38.9895 112.635V106.875H38.6035Z" fill="#EDD3CE"/>
</g>
<g style="mix-blend-mode:multiply">
<path d="M36.8965 106.875V113.214C37.027 113.182 37.1542 113.155 37.2825 113.121V106.875H36.8965Z" fill="#EDD3CE"/>
</g>
<g style="mix-blend-mode:multiply">
<path d="M35.1926 106.875V113.534C35.3231 113.516 35.4514 113.492 35.5797 113.469V106.875H35.1926Z" fill="#EDD3CE"/>
</g>
<g style="mix-blend-mode:multiply">
<path d="M33.4846 106.875V113.747C33.6173 113.736 33.7434 113.724 33.8717 113.704V106.875H33.4846Z" fill="#EDD3CE"/>
</g>
<g style="mix-blend-mode:multiply">
<path d="M31.7776 106.875V113.866C31.9091 113.866 32.0364 113.858 32.1647 113.847V106.875H31.7776Z" fill="#EDD3CE"/>
</g>
<g style="mix-blend-mode:multiply">
<path d="M30.0737 106.875V113.909H30.1244C30.2322 113.909 30.3476 113.909 30.4598 113.909V106.875H30.0737Z" fill="#EDD3CE"/>
</g>
<g style="mix-blend-mode:multiply">
<path d="M28.3669 106.875V113.863C28.4953 113.87 28.6257 113.877 28.753 113.882V106.873L28.3669 106.875Z" fill="#EDD3CE"/>
</g>
<g style="mix-blend-mode:multiply">
<path d="M26.6592 106.875V113.736C26.7875 113.751 26.9158 113.762 27.0463 113.77V106.875H26.6592Z" fill="#EDD3CE"/>
</g>
<g style="mix-blend-mode:multiply">
<path d="M24.9553 106.875V113.519L25.3424 113.577V106.875H24.9553Z" fill="#EDD3CE"/>
</g>
<g style="mix-blend-mode:multiply">
<path d="M23.2483 106.875V113.191C23.3766 113.217 23.5038 113.248 23.6354 113.275V106.875H23.2483Z" fill="#EDD3CE"/>
</g>
<g style="mix-blend-mode:multiply">
<path d="M21.5415 106.875V112.724C21.6644 112.765 21.7971 112.804 21.9286 112.844V106.875H21.5415Z" fill="#EDD3CE"/>
</g>
<g style="mix-blend-mode:multiply">
<path d="M19.8408 106.875V112.069C19.9691 112.129 20.0964 112.177 20.2279 112.241V106.875H19.8408Z" fill="#EDD3CE"/>
</g>
<g style="mix-blend-mode:multiply">
<path d="M18.259 106.875V111.128C18.3787 111.224 18.5103 111.318 18.6451 111.406V106.877L18.259 106.875Z" fill="#EDD3CE"/>
</g>
</g>
<path d="M30.1224 101.508C22.8697 101.508 16.9897 103.498 16.9897 105.951C16.9897 108.404 22.8697 110.393 30.1224 110.393C37.3751 110.393 43.2562 108.404 43.2562 105.951C43.2562 103.498 37.3762 101.508 30.1224 101.508Z" fill="#FEC833"/>
<g style="mix-blend-mode:multiply">
<path d="M18.5015 105.669C18.5015 108.122 24.3815 110.11 31.6342 110.11C33.5002 110.116 35.3638 109.975 37.2079 109.69C35.1592 110.134 32.733 110.393 30.1224 110.393C22.8697 110.393 16.9897 108.404 16.9897 105.951C16.9897 104.172 20.0834 102.637 24.5497 101.928C20.9126 102.718 18.5015 104.097 18.5015 105.669Z" fill="#EDD3CE"/>
</g>
<g style="mix-blend-mode:soft-light">
<path d="M43.2539 105.961C43.2539 106.664 42.7709 107.327 41.9125 107.918C40.9496 108.58 42.4517 107.295 42.4517 106.076C42.4517 103.624 36.0584 101.83 28.8057 101.83C25.959 101.83 23.8121 102.008 25.6668 101.781C27.1457 101.604 28.6339 101.516 30.1234 101.518C37.3739 101.518 43.2539 103.508 43.2539 105.961Z" fill="#FFFBDC"/>
</g>
<path d="M30.1224 102.358C24.2564 102.358 19.5 103.967 19.5 105.951C19.5 107.935 24.2564 109.544 30.1224 109.544C35.9884 109.544 40.7448 107.935 40.7448 105.951C40.7448 103.967 35.9894 102.358 30.1224 102.358Z" stroke="#E38F2F" stroke-width="2.08" stroke-miterlimit="10"/>
<path d="M27.0991 104.3C26.1815 104.3 25.4504 104.579 24.8346 104.792C24.4011 104.922 23.9537 105 23.5019 105.025L21.231 105.105V105.824C21.231 105.938 21.4725 106.059 21.8779 106.059H23.2797C23.3326 106.49 24.1068 106.979 24.4993 107.17C24.798 107.316 25.2099 107.344 25.6304 107.3C26.0682 107.254 26.4931 107.164 26.6009 106.959C26.7087 106.754 26.3799 106.303 26.3799 106.303C26.3799 106.303 25.3177 106.206 25.2908 106.052L29.6719 106.037C30.334 106.484 30.9325 106.767 31.505 106.9C32.1815 107.049 32.873 107.119 33.5657 107.108C34.3856 107.121 35.2027 107.008 35.9886 106.774C36.6205 106.57 37.0141 106.312 37.1618 106.009C37.4411 106.009 38.321 106.021 38.9346 106.021C39.4813 106.021 39.4446 105.066 39.4446 105.066C39.4446 105.066 39.1038 105.072 38.5819 105.072H37.2082C37.1489 104.684 36.9774 104.944 36.6345 104.749C36.3488 104.585 34.6569 104.012 34.6569 104.012V104.729C34.6569 104.758 34.686 104.791 34.7432 104.821C35.1874 105.059 35.0829 105.163 35.0829 105.163H31.3088C31.3088 105.163 29.7992 104.872 29.2136 104.712C28.6066 104.548 27.8636 104.298 27.0991 104.3Z" fill="#E38F2F"/>
<path d="M27.1463 103.75C26.2297 103.75 25.4501 103.858 24.8311 104.073C24.2499 104.271 23.8671 104.542 23.6935 104.883C23.3151 104.883 22.3705 104.883 21.8604 104.883C21.4852 104.883 21.2231 104.973 21.2231 105.099C21.2231 105.225 21.4647 105.336 21.8701 105.336H23.603C23.6547 105.767 24.0968 106.256 24.4893 106.448C24.788 106.593 25.5493 106.597 25.9698 106.556C26.4087 106.509 26.5726 106.398 26.3645 106.301C25.9946 106.129 25.7984 106.025 25.5914 105.828C25.4375 105.699 25.3271 105.527 25.2754 105.333L29.6566 105.319C30.3186 105.765 30.9171 106.049 31.4897 106.182C32.166 106.332 32.8577 106.401 33.5503 106.39C34.3703 106.402 35.1874 106.29 35.9733 106.055C36.6052 105.852 36.9987 105.595 37.1465 105.29C37.4257 105.29 38.0188 105.29 38.6324 105.29C39.1801 105.29 39.4292 105.174 39.4292 105.074C39.4292 104.974 39.1478 104.84 38.6227 104.84H37.1918C37.1757 104.669 37.1161 104.505 37.0184 104.364C36.9208 104.223 36.7885 104.109 36.6343 104.033C36.3496 103.871 35.5171 103.826 35.0686 103.868C34.6976 103.903 34.6577 103.983 34.6577 104.016C34.6577 104.05 34.6869 104.077 34.7429 104.107C35.1883 104.346 35.4471 104.594 35.515 104.847L30.9926 104.862C30.451 104.477 29.8489 104.185 29.2112 103.999C28.5372 103.823 27.8427 103.74 27.1463 103.75ZM28.9546 104.865L25.3886 104.877C25.6431 104.56 26.1855 104.405 27.0374 104.402C27.7051 104.394 28.3643 104.553 28.9546 104.865ZM34.8766 105.597C34.5008 105.698 34.1129 105.745 33.7239 105.738C33.3257 105.748 32.9277 105.712 32.5378 105.63C32.2558 105.559 31.9846 105.45 31.7312 105.307L35.4276 105.295C35.2752 105.444 35.0845 105.549 34.8766 105.597Z" fill="#FFDB31"/>
<g style="mix-blend-mode:multiply">
<path d="M16.8141 123.534C17.9765 122.921 20.8329 118.847 21.9813 117.235C23.5341 115.056 24.9553 112.215 25.9236 108.967C26.287 107.743 26.1166 102.382 24.3331 103.165C23.4273 103.561 22.0762 107.606 21.6492 108.433C20.7316 110.216 19.9757 112.055 19.0181 113.835C18.0261 115.683 15.3961 118.751 15.3961 118.751L15.3379 122.265C15.3379 122.265 15.3918 124.281 16.8141 123.534Z" fill="#EAD9D5"/>
</g>
<path d="M6.48828 121.028L8.95005 122.9C9.54527 123.354 10.3853 123.419 11.3773 123.155C11.5261 123.118 11.6792 123.07 11.8324 123.016C12.2627 122.866 12.6808 122.683 13.0832 122.469L13.452 122.265C13.86 122.034 14.2559 121.782 14.6381 121.51C14.7459 121.438 14.8538 121.356 14.967 121.275C15.3217 121.02 15.683 120.736 16.0453 120.434C16.1445 120.35 16.2469 120.267 16.3483 120.178C16.6718 119.893 17.0061 119.593 17.3414 119.274C17.4331 119.184 17.5258 119.094 17.6228 119.003C17.9302 118.699 18.2396 118.38 18.5448 118.05C18.6343 117.958 18.7206 117.864 18.8068 117.764C19.1034 117.44 19.3934 117.117 19.6813 116.768C19.7633 116.671 19.8495 116.572 19.9293 116.473C20.2108 116.137 20.4825 115.791 20.751 115.438L20.7823 115.398C20.8502 115.308 20.9171 115.219 20.9828 115.128C21.2503 114.776 21.5058 114.415 21.7495 114.057C21.8293 113.949 21.8994 113.842 21.9652 113.734C22.2175 113.363 22.4569 112.991 22.6844 112.621C22.7556 112.513 22.8246 112.405 22.8839 112.289C23.1222 111.901 23.3422 111.515 23.5503 111.134C23.6139 111.017 23.6732 110.902 23.7325 110.788C23.9482 110.382 24.1434 109.979 24.3267 109.584C24.3817 109.461 24.4345 109.344 24.4863 109.221C24.6793 108.79 24.8496 108.358 24.9974 107.949C25.0481 107.821 25.0901 107.695 25.1332 107.568C25.2928 107.091 25.4201 106.635 25.5225 106.204C25.5538 106.057 25.5829 105.919 25.6055 105.781C25.7073 105.273 25.7572 104.757 25.7543 104.239C25.7518 104.067 25.7396 103.896 25.7177 103.726C25.626 102.961 25.3457 102.365 24.855 102L22.3965 100.126L6.48828 121.028Z" fill="#DE7A00"/>
<g style="mix-blend-mode:multiply">
<g style="mix-blend-mode:multiply">
<path d="M22.481 101.755L25.7493 104.242C25.7468 104.07 25.7345 103.899 25.7126 103.728L22.716 101.448L22.481 101.755Z" fill="#EDD3CE"/>
</g>
<g style="mix-blend-mode:multiply">
<path d="M21.3508 103.031L25.5228 106.207C25.5541 106.06 25.5832 105.922 25.6058 105.784L21.5848 102.724L21.3508 103.031Z" fill="#EDD3CE"/>
</g>
<g style="mix-blend-mode:multiply">
<path d="M20.3113 104.385L24.9922 107.944C25.0429 107.816 25.0849 107.689 25.1281 107.562L20.5463 104.074L20.3113 104.385Z" fill="#EDD3CE"/>
</g>
<g style="mix-blend-mode:multiply">
<path d="M19.2786 105.748L24.3218 109.587C24.3768 109.464 24.4296 109.347 24.4814 109.224L19.5179 105.44L19.2786 105.748Z" fill="#EDD3CE"/>
</g>
<g style="mix-blend-mode:multiply">
<path d="M18.2463 107.103L23.5451 111.137C23.6087 111.02 23.668 110.905 23.7274 110.791L18.4793 106.795L18.2463 107.103Z" fill="#EDD3CE"/>
</g>
<g style="mix-blend-mode:multiply">
<path d="M17.2122 108.462L22.6792 112.624C22.7503 112.516 22.8193 112.408 22.8786 112.292L17.4462 108.16L17.2122 108.462Z" fill="#EDD3CE"/>
</g>
<g style="mix-blend-mode:multiply">
<path d="M16.175 109.821L21.738 114.056C21.8178 113.948 21.8879 113.84 21.9537 113.732L16.4058 109.508L16.175 109.821Z" fill="#EDD3CE"/>
</g>
<g style="mix-blend-mode:multiply">
<path d="M15.1465 111.179L20.7429 115.438L20.7742 115.399C20.8421 115.309 20.9089 115.22 20.9747 115.129L15.3805 110.872L15.1465 111.179Z" fill="#EDD3CE"/>
</g>
<g style="mix-blend-mode:multiply">
<path d="M14.1133 112.535L19.673 116.767C19.755 116.67 19.8412 116.571 19.921 116.471L14.3419 112.228L14.1133 112.535Z" fill="#EDD3CE"/>
</g>
<g style="mix-blend-mode:multiply">
<path d="M13.0779 113.894L18.5363 118.049C18.6258 117.957 18.712 117.863 18.7983 117.762L13.3119 113.586L13.0779 113.894Z" fill="#EDD3CE"/>
</g>
<g style="mix-blend-mode:multiply">
<path d="M12.0461 115.249L17.3298 119.273C17.4215 119.183 17.5142 119.093 17.6113 119.001L12.2769 114.941L12.0461 115.249Z" fill="#EDD3CE"/>
</g>
<g style="mix-blend-mode:multiply">
<path d="M11.0122 116.607L16.0371 120.432C16.1363 120.348 16.2387 120.265 16.3401 120.177L11.2462 116.294L11.0122 116.607Z" fill="#EDD3CE"/>
</g>
<g style="mix-blend-mode:multiply">
<path d="M9.97876 117.966L14.6316 121.508C14.7395 121.436 14.8473 121.354 14.9605 121.273L10.216 117.659L9.97876 117.966Z" fill="#EDD3CE"/>
</g>
<g style="mix-blend-mode:multiply">
<path d="M8.9502 119.321L13.0833 122.468L13.4521 122.264L9.18311 119.014L8.9502 119.321Z" fill="#EDD3CE"/>
</g>
<g style="mix-blend-mode:multiply">
<path d="M7.9895 120.579L11.3743 123.155C11.5231 123.117 11.6762 123.07 11.8293 123.016L8.22349 120.271L7.9895 120.579Z" fill="#EDD3CE"/>
</g>
</g>
<path d="M10.906 107.888C6.51296 113.659 4.53428 119.543 6.48493 121.029C8.43558 122.515 13.5802 119.039 17.9743 113.264C22.3683 107.49 24.3449 101.61 22.3953 100.124C20.4457 98.6376 15.299 102.121 10.906 107.888Z" fill="#FEC833"/>
<g style="mix-blend-mode:multiply">
<path d="M7.17599 119.654C9.12772 121.141 14.2712 117.665 18.6642 111.89C19.7992 110.408 20.8163 108.84 21.7061 107.2C20.8208 109.097 19.5495 111.19 17.9752 113.263C13.5811 119.035 8.4376 122.51 6.48587 121.028C5.07006 119.949 5.72243 116.56 7.86394 112.575C6.28962 115.95 5.93054 118.704 7.17599 119.654Z" fill="#EDD3CE"/>
</g>
<g style="mix-blend-mode:soft-light">
<path d="M22.4008 100.136C22.9594 100.559 23.1955 101.347 23.1459 102.387C23.0888 103.555 22.9755 101.582 22.0062 100.844C20.0566 99.3581 14.7546 103.361 10.3626 109.13C8.63734 111.395 7.47816 113.213 8.42168 111.599C9.17559 110.314 10.0071 109.077 10.9115 107.894C15.3056 102.121 20.4502 98.6496 22.4008 100.136Z" fill="#FFFBDC"/>
</g>
<path d="M11.5822 108.401C8.0238 113.07 6.42683 117.829 8.00655 119.03C9.58626 120.232 13.7464 117.422 17.2983 112.753C20.8502 108.084 22.4526 103.326 20.874 102.124C19.2953 100.921 15.1341 103.738 11.5822 108.401Z" stroke="#E38F2F" stroke-width="2.08" stroke-miterlimit="10"/>
<path d="M11.2955 111.985C10.7412 112.717 10.5191 113.465 10.3121 114.087C10.1532 114.51 9.94511 114.914 9.69204 115.288L8.37866 117.145L8.95016 117.577C9.0429 117.647 9.28444 117.527 9.53137 117.205C9.79016 116.864 10.1374 116.404 10.3757 116.089C10.7488 116.304 11.6082 115.987 11.9931 115.791C12.2918 115.642 12.5625 115.33 12.7803 114.97C13.0111 114.594 13.1965 114.201 13.0962 114C12.996 113.798 12.4385 113.778 12.4385 113.778C12.4385 113.778 11.7182 114.566 11.5758 114.495L14.2188 110.998C14.9736 110.742 15.5623 110.438 16.0152 110.068C16.5444 109.622 17.0193 109.115 17.43 108.558C17.9917 107.813 18.4004 107.097 18.6323 106.429C18.8479 105.803 18.8857 105.333 18.7325 105.032C18.9008 104.809 19.4453 104.117 19.8108 103.63C20.144 103.194 19.3601 102.644 19.3601 102.644C19.3601 102.644 19.1596 102.92 18.8425 103.336L18.0198 104.414C17.6769 104.224 17.7793 104.522 17.4149 104.674C17.1129 104.801 15.6313 105.802 15.6313 105.802L16.2028 106.233C16.2266 106.253 16.2686 106.247 16.3279 106.22C16.7873 106.012 16.8067 106.158 16.8067 106.158L14.5185 109.164C14.5185 109.164 13.3701 110.192 12.8914 110.558C12.4061 110.935 11.7538 111.374 11.2955 111.985Z" fill="#E38F2F"/>
<path d="M10.8909 111.61C10.3377 112.341 9.95167 113.027 9.7468 113.648C9.5527 114.23 9.53114 114.7 9.70043 115.044C9.47291 115.345 8.90464 116.1 8.59948 116.503C8.3698 116.801 8.28246 117.064 8.38382 117.142C8.48518 117.22 8.71917 117.092 8.96503 116.769C9.21088 116.445 9.77052 115.705 10.0099 115.39C10.3819 115.605 11.0418 115.553 11.4311 115.357C11.7298 115.206 12.1935 114.602 12.4124 114.242C12.641 113.865 12.6517 113.666 12.4479 113.772C12.0867 113.963 11.8851 114.057 11.6036 114.101C11.4083 114.147 11.2035 114.13 11.0181 114.054L13.661 110.559C14.4159 110.302 15.0046 109.998 15.4564 109.629C15.9855 109.183 16.46 108.677 16.8701 108.119C17.3774 107.475 17.7832 106.757 18.0735 105.99C18.2891 105.363 18.3269 104.894 18.1737 104.588C18.3409 104.366 18.6989 103.891 19.0709 103.402C19.4019 102.97 19.4612 102.697 19.3771 102.633C19.293 102.568 19.0213 102.717 18.7032 103.133L17.8405 104.276C17.6955 104.184 17.5291 104.132 17.3577 104.124C17.1862 104.116 17.0156 104.152 16.8625 104.23C16.5595 104.357 16.0204 104.994 15.7842 105.376C15.5869 105.692 15.6279 105.772 15.6527 105.792C15.6775 105.813 15.7184 105.805 15.7788 105.779C16.2371 105.564 16.5919 105.514 16.8334 105.613L14.1064 109.22C13.4719 109.418 12.875 109.721 12.3401 110.115C11.7926 110.547 11.3052 111.049 10.8909 111.61ZM12.8739 110.847L10.7183 113.694C10.6213 113.3 10.8262 112.775 11.3384 112.095C11.7368 111.561 12.2628 111.134 12.8685 110.855L12.8739 110.847ZM17.0372 106.582C16.8885 106.941 16.6907 107.279 16.4495 107.585C16.2173 107.907 15.948 108.201 15.6473 108.46C15.4207 108.642 15.1708 108.793 14.9043 108.909L17.1321 105.959C17.1571 106.172 17.1243 106.387 17.0372 106.582Z" fill="#FFDB31"/>
</svg>
