<svg width="213" height="113" viewBox="0 0 213 113" fill="none" xmlns="http://www.w3.org/2000/svg">
<path d="M205.302 112.307H208.976C209.746 112.307 210.602 111.688 210.816 110.555C211.03 109.422 212.613 108.803 212.956 107.874C213.298 106.946 211.543 105.64 211.543 105.64L211.249 105.338L210.944 105.022L208.035 105.572C208.035 105.572 207.963 106.128 207.918 106.837C207.88 107.377 207.876 107.918 207.906 108.459C207.992 109.696 207.475 111.028 206.106 111.27C204.737 111.512 205.302 112.307 205.302 112.307Z" fill="#8DB17E"/>
<path d="M179.729 112.307H189.466C189.537 112.298 189.607 112.282 189.673 112.259C190.323 111.998 190.118 109.999 190.041 109.382C190.026 109.268 190.015 109.2 190.015 109.2C190.015 109.2 186.591 107.002 186.12 108.685C186.105 108.737 186.088 108.788 186.07 108.839C185.475 110.414 182.818 111.13 181.283 111.329C180.111 111.484 179.807 112.033 179.729 112.307Z" fill="#8DB17E"/>
<path d="M75.4816 9.57657C75.4816 9.57657 70.2819 16.6498 65.5144 16.748C60.747 16.8461 53.4946 13.4698 53.4946 13.4698C53.4946 13.4698 49.1174 4.04401 52.0863 0.357854C52.0863 0.357854 55.064 -0.904262 58.1774 1.32502C58.7861 1.76933 59.327 2.27004 59.7888 2.81665C60.5439 3.69385 61.392 4.19379 62.2909 4.45602C65.6927 5.4559 69.7305 3.10343 71.2401 5.37616C71.9606 6.46121 72.8438 7.47133 73.8702 8.38397C74.8029 9.18295 75.4816 9.57657 75.4816 9.57657Z" fill="#F9DDBF"/>
<path d="M0.891588 113C0.891588 113 -11.8744 23.0642 59.1527 16.748C59.1527 16.748 114.267 27.2861 100.522 113H0.891588Z" fill="#F9DDBF"/>
<path d="M50.0901 18.0624C50.0901 18.0624 63.3502 20.9112 67.4415 19.2381C67.4415 19.2381 68.0597 13.8809 62.4754 14.6318C58.6553 15.1461 56.164 13.3713 54.6996 12.6515C52.6273 11.6312 49.5394 15.8209 50.0901 18.0624Z" fill="#F99746"/>
<path d="M61.6308 9.98632C60.7827 10.5997 58.1787 1.32275 58.1787 1.32275C58.7874 1.76707 59.3283 2.26778 59.7901 2.81439C60.5452 3.69159 61.3933 4.19152 62.2923 4.45376C62.2999 4.72418 62.4527 9.38772 61.6308 9.98632Z" fill="#E5C1A1"/>
<path d="M73.8699 8.37988C73.6834 8.48621 67.5503 12.0354 66.7188 12.0354C65.8707 12.0354 71.2392 5.37207 71.2392 5.37207C71.9599 6.45715 72.8434 7.46728 73.8699 8.37988Z" fill="#E5C1A1"/>
<path d="M38.1846 27.7603C38.1846 27.7603 56.7285 58.2085 77.0277 53.7054C97.3269 49.2024 85.9577 72.4746 85.9577 72.4746C85.9577 72.4746 40.7077 72.264 40.5065 71.6143C40.3053 70.9646 38.1846 27.7603 38.1846 27.7603Z" fill="#E5C1A1"/>
<path d="M73.9264 42.9907C58.7741 42.9907 46.3894 52.693 45.9043 64.7672C45.9043 64.7877 45.9043 64.8081 45.9043 64.8285C46.2769 64.7873 46.6526 64.7668 47.0287 64.7672H50.0427C50.5285 54.5231 61.0572 46.3134 73.9264 46.3134C86.7956 46.3134 97.3262 54.5231 97.812 64.7672H101.95C101.463 52.693 89.0793 42.9907 73.9264 42.9907Z" fill="#ED7D2B"/>
<path d="M95.5858 112.928H39.1271C38.327 112.928 37.5355 112.796 36.8019 112.54C36.0682 112.284 35.4081 111.909 34.8627 111.439C34.3172 110.969 33.8981 110.414 33.6314 109.808C33.3646 109.203 33.256 108.56 33.3123 107.919L34.0591 99.3672L34.4099 95.3487L36.6988 69.1142C36.8035 67.9335 37.4616 66.8285 38.5406 66.0218C39.6196 65.2152 41.0392 64.7668 42.5136 64.7671H91.6893C93.1539 64.767 94.5648 65.2097 95.6413 66.0071C96.7177 66.8045 97.3807 67.8981 97.4984 69.0703L101.395 107.875C101.46 108.519 101.358 109.167 101.095 109.777C100.832 110.388 100.415 110.948 99.8689 111.423C99.3231 111.898 98.6607 112.277 97.9236 112.536C97.1864 112.795 96.3905 112.929 95.5858 112.928Z" fill="#ED7D2B"/>
<path d="M107.844 112.928H51.3843C50.5843 112.928 49.7928 112.796 49.0592 112.54C48.3256 112.284 47.6655 111.909 47.1201 111.439C46.5747 110.969 46.1556 110.414 45.889 109.808C45.6223 109.203 45.5138 108.56 45.5701 107.919L48.9573 69.1147C49.0618 67.934 49.7198 66.8289 50.7987 66.0222C51.8775 65.2154 53.2971 64.767 54.7714 64.7671H103.947C105.412 64.7671 106.823 65.21 107.899 66.0075C108.976 66.8049 109.639 67.8986 109.756 69.0708L113.653 107.875C113.718 108.519 113.615 109.166 113.352 109.777C113.09 110.388 112.672 110.948 112.127 111.423C111.581 111.897 110.919 112.276 110.182 112.535C109.445 112.795 108.649 112.928 107.844 112.928Z" fill="#F99746"/>
<path d="M88.5618 92.9371C88.5618 93.8175 88.3458 94.6894 87.9261 95.5029C87.5064 96.3163 86.8913 97.0554 86.1159 97.678C85.3405 98.3006 84.4199 98.7945 83.4067 99.1314C82.3936 99.4684 81.3077 99.6418 80.2111 99.6418C79.7749 99.6417 79.3394 99.6145 78.9084 99.5605C77.0707 99.3273 75.3826 98.6081 74.1119 97.517C72.8412 96.4259 72.0606 95.0254 71.8939 93.5376C71.7273 92.0499 72.1841 90.56 73.192 89.3044C74.1999 88.0487 75.7011 87.0993 77.4574 86.6066V74.7813C77.4588 74.4234 77.5993 74.0747 77.8595 73.784C78.1196 73.4933 78.4863 73.2751 78.9084 73.1598C79.1275 73.0996 79.3575 73.0689 79.589 73.0688H80.8331C81.398 73.0705 81.9391 73.2515 82.3384 73.5723C82.7376 73.8931 82.9626 74.3278 82.9641 74.7813V86.6066C84.5995 87.0654 86.0169 87.9212 87.0198 89.0554C88.0227 90.1896 88.5615 91.5461 88.5618 92.9371Z" fill="#DB6A1D"/>
<path d="M85.9571 92.9369C85.9569 94.534 85.2469 96.0785 83.9547 97.2927C82.6626 98.5069 80.8732 99.311 78.9084 99.5603C77.0707 99.3271 75.3826 98.6079 74.1119 97.5168C72.8412 96.4258 72.0606 95.0252 71.8939 93.5375C71.7273 92.0497 72.1841 90.5598 73.192 89.3042C74.1999 88.0486 75.7011 87.0991 77.4574 86.6064V74.7811C77.4588 74.4232 77.5993 74.0745 77.8595 73.7838C78.1196 73.4931 78.4863 73.2749 78.9084 73.1597C79.3305 73.2749 79.6973 73.4931 79.9574 73.7838C80.2175 74.0745 80.3581 74.4232 80.3594 74.7811V86.6064C81.9949 87.0652 83.4122 87.921 84.4151 89.0552C85.418 90.1894 85.9569 91.5459 85.9571 92.9369Z" fill="#EA863B"/>
<path d="M176.66 109.671V111.724C176.658 111.886 176.587 112.042 176.458 112.166C176.314 112.306 176.123 112.408 175.908 112.462C175.837 112.481 175.765 112.495 175.692 112.503C175.624 112.512 175.555 112.516 175.485 112.516H126.971C126.345 112.516 125.83 112.182 125.798 111.765C125.798 111.752 125.798 111.738 125.798 111.724V109.671C125.798 109.657 125.798 109.644 125.798 109.63C125.83 109.214 126.345 108.879 126.971 108.879H175.485C175.555 108.879 175.624 108.884 175.692 108.892C175.765 108.901 175.837 108.914 175.908 108.933C176.123 108.987 176.314 109.09 176.458 109.229C176.587 109.353 176.658 109.509 176.66 109.671Z" fill="#FFB93E"/>
<path d="M152.836 112.516H126.846C126.287 112.516 125.827 112.182 125.799 111.765C125.799 111.752 125.799 111.738 125.799 111.724V109.671C125.799 109.657 125.799 109.644 125.799 109.63C125.827 109.214 126.287 108.879 126.846 108.879H149.644C150.008 109.95 150.857 111.43 152.836 112.516Z" fill="#FFA412"/>
<path d="M170.756 108.879H170.205V112.516H170.756V108.879Z" fill="#FFA412"/>
<path d="M168.889 108.879H168.338V112.516H168.889V108.879Z" fill="#FFA412"/>
<path d="M166.651 108.879H166.1V112.516H166.651V108.879Z" fill="#FFA412"/>
<path d="M163.22 108.879H162.669V112.516H163.22V108.879Z" fill="#FFA412"/>
<path d="M159.592 108.879H159.041V112.516H159.592V108.879Z" fill="#FFA412"/>
<path d="M154.031 108.879H153.479V112.516H154.031V108.879Z" fill="#FFA412"/>
<path d="M148.824 108.879H148.272V112.516H148.824V108.879Z" fill="#FFA412"/>
<path d="M144.174 108.879H143.623V112.516H144.174V108.879Z" fill="#FFA412"/>
<path d="M172.533 108.879H171.981V112.516H172.533V108.879Z" fill="#FFA412"/>
<path d="M173.707 108.879H173.155V112.516H173.707V108.879Z" fill="#FFA412"/>
<path d="M174.839 108.879H174.288V112.516H174.839V108.879Z" fill="#FFA412"/>
<path d="M175.692 108.892V112.503C175.624 112.512 175.554 112.516 175.485 112.516H175.141V108.879H175.485C175.554 108.879 175.624 108.884 175.692 108.892Z" fill="#FFA412"/>
<path d="M176.458 109.229V112.166C176.314 112.306 176.123 112.408 175.907 112.462V108.934C176.122 108.988 176.314 109.09 176.458 109.229Z" fill="#FFA412"/>
<path d="M171.472 106.034V108.088C171.471 108.249 171.4 108.406 171.271 108.53C171.127 108.669 170.936 108.772 170.72 108.826C170.65 108.845 170.578 108.858 170.505 108.866C170.437 108.875 170.368 108.879 170.298 108.879H121.783C121.158 108.879 120.643 108.545 120.611 108.128C120.611 108.115 120.611 108.101 120.611 108.088V106.034C120.611 106.021 120.611 106.007 120.611 105.994C120.643 105.577 121.158 105.243 121.783 105.243H170.298C170.329 105.243 170.362 105.243 170.391 105.246C170.404 105.245 170.418 105.245 170.431 105.246C170.445 105.246 170.46 105.246 170.474 105.249L170.505 105.253C170.578 105.261 170.65 105.275 170.72 105.294L170.751 105.302L170.78 105.311L170.839 105.33C170.85 105.334 170.862 105.338 170.873 105.343C170.883 105.346 170.893 105.35 170.903 105.355C170.922 105.362 170.94 105.37 170.959 105.378C170.977 105.386 170.999 105.398 171.018 105.408C171.037 105.419 171.049 105.425 171.064 105.433L171.094 105.451C171.124 105.47 171.152 105.49 171.179 105.511C171.187 105.517 171.195 105.523 171.202 105.529C171.209 105.535 171.217 105.542 171.225 105.548L171.269 105.588C171.399 105.713 171.471 105.871 171.472 106.034Z" fill="#FFB93E"/>
<path d="M147.649 108.879H121.659C121.1 108.879 120.64 108.545 120.612 108.128C120.612 108.115 120.612 108.101 120.612 108.088V106.034C120.612 106.021 120.612 106.007 120.612 105.994C120.641 105.577 121.1 105.243 121.659 105.243H144.457C144.467 105.272 144.478 105.302 144.489 105.333C144.87 106.395 145.724 107.824 147.649 108.879Z" fill="#FFA412"/>
<path d="M165.569 105.243H165.018V108.879H165.569V105.243Z" fill="#FFA412"/>
<path d="M163.703 105.243H163.151V108.879H163.703V105.243Z" fill="#FFA412"/>
<path d="M161.464 105.243H160.913V108.879H161.464V105.243Z" fill="#FFA412"/>
<path d="M158.033 105.243H157.481V108.879H158.033V105.243Z" fill="#FFA412"/>
<path d="M154.406 105.243H153.854V108.879H154.406V105.243Z" fill="#FFA412"/>
<path d="M148.844 105.243H148.293V108.879H148.844V105.243Z" fill="#FFA412"/>
<path d="M143.636 105.243H143.085V108.879H143.636V105.243Z" fill="#FFA412"/>
<path d="M138.987 105.243H138.436V108.879H138.987V105.243Z" fill="#FFA412"/>
<path d="M167.345 105.243H166.794V108.879H167.345V105.243Z" fill="#FFA412"/>
<path d="M168.519 105.243H167.968V108.879H168.519V105.243Z" fill="#FFA412"/>
<path d="M169.653 105.243H169.102V108.879H169.653V105.243Z" fill="#FFA412"/>
<path d="M170.503 105.255V108.866C170.434 108.875 170.365 108.879 170.296 108.879H169.951V105.243H170.296C170.365 105.243 170.434 105.247 170.503 105.255Z" fill="#FFA412"/>
<path d="M171.271 105.592V108.53C171.127 108.669 170.936 108.772 170.721 108.826V105.298C170.936 105.352 171.127 105.454 171.271 105.592Z" fill="#FFA412"/>
<path d="M173.979 102.488V104.542C173.977 104.703 173.906 104.859 173.778 104.983C173.633 105.123 173.442 105.225 173.226 105.279C173.156 105.298 173.085 105.312 173.012 105.32C172.943 105.328 172.874 105.333 172.805 105.333H124.29C124.104 105.333 123.92 105.303 123.749 105.243C123.406 105.122 123.161 104.889 123.122 104.618C123.122 104.605 123.122 104.594 123.118 104.582C123.114 104.57 123.118 104.555 123.118 104.542V102.488C123.118 102.474 123.118 102.461 123.118 102.447C123.15 102.031 123.665 101.696 124.29 101.696H172.805C172.874 101.696 172.943 101.701 173.012 101.709C173.085 101.718 173.156 101.731 173.226 101.75C173.442 101.804 173.633 101.907 173.778 102.046C173.906 102.17 173.977 102.326 173.979 102.488Z" fill="#FFB93E"/>
<path d="M150.156 105.333H124.166C123.998 105.333 123.833 105.302 123.682 105.243C123.531 105.185 123.4 105.098 123.302 104.988C123.204 104.879 123.142 104.751 123.123 104.618C123.123 104.605 123.123 104.594 123.119 104.582C123.115 104.57 123.119 104.555 123.119 104.542V102.488C123.119 102.474 123.119 102.461 123.119 102.447C123.148 102.031 123.607 101.696 124.166 101.696H146.964C147.318 102.738 148.131 104.167 149.996 105.243C150.049 105.273 150.102 105.304 150.156 105.333Z" fill="#FFA412"/>
<path d="M168.076 101.696H167.524V105.333H168.076V101.696Z" fill="#FFA412"/>
<path d="M166.209 101.696H165.657V105.333H166.209V101.696Z" fill="#FFA412"/>
<path d="M163.971 101.696H163.42V105.333H163.971V101.696Z" fill="#FFA412"/>
<path d="M160.54 101.696H159.988V105.333H160.54V101.696Z" fill="#FFA412"/>
<path d="M156.912 101.696H156.36V105.333H156.912V101.696Z" fill="#FFA412"/>
<path d="M151.351 101.696H150.8V105.333H151.351V101.696Z" fill="#FFA412"/>
<path d="M146.143 101.696H145.592V105.333H146.143V101.696Z" fill="#FFA412"/>
<path d="M141.494 101.696H140.942V105.333H141.494V101.696Z" fill="#FFA412"/>
<path d="M169.852 101.696H169.301V105.333H169.852V101.696Z" fill="#FFA412"/>
<path d="M171.026 101.696H170.475V105.333H171.026V101.696Z" fill="#FFA412"/>
<path d="M172.159 101.696H171.607V105.333H172.159V101.696Z" fill="#FFA412"/>
<path d="M173.011 101.709V105.32C172.943 105.328 172.874 105.333 172.804 105.333H172.46V101.696H172.804C172.874 101.696 172.943 101.701 173.011 101.709Z" fill="#FFA412"/>
<path d="M173.777 102.046V104.983C173.633 105.123 173.442 105.225 173.227 105.279V101.75C173.442 101.804 173.633 101.907 173.777 102.046Z" fill="#FFA412"/>
<path d="M175.141 98.8514V100.905C175.14 101.066 175.068 101.222 174.94 101.346C174.795 101.486 174.604 101.589 174.389 101.643C174.319 101.662 174.247 101.675 174.174 101.683C174.105 101.692 174.036 101.696 173.967 101.696H125.452C124.826 101.696 124.311 101.362 124.279 100.946C124.279 100.932 124.279 100.919 124.279 100.905V98.8514C124.279 98.8376 124.279 98.8243 124.279 98.8105C124.309 98.4251 124.752 98.1107 125.313 98.0657C125.359 98.0617 125.405 98.0599 125.452 98.0601H173.967C174.036 98.06 174.105 98.0641 174.174 98.0723C174.247 98.0811 174.319 98.0948 174.389 98.1132C174.604 98.1673 174.795 98.2701 174.94 98.4092C175.068 98.5335 175.139 98.6898 175.141 98.8514Z" fill="#FFB93E"/>
<path d="M151.317 101.696H125.327C124.769 101.696 124.308 101.362 124.28 100.946C124.28 100.932 124.28 100.919 124.28 100.905V98.8514C124.28 98.8376 124.28 98.8243 124.28 98.8105C124.306 98.4256 124.702 98.1107 125.203 98.0657C125.245 98.0617 125.288 98.0598 125.33 98.0601H148.129V98.0657C148.493 99.1351 149.342 100.612 151.317 101.696Z" fill="#FFA412"/>
<path d="M169.238 98.0601H168.687V101.697H169.238V98.0601Z" fill="#FFA412"/>
<path d="M167.371 98.0601H166.819V101.697H167.371V98.0601Z" fill="#FFA412"/>
<path d="M165.133 98.0601H164.582V101.697H165.133V98.0601Z" fill="#FFA412"/>
<path d="M161.702 98.0601H161.15V101.697H161.702V98.0601Z" fill="#FFA412"/>
<path d="M158.075 98.0601H157.523V101.697H158.075V98.0601Z" fill="#FFA412"/>
<path d="M152.512 98.0601H151.961V101.697H152.512V98.0601Z" fill="#FFA412"/>
<path d="M147.305 98.0601H146.754V101.697H147.305V98.0601Z" fill="#FFA412"/>
<path d="M142.656 98.0601H142.104V101.697H142.656V98.0601Z" fill="#FFA412"/>
<path d="M171.014 98.0601H170.463V101.697H171.014V98.0601Z" fill="#FFA412"/>
<path d="M172.188 98.0601H171.637V101.697H172.188V98.0601Z" fill="#FFA412"/>
<path d="M173.321 98.0601H172.77V101.697H173.321V98.0601Z" fill="#FFA412"/>
<path d="M174.173 98.0723V101.683C174.105 101.692 174.036 101.696 173.967 101.696H173.622V98.0596H173.967C174.036 98.0596 174.105 98.0639 174.173 98.0723Z" fill="#FFA412"/>
<path d="M174.939 98.4092V101.346C174.795 101.486 174.604 101.589 174.389 101.642V98.1152C174.604 98.1686 174.795 98.2706 174.939 98.4092Z" fill="#FFA412"/>
<path d="M171.574 95.2203V97.2742C171.573 97.4357 171.502 97.5918 171.373 97.7159C171.229 97.8552 171.038 97.958 170.822 98.0119C170.752 98.0305 170.68 98.0442 170.607 98.0528L170.539 98.0599H170.501H170.463C170.442 98.0599 170.421 98.0599 170.399 98.0599H121.884C121.259 98.0599 120.744 97.7256 120.712 97.309C120.712 97.2957 120.712 97.2819 120.712 97.2686V95.2147C120.712 95.2014 120.712 95.1876 120.712 95.1743C120.712 95.161 120.712 95.1518 120.712 95.141C120.758 94.8057 121.119 94.5276 121.592 94.4479L121.627 94.4423C121.711 94.4296 121.797 94.4233 121.882 94.4233H170.397C170.433 94.4233 170.468 94.4233 170.502 94.4264L170.549 94.43L170.603 94.4361C170.676 94.4447 170.748 94.4582 170.818 94.4765C171.034 94.5308 171.225 94.6337 171.369 94.773C171.501 94.8981 171.573 95.0565 171.574 95.2203Z" fill="#FFB93E"/>
<path d="M147.751 98.0658H121.761C121.202 98.0658 120.742 97.7315 120.714 97.3148C120.714 97.3015 120.714 97.2877 120.714 97.2745V95.2205C120.714 95.2072 120.714 95.1934 120.714 95.1801C120.714 95.1668 120.714 95.1576 120.714 95.1469C120.756 94.8039 121.091 94.5233 121.527 94.4491C121.542 94.446 121.556 94.4436 121.571 94.442C121.633 94.4336 121.695 94.4293 121.757 94.4292H144.556C144.556 94.4379 144.562 94.4461 144.565 94.4553C144.933 95.5216 145.782 96.9836 147.738 98.0602L147.751 98.0658Z" fill="#FFA412"/>
<path d="M165.671 94.4292H165.119V98.0658H165.671V94.4292Z" fill="#FFA412"/>
<path d="M163.804 94.4292H163.253V98.0658H163.804V94.4292Z" fill="#FFA412"/>
<path d="M161.566 94.4292H161.015V98.0658H161.566V94.4292Z" fill="#FFA412"/>
<path d="M158.135 94.4292H157.584V98.0658H158.135V94.4292Z" fill="#FFA412"/>
<path d="M154.507 94.4292H153.956V98.0658H154.507V94.4292Z" fill="#FFA412"/>
<path d="M148.946 94.4292H148.395V98.0658H148.946V94.4292Z" fill="#FFA412"/>
<path d="M143.739 94.4292H143.188V98.0658H143.739V94.4292Z" fill="#FFA412"/>
<path d="M139.088 94.4292H138.537V98.0658H139.088V94.4292Z" fill="#FFA412"/>
<path d="M167.447 94.4292H166.896V98.0658H167.447V94.4292Z" fill="#FFA412"/>
<path d="M168.622 94.4292H168.07V98.0658H168.622V94.4292Z" fill="#FFA412"/>
<path d="M169.754 94.4292H169.203V98.0658H169.754V94.4292Z" fill="#FFA412"/>
<path d="M170.607 94.442V98.053C170.538 98.0613 170.469 98.0654 170.4 98.0653H170.057V94.4292H170.401C170.47 94.4291 170.539 94.4334 170.607 94.442Z" fill="#FFA412"/>
<path d="M171.373 94.7788V97.7161C171.229 97.8552 171.037 97.9579 170.822 98.012V94.4849C171.037 94.5382 171.229 94.6403 171.373 94.7788Z" fill="#FFA412"/>
<path d="M171.472 91.6102V93.6636C171.471 93.8252 171.399 93.9815 171.271 94.1058C171.127 94.2451 170.935 94.3478 170.72 94.4017C170.665 94.4163 170.609 94.4277 170.553 94.436L170.506 94.4426C170.438 94.451 170.369 94.4553 170.299 94.4554H121.784C121.734 94.4554 121.683 94.453 121.633 94.4482C121.613 94.4482 121.594 94.4447 121.575 94.4421C121.048 94.3777 120.64 94.0735 120.612 93.7045C120.612 93.6907 120.612 93.6774 120.612 93.6636V91.6102C120.612 91.5969 120.612 91.5831 120.612 91.5698C120.644 91.1532 121.159 90.8188 121.784 90.8188H170.299C170.33 90.8188 170.363 90.8188 170.392 90.8188H170.432L170.475 90.8229L170.506 90.8265C170.579 90.8349 170.651 90.8484 170.721 90.8669L170.752 90.8756L170.781 90.8843L170.84 90.9032C170.862 90.9114 170.884 90.919 170.904 90.9277C170.924 90.9364 170.941 90.9431 170.959 90.9518C170.978 90.9604 171 90.9712 171.019 90.9814C171.038 90.9916 171.05 90.9978 171.065 91.0065L171.095 91.0243C171.125 91.0427 171.153 91.0623 171.18 91.0831C171.188 91.0893 171.196 91.0954 171.203 91.1015L171.226 91.121C171.241 91.1342 171.256 91.1475 171.27 91.1613C171.401 91.2872 171.472 91.4461 171.472 91.6102Z" fill="#FFB93E"/>
<path d="M147.649 94.4553H121.659C121.638 94.4553 121.617 94.4553 121.595 94.4553C121.573 94.4553 121.55 94.4553 121.531 94.4507C121.032 94.4042 120.64 94.0898 120.613 93.7059C120.613 93.6921 120.613 93.6789 120.613 93.6651V91.6116C120.613 91.5983 120.613 91.5845 120.613 91.5712C120.642 91.1546 121.101 90.8203 121.66 90.8203H144.458C144.468 90.85 144.479 90.8796 144.49 90.9098C144.868 91.9633 145.712 93.3778 147.604 94.4308C147.618 94.438 147.634 94.4461 147.649 94.4553Z" fill="#FFA412"/>
<path d="M165.569 90.8188H165.018V94.4554H165.569V90.8188Z" fill="#FFA412"/>
<path d="M163.703 90.8188H163.151V94.4554H163.703V90.8188Z" fill="#FFA412"/>
<path d="M161.464 90.8188H160.913V94.4554H161.464V90.8188Z" fill="#FFA412"/>
<path d="M158.033 90.8188H157.481V94.4554H158.033V90.8188Z" fill="#FFA412"/>
<path d="M154.406 90.8188H153.854V94.4554H154.406V90.8188Z" fill="#FFA412"/>
<path d="M148.844 90.8188H148.293V94.4554H148.844V90.8188Z" fill="#FFA412"/>
<path d="M143.636 90.8188H143.085V94.4554H143.636V90.8188Z" fill="#FFA412"/>
<path d="M138.987 90.8188H138.436V94.4554H138.987V90.8188Z" fill="#FFA412"/>
<path d="M167.345 90.8188H166.794V94.4554H167.345V90.8188Z" fill="#FFA412"/>
<path d="M168.519 90.8188H167.968V94.4554H168.519V90.8188Z" fill="#FFA412"/>
<path d="M169.653 90.8188H169.102V94.4554H169.653V90.8188Z" fill="#FFA412"/>
<path d="M170.503 90.8316V94.4426C170.434 94.451 170.365 94.4553 170.296 94.4554H169.951V90.8188H170.296C170.365 90.8189 170.434 90.8232 170.503 90.8316Z" fill="#FFA412"/>
<path d="M171.271 91.1684V94.1057C171.127 94.245 170.936 94.3478 170.721 94.4017V90.8745C170.936 90.9281 171.127 91.0301 171.271 91.1684Z" fill="#FFA412"/>
<path d="M173.979 88.0633V90.1167C173.977 90.2783 173.906 90.4344 173.778 90.5589C173.634 90.6981 173.442 90.8009 173.227 90.8549C173.157 90.8735 173.085 90.8872 173.012 90.8958C172.944 90.904 172.874 90.9081 172.805 90.908H124.29C124.104 90.9086 123.92 90.8781 123.749 90.8186C123.406 90.6974 123.161 90.4648 123.122 90.1929C123.122 90.181 123.121 90.1692 123.118 90.1576C123.118 90.1438 123.118 90.1305 123.118 90.1167V88.0633C123.118 88.05 123.118 88.0362 123.118 88.0224C123.15 87.6063 123.665 87.272 124.29 87.272H172.805C172.874 87.2718 172.944 87.2761 173.012 87.2848C173.085 87.2931 173.157 87.3067 173.227 87.3251C173.442 87.3791 173.634 87.4821 173.778 87.6216C173.906 87.7458 173.977 87.9019 173.979 88.0633Z" fill="#FFB93E"/>
<path d="M150.155 90.908H124.165C123.997 90.9083 123.832 90.8777 123.682 90.8186C123.53 90.7609 123.399 90.6733 123.301 90.5638C123.203 90.4544 123.142 90.3267 123.122 90.1929C123.122 90.1809 123.121 90.1692 123.118 90.1576C123.118 90.1438 123.118 90.1305 123.118 90.1167V88.0633C123.118 88.05 123.118 88.0362 123.118 88.0224C123.147 87.6063 123.606 87.272 124.165 87.272H146.964C147.318 88.3133 148.13 89.7425 149.995 90.8186C150.048 90.8487 150.101 90.8784 150.155 90.908Z" fill="#FFA412"/>
<path d="M168.076 87.272H167.524V90.9085H168.076V87.272Z" fill="#FFA412"/>
<path d="M166.209 87.272H165.657V90.9085H166.209V87.272Z" fill="#FFA412"/>
<path d="M163.971 87.272H163.42V90.9085H163.971V87.272Z" fill="#FFA412"/>
<path d="M160.54 87.272H159.988V90.9085H160.54V87.272Z" fill="#FFA412"/>
<path d="M156.912 87.272H156.36V90.9085H156.912V87.272Z" fill="#FFA412"/>
<path d="M151.351 87.272H150.8V90.9085H151.351V87.272Z" fill="#FFA412"/>
<path d="M146.143 87.272H145.592V90.9085H146.143V87.272Z" fill="#FFA412"/>
<path d="M141.494 87.272H140.942V90.9085H141.494V87.272Z" fill="#FFA412"/>
<path d="M169.852 87.272H169.301V90.9085H169.852V87.272Z" fill="#FFA412"/>
<path d="M171.026 87.272H170.475V90.9085H171.026V87.272Z" fill="#FFA412"/>
<path d="M172.159 87.272H171.607V90.9085H172.159V87.272Z" fill="#FFA412"/>
<path d="M173.011 87.2848V90.8958C172.943 90.9042 172.874 90.9085 172.804 90.9086H172.46V87.272H172.804C172.874 87.2718 172.943 87.2761 173.011 87.2848Z" fill="#FFA412"/>
<path d="M173.777 87.6216V90.5588C173.633 90.698 173.442 90.8007 173.227 90.8548V87.3276C173.442 87.381 173.633 87.4831 173.777 87.6216Z" fill="#FFA412"/>
<path d="M177.943 84.4271V86.481C177.941 86.6424 177.87 86.7984 177.742 86.9227C177.598 87.062 177.406 87.1648 177.191 87.2186C177.121 87.2373 177.049 87.2509 176.976 87.2595C176.907 87.268 176.838 87.2722 176.769 87.2723H128.254C127.629 87.2723 127.114 86.938 127.082 86.5214C127.082 86.5081 127.082 86.4943 127.082 86.481V84.4271C127.082 84.4138 127.082 84.4 127.082 84.3867C127.111 84.0018 127.554 83.6863 128.115 83.6414C128.161 83.6378 128.208 83.6357 128.254 83.6357H176.769C176.838 83.6358 176.907 83.6401 176.976 83.6485C177.049 83.6571 177.121 83.6708 177.191 83.6894C177.406 83.7433 177.598 83.8461 177.742 83.9854C177.87 84.1096 177.941 84.2656 177.943 84.4271Z" fill="#FFB93E"/>
<path d="M154.12 87.2723H128.13C127.571 87.2723 127.111 86.938 127.083 86.5214C127.083 86.5081 127.083 86.4943 127.083 86.481V84.4271C127.083 84.4138 127.083 84.4 127.083 84.3867C127.109 84.0018 127.504 83.6864 128.006 83.6414C128.048 83.6376 128.09 83.6357 128.133 83.6357H150.932V83.6414C151.296 84.7118 152.145 86.1886 154.12 87.2723Z" fill="#FFA412"/>
<path d="M172.041 83.6357H171.489V87.2723H172.041V83.6357Z" fill="#FFA412"/>
<path d="M170.173 83.6357H169.622V87.2723H170.173V83.6357Z" fill="#FFA412"/>
<path d="M167.935 83.6357H167.384V87.2723H167.935V83.6357Z" fill="#FFA412"/>
<path d="M164.505 83.6357H163.954V87.2723H164.505V83.6357Z" fill="#FFA412"/>
<path d="M160.877 83.6357H160.325V87.2723H160.877V83.6357Z" fill="#FFA412"/>
<path d="M155.315 83.6357H154.764V87.2723H155.315V83.6357Z" fill="#FFA412"/>
<path d="M150.108 83.6357H149.557V87.2723H150.108V83.6357Z" fill="#FFA412"/>
<path d="M145.459 83.6357H144.907V87.2723H145.459V83.6357Z" fill="#FFA412"/>
<path d="M173.817 83.6357H173.266V87.2723H173.817V83.6357Z" fill="#FFA412"/>
<path d="M174.991 83.6357H174.439V87.2723H174.991V83.6357Z" fill="#FFA412"/>
<path d="M176.124 83.6357H175.572V87.2723H176.124V83.6357Z" fill="#FFA412"/>
<path d="M176.976 83.6485V87.2595C176.908 87.268 176.839 87.2722 176.77 87.2723H176.424V83.6357H176.768C176.838 83.6358 176.908 83.6401 176.976 83.6485Z" fill="#FFA412"/>
<path d="M177.742 83.9878V86.9251C177.598 87.0643 177.407 87.1671 177.191 87.221V83.6938C177.406 83.7474 177.597 83.8494 177.742 83.9878Z" fill="#FFA412"/>
<path d="M171.574 80.7963V82.8497C171.573 83.0112 171.502 83.1673 171.373 83.2914C171.229 83.4308 171.038 83.5338 170.822 83.5879C170.752 83.6063 170.68 83.62 170.607 83.6288C170.585 83.6288 170.562 83.6339 170.539 83.6354C170.516 83.6369 170.503 83.638 170.485 83.639H170.458H121.886C121.261 83.639 120.746 83.3052 120.714 82.8886C120.714 82.8748 120.714 82.8615 120.714 82.8477V80.7942C120.714 80.7804 120.714 80.7671 120.714 80.7533C120.746 80.3372 121.261 80.0029 121.886 80.0029H170.401H170.465C170.513 80.0047 170.561 80.0087 170.609 80.0147C170.682 80.0231 170.754 80.0366 170.824 80.0551C170.859 80.0643 170.894 80.0745 170.926 80.0857C170.946 80.0929 170.967 80.0995 170.99 80.1077C170.992 80.1074 170.994 80.1074 170.996 80.1077C171.016 80.1154 171.036 80.1241 171.055 80.1328L171.065 80.1369C171.083 80.145 171.101 80.1537 171.117 80.1629C171.158 80.1834 171.197 80.2063 171.234 80.2314L171.267 80.2544L171.273 80.259L171.293 80.2739C171.293 80.2739 171.293 80.2739 171.297 80.2769L171.332 80.3061C171.348 80.3199 171.364 80.3337 171.378 80.349C171.507 80.4751 171.576 80.6334 171.574 80.7963Z" fill="#FFB93E"/>
<path d="M147.751 83.6409H121.761C121.202 83.6409 120.742 83.3071 120.714 82.8905C120.714 82.8767 120.714 82.8634 120.714 82.8496V80.7962C120.714 80.7824 120.714 80.7691 120.714 80.7553C120.743 80.3392 121.202 80.0049 121.761 80.0049H144.559C144.568 80.0325 144.578 80.0601 144.589 80.0887C144.967 81.1494 145.82 82.5787 147.741 83.6353L147.751 83.6409Z" fill="#FFA412"/>
<path d="M165.671 80.0049H165.119V83.6414H165.671V80.0049Z" fill="#FFA412"/>
<path d="M163.804 80.0049H163.253V83.6414H163.804V80.0049Z" fill="#FFA412"/>
<path d="M161.566 80.0049H161.015V83.6414H161.566V80.0049Z" fill="#FFA412"/>
<path d="M158.135 80.0049H157.584V83.6414H158.135V80.0049Z" fill="#FFA412"/>
<path d="M154.507 80.0049H153.956V83.6414H154.507V80.0049Z" fill="#FFA412"/>
<path d="M148.946 80.0049H148.395V83.6414H148.946V80.0049Z" fill="#FFA412"/>
<path d="M143.739 80.0049H143.188V83.6414H143.739V80.0049Z" fill="#FFA412"/>
<path d="M139.088 80.0049H138.537V83.6414H139.088V80.0049Z" fill="#FFA412"/>
<path d="M167.447 80.0049H166.896V83.6414H167.447V80.0049Z" fill="#FFA412"/>
<path d="M168.622 80.0049H168.07V83.6414H168.622V80.0049Z" fill="#FFA412"/>
<path d="M169.754 80.0049H169.203V83.6414H169.754V80.0049Z" fill="#FFA412"/>
<path d="M170.607 80.0177V83.6297C170.538 83.6379 170.469 83.642 170.4 83.642H170.057V80.0059H170.401C170.47 80.0054 170.539 80.0094 170.607 80.0177Z" fill="#FFA412"/>
<path d="M171.373 80.355V83.2917C171.229 83.4311 171.038 83.5341 170.822 83.5882V80.061C171.037 80.1144 171.229 80.2165 171.373 80.355Z" fill="#FFA412"/>
<path d="M175.141 77.244V79.2974C175.139 79.4589 175.068 79.615 174.939 79.7391C174.795 79.8783 174.604 79.9813 174.389 80.0355C174.319 80.0541 174.247 80.0676 174.174 80.0759C174.105 80.0844 174.036 80.0886 173.967 80.0887H125.452C125.272 80.0892 125.093 80.0607 124.927 80.0049C124.574 79.8853 124.32 79.647 124.282 79.3705C124.282 79.3598 124.282 79.349 124.282 79.3383C124.282 79.3276 124.282 79.3107 124.282 79.2974V77.244C124.282 77.2302 124.282 77.2169 124.282 77.2031C124.312 76.8176 124.755 76.5033 125.316 76.4583C125.362 76.4542 125.408 76.4521 125.455 76.4521H173.97C174.039 76.4522 174.108 76.4565 174.177 76.4649C174.25 76.4734 174.322 76.4871 174.392 76.5058C174.607 76.5597 174.799 76.6625 174.943 76.8018C175.07 76.9265 175.14 77.0827 175.141 77.244Z" fill="#FFB93E"/>
<path d="M151.318 80.0887H125.327C125.165 80.089 125.005 80.0604 124.859 80.0049C124.704 79.9477 124.569 79.8593 124.469 79.7481C124.369 79.637 124.306 79.5069 124.286 79.3705C124.286 79.3598 124.286 79.349 124.286 79.3383C124.286 79.3276 124.286 79.3107 124.286 79.2974V77.244C124.286 77.2302 124.286 77.2169 124.286 77.2031C124.312 76.8182 124.708 76.5033 125.209 76.4583C125.251 76.4541 125.293 76.452 125.336 76.4522H148.135V76.4583C148.491 77.5006 149.306 78.9299 151.176 80.0049C151.218 80.033 151.267 80.0611 151.318 80.0887Z" fill="#FFA412"/>
<path d="M169.238 76.4521H168.687V80.0887H169.238V76.4521Z" fill="#FFA412"/>
<path d="M167.371 76.4521H166.819V80.0887H167.371V76.4521Z" fill="#FFA412"/>
<path d="M165.133 76.4521H164.582V80.0887H165.133V76.4521Z" fill="#FFA412"/>
<path d="M161.702 76.4521H161.15V80.0887H161.702V76.4521Z" fill="#FFA412"/>
<path d="M158.075 76.4521H157.523V80.0887H158.075V76.4521Z" fill="#FFA412"/>
<path d="M152.512 76.4521H151.961V80.0887H152.512V76.4521Z" fill="#FFA412"/>
<path d="M147.305 76.4521H146.754V80.0887H147.305V76.4521Z" fill="#FFA412"/>
<path d="M142.656 76.4521H142.104V80.0887H142.656V76.4521Z" fill="#FFA412"/>
<path d="M171.014 76.4521H170.463V80.0887H171.014V76.4521Z" fill="#FFA412"/>
<path d="M172.188 76.4521H171.637V80.0887H172.188V76.4521Z" fill="#FFA412"/>
<path d="M173.321 76.4521H172.77V80.0887H173.321V76.4521Z" fill="#FFA412"/>
<path d="M174.173 76.4649V80.0759C174.105 80.0844 174.036 80.0886 173.967 80.0887H173.622V76.4521H173.967C174.036 76.4522 174.105 76.4565 174.173 76.4649Z" fill="#FFA412"/>
<path d="M174.939 76.8017V79.739C174.795 79.8783 174.604 79.9811 174.389 80.035V76.5078C174.604 76.5611 174.795 76.6632 174.939 76.8017Z" fill="#FFA412"/>
<path d="M176.659 73.6132V75.6667C176.657 75.8283 176.586 75.9845 176.458 76.1088C176.313 76.2481 176.122 76.3509 175.906 76.4048C175.836 76.4235 175.765 76.4372 175.692 76.4457C175.669 76.4457 175.647 76.4508 175.624 76.4523L175.585 76.4554H175.547C175.526 76.4554 175.506 76.4554 175.484 76.4554H126.969C126.343 76.4554 125.828 76.1211 125.796 75.7045C125.796 75.6907 125.796 75.6774 125.796 75.6636V73.6102C125.796 73.5969 125.796 73.5831 125.796 73.5698C125.828 73.1532 126.343 72.8188 126.969 72.8188H175.484C175.553 72.8189 175.622 72.8232 175.69 72.8316C175.763 72.8399 175.835 72.8535 175.905 72.872C176.121 72.9261 176.312 73.0291 176.456 73.1685C176.586 73.2933 176.658 73.4506 176.659 73.6132Z" fill="#FFB93E"/>
<path d="M152.836 76.4583H126.846C126.287 76.4583 125.827 76.124 125.799 75.7074C125.799 75.6936 125.799 75.6803 125.799 75.6665V73.6131C125.799 73.5998 125.799 73.586 125.799 73.5727C125.827 73.1561 126.287 72.8218 126.846 72.8218H149.644C150.008 73.8907 150.854 75.3675 152.828 76.4512L152.836 76.4583Z" fill="#FFA412"/>
<path d="M170.756 72.8218H170.205V76.4583H170.756V72.8218Z" fill="#FFA412"/>
<path d="M168.889 72.8218H168.338V76.4583H168.889V72.8218Z" fill="#FFA412"/>
<path d="M166.651 72.8218H166.1V76.4583H166.651V72.8218Z" fill="#FFA412"/>
<path d="M163.22 72.8218H162.669V76.4583H163.22V72.8218Z" fill="#FFA412"/>
<path d="M159.592 72.8218H159.041V76.4583H159.592V72.8218Z" fill="#FFA412"/>
<path d="M154.031 72.8218H153.479V76.4583H154.031V72.8218Z" fill="#FFA412"/>
<path d="M148.824 72.8218H148.272V76.4583H148.824V72.8218Z" fill="#FFA412"/>
<path d="M144.174 72.8218H143.623V76.4583H144.174V72.8218Z" fill="#FFA412"/>
<path d="M172.533 72.8218H171.981V76.4583H172.533V72.8218Z" fill="#FFA412"/>
<path d="M173.707 72.8218H173.155V76.4583H173.707V72.8218Z" fill="#FFA412"/>
<path d="M174.839 72.8218H174.288V76.4583H174.839V72.8218Z" fill="#FFA412"/>
<path d="M175.692 72.8346V76.4456C175.623 76.4538 175.554 76.4579 175.485 76.4578H175.141V72.8218H175.485C175.554 72.8216 175.624 72.8259 175.692 72.8346Z" fill="#FFA412"/>
<path d="M176.458 73.1715V76.1088C176.314 76.2479 176.122 76.3506 175.907 76.4047V72.875C176.122 72.9293 176.314 73.0322 176.458 73.1715Z" fill="#FFA412"/>
<path d="M139.288 107.103C148.292 99.8733 148.292 88.1521 139.288 80.9227C130.283 73.6933 115.685 73.6933 106.68 80.9227C97.6763 88.1521 97.6763 99.8733 106.68 107.103C115.685 114.332 130.283 114.332 139.288 107.103Z" fill="#E2810E"/>
<path d="M137.277 107.103C146.281 99.8733 146.281 88.1521 137.277 80.9227C128.273 73.6933 113.674 73.6933 104.67 80.9227C95.6656 88.1521 95.6656 99.8733 104.67 107.103C113.674 114.332 128.273 114.332 137.277 107.103Z" fill="#FFB93E"/>
<path d="M120.973 111.098C116.113 111.098 111.403 109.745 107.646 107.269C103.889 104.794 101.318 101.349 100.369 97.5218C99.4213 93.6946 100.155 89.7219 102.446 86.2805C104.737 82.8391 108.444 80.1419 112.934 78.6486C117.424 77.1553 122.42 76.9583 127.071 78.091C131.722 79.2238 135.74 81.6162 138.44 84.8608C141.14 88.1053 142.355 92.0012 141.879 95.8845C141.403 99.7679 139.264 103.399 135.827 106.158C133.881 107.729 131.566 108.974 129.016 109.822C126.467 110.67 123.733 111.104 120.973 111.098ZM120.973 78.3708C110.081 78.3708 101.219 85.4859 101.219 94.2313C101.219 102.977 110.081 110.092 120.973 110.092C131.865 110.092 140.727 102.977 140.727 94.2313C140.727 85.4859 131.865 78.3708 120.973 78.3708Z" fill="#FFA412"/>
<path d="M123.864 99.1266C123.921 98.8005 123.904 98.469 123.815 98.1477C123.722 97.8487 123.546 97.5705 123.3 97.3344C123.001 97.0522 122.654 96.806 122.268 96.6034C121.758 96.3333 121.223 96.0931 120.67 95.8847C119.659 95.4911 118.674 95.0565 117.718 94.5827C116.904 94.185 116.162 93.6998 115.511 93.1406C114.929 92.6342 114.485 92.0356 114.208 91.3832C113.933 90.7333 113.858 89.9835 113.984 89.134C114.075 88.442 114.342 87.7725 114.769 87.1669C115.178 86.5964 115.733 86.1015 116.397 85.7146C117.102 85.3087 117.891 85.0069 118.728 84.8236C119.611 84.6229 120.581 84.5331 121.638 84.5542L122.049 81.7744L124.835 82.0397L124.419 84.8589C125.349 85.0396 126.235 85.342 127.042 85.754C127.788 86.1314 128.433 86.6252 128.937 87.2062C129.441 87.7873 129.795 88.4436 129.978 89.1365C130.182 89.8631 130.221 90.6593 130.092 91.5253L125.059 91.0453C125.212 90.0065 125.04 89.2019 124.541 88.6315C124.042 88.061 123.311 87.7301 122.348 87.6387C121.825 87.5886 121.366 87.6043 120.972 87.6858C120.606 87.7555 120.263 87.8892 119.969 88.0773C119.693 88.2588 119.473 88.4877 119.322 88.747C119.161 89.0249 119.057 89.322 119.015 89.6267C118.967 89.9223 118.982 90.2223 119.061 90.5136C119.149 90.8003 119.318 91.0668 119.555 91.2922C119.856 91.5748 120.207 91.8211 120.596 92.0232C121.13 92.3063 121.685 92.5637 122.257 92.794C123.333 93.2394 124.306 93.6835 125.178 94.1262C125.988 94.5292 126.727 95.0184 127.374 95.5805C127.955 96.0901 128.398 96.6907 128.676 97.3446C128.951 97.9948 129.026 98.7398 128.902 99.5795C128.79 100.342 128.523 101.01 128.103 101.584C127.691 102.152 127.134 102.642 126.468 103.023C125.759 103.422 124.965 103.713 124.125 103.88C123.169 104.073 122.185 104.156 121.2 104.129L120.818 106.714L118.048 106.45L118.43 103.878C117.487 103.711 116.574 103.451 115.71 103.105C114.868 102.771 114.112 102.312 113.481 101.753C112.857 101.197 112.39 100.527 112.081 99.7421C111.771 98.9572 111.694 98.0453 111.849 97.0062L116.883 97.4857C116.792 98.0991 116.823 98.6226 116.977 99.0561C117.108 99.4529 117.353 99.8193 117.694 100.125C118.013 100.404 118.407 100.622 118.845 100.762C119.287 100.905 119.751 101 120.225 101.045C120.712 101.099 121.207 101.088 121.69 101.013C122.085 100.951 122.461 100.825 122.795 100.644C123.098 100.476 123.348 100.254 123.526 99.9956C123.709 99.7267 123.824 99.4313 123.864 99.1266Z" fill="#FFA412"/>
<path d="M164.9 52.6789C164.9 52.6789 162.422 55.4786 160.151 55.5175C157.88 55.5563 154.426 54.2196 154.426 54.2196C154.426 54.2196 152.34 50.4879 153.754 49.0285C153.754 49.0285 155.173 48.5291 156.656 49.4114C156.94 49.583 157.198 49.7812 157.424 50.0018C157.73 50.3099 158.146 50.5362 158.616 50.651C160.236 51.0467 162.16 50.1158 162.882 51.0145C163.234 51.4526 163.655 51.8527 164.134 52.205C164.372 52.38 164.628 52.5385 164.9 52.6789Z" fill="#F9DDBF"/>
<path d="M132.606 72.8749C132.606 72.8749 141.361 55.8417 157.119 55.5171C157.119 55.5171 171.666 56.815 172.474 72.8749H132.606Z" fill="#F9DDBF"/>
<path d="M152.803 56.0375C152.803 56.0375 159.12 57.1652 161.069 56.5022C161.069 56.5022 161.363 54.3818 158.703 54.6793C156.882 54.8838 155.697 54.1799 154.999 53.8951C154.013 53.4918 152.542 55.1501 152.803 56.0375Z" fill="#DB6A1D"/>
<path d="M158.302 52.8407C157.898 53.084 156.657 49.4111 156.657 49.4111C156.941 49.5828 157.199 49.781 157.425 50.0016C157.732 50.3097 158.148 50.536 158.618 50.6508C158.621 50.7576 158.694 52.604 158.302 52.8407Z" fill="#E5C1A1"/>
<path d="M164.136 52.2047C164.046 52.2466 161.125 53.6519 160.729 53.6519C160.333 53.6519 162.883 51.0142 162.883 51.0142C163.236 51.4523 163.656 51.8524 164.136 52.2047Z" fill="#E5C1A1"/>
<path d="M141.16 68.1164C140.998 68.0055 147.356 60.602 149.107 60.5463C150.858 60.4906 154.793 62.1683 157.639 62.3865C160.485 62.6048 163.248 61.9541 163.787 63.3067C164.326 64.6593 165.807 69.4511 164.898 70.2179C163.989 70.9847 144.654 70.5144 141.16 68.1164Z" fill="#E5C1A1"/>
<path d="M159.732 54.4315C159.204 54.132 158.006 53.4726 157.944 53.6198C157.899 53.7251 157.962 53.9045 158.106 54.0916C157.382 53.8738 156.646 53.7312 154.906 53.9996C154.732 54.0248 154.567 54.0778 154.42 54.1556C154.273 54.2333 154.147 54.3341 154.05 54.452C153.872 54.6743 153.806 54.9514 154.25 55.1733C155.138 55.6165 154.88 55.3506 156.115 55.9963C157.349 56.6419 158.86 56.8065 159.762 56.3541L160.972 56.192L161.122 54.592C161.122 54.592 160.434 54.5256 159.732 54.4315Z" fill="#FFB27D"/>
<path d="M191.48 41.0119C191.48 41.0119 188.624 43.7325 184.986 42.5966C184.986 42.5966 184.203 41.0769 184.192 39.9568C184.192 39.8188 184.188 39.6854 184.186 39.5586C184.166 38.297 184.113 37.5896 184.113 37.5896H184.117C184.283 37.5338 189.677 35.7559 189.673 35.9026C189.581 39.3102 191.48 41.0119 191.48 41.0119Z" fill="#FFB27D"/>
<path d="M189.132 36.7141C188.612 37.4881 186.827 39.0027 184.187 39.5563C184.167 38.2947 184.114 37.5872 184.114 37.5872H184.118C184.268 37.5545 189.285 36.4856 189.132 36.7141Z" fill="#ED975D"/>
<path d="M182.985 37.4559C182.985 37.4559 189.052 38.6015 189.881 35.5569C190.711 32.5123 192.054 30.6102 188.215 29.7503C184.377 28.8905 183.305 29.919 182.72 30.8811C182.135 31.8431 181.428 37.0797 182.985 37.4559Z" fill="#FFB27D"/>
<path d="M189.673 36.3865C189.756 36.429 191.062 36.751 193.534 32.797C193.922 32.1759 194.187 30.833 193.279 29.6466C192.372 28.4601 189.167 27.5272 186.502 27.1213C183.837 26.7154 183.197 27.9198 182.57 29.1298C181.911 30.4 180.008 31.4454 180.008 31.4454C182.306 32.4765 185.074 31.0022 186.033 31.2445C186.993 31.4868 187.331 32.7004 187.403 33.0894C187.475 33.4784 187.585 33.8015 188.791 33.4539C189.997 33.1063 189.336 34.8259 189.143 35.1551C189.145 35.1551 188.982 36.0308 189.673 36.3865Z" fill="#231F20"/>
<path d="M181.691 67.2208C181.691 67.2208 182.212 72.4298 182.823 78.6918C183.654 87.1979 184.653 97.6461 184.751 99.6254C184.923 103.063 185.608 108.56 185.608 108.56C185.608 108.56 187.234 109.866 190.487 109.316C190.487 109.316 193.387 101.468 194.214 93.1624C194.228 93.0261 194.241 92.8898 194.253 92.7535C195.023 84.3 196.222 66.499 196.222 66.499L181.691 67.2208Z" fill="#418E5C"/>
<path d="M181.691 67.2207C181.691 67.2207 182.212 72.4297 182.823 78.6917L194.214 93.1639C194.228 93.0276 194.241 92.8913 194.253 92.755C195.023 84.3015 196.222 66.5005 196.222 66.5005L181.691 67.2207Z" fill="#8DB17E"/>
<path d="M184.063 67.8404C184.063 67.8404 193.436 86.7062 199.598 95.5722C205.761 104.438 207.687 106.912 207.687 106.912C207.687 106.912 211.218 105.778 211.539 105.005C211.539 105.005 209.184 87.8891 205.055 83.7163C202.723 81.3587 199.984 74.2834 199.855 71.8093C199.726 69.3351 199.025 64.4385 199.025 64.4385L184.063 67.8404Z" fill="#8DB17E"/>
<path d="M205.442 64.4129L205.541 65.6259C205.541 65.6259 204.545 67.7816 207.337 68.8873C207.337 68.8873 208.532 69.2742 208.58 68.5295C208.629 67.7847 208.476 68.0633 208.573 67.0112C208.671 65.9592 208.155 64.9665 207.289 64.6296L206.577 63.9707L205.442 64.4129Z" fill="#418E5C"/>
<path d="M206.533 65.2963C205.495 65.5636 205.329 65.5033 205.329 65.5033C205.329 65.5033 200.28 58.1218 199.768 57.446C199.256 56.7702 189.047 49.1689 189.047 49.1689L191.671 41.313C191.671 41.313 203.283 53.3867 204.537 55.1191C206.609 57.9817 207.823 64.6307 207.823 64.6307C207.471 64.9376 207.027 65.1668 206.533 65.2963Z" fill="#418E5C"/>
<path d="M179.712 52.253C179.749 53.8663 179.865 55.678 180.023 57.5218C180.033 57.6312 180.042 57.7401 180.052 57.8495C180.152 58.9905 180.262 60.1345 180.387 61.2494C180.437 61.6967 180.49 62.1388 180.546 62.5728L180.555 62.6316C180.559 62.7942 180.584 62.97 180.606 63.131C181.116 67.3085 181.655 70.6087 181.752 70.6598C181.869 70.7249 182.011 70.7538 182.152 70.7411C183.516 70.6036 187.587 70.852 190.92 70.2697C193.732 69.7938 196.154 68.8895 198.72 67.6729C199.06 67.5114 199.837 67.083 199.774 66.763C199.71 66.4113 199.597 65.9032 199.451 65.2647C198.946 63.0426 198.073 59.22 197.776 54.7471C197.718 53.9135 197.634 53.0917 197.524 52.2817C197.238 50.174 196.779 48.1717 196.165 46.3938C195.019 43.09 193.342 40.5602 191.236 39.57C190.961 39.4463 189.48 40.2034 188.116 40.9042C186.86 41.5509 185.537 41.7293 184.251 41.6393L183.119 42.6443C181.748 43.9222 180.288 45.6276 179.889 48.049C179.859 48.228 179.834 48.4183 179.812 48.62C179.708 49.6061 179.681 50.8549 179.712 52.253Z" fill="#8DB17E"/>
<path d="M179.713 52.2527C179.75 53.866 179.866 55.6777 180.023 57.5215C180.034 57.6309 180.043 57.7398 180.053 57.8492C187.846 53.9325 189.047 46.7646 189.047 46.7646C185.213 46.9001 182.166 47.6076 179.819 48.6197C179.709 49.6058 179.682 50.8546 179.713 52.2527Z" fill="#418E5C"/>
<path d="M160.02 55.3382C159.94 54.4099 160.538 54.2555 160.538 54.2555C160.538 54.2555 172.29 52.5456 173.288 52.2936C174.287 52.0415 182.829 44.9069 182.829 44.9069C182.829 44.9069 186.104 41.9421 188.784 42.5969C191.114 43.1658 192.025 44.6248 192.335 46.0147C192.511 46.8252 192.38 47.6597 191.958 48.4094C191.535 49.159 190.841 49.7892 189.966 50.2176C185.955 52.1923 177.928 56.0835 176.037 56.5282C171.829 57.5189 160.522 56.608 160.522 56.608C160.236 56.2213 160.064 55.7868 160.02 55.3382Z" fill="#8DB17E"/>
<path d="M95.903 61.1501C94.0362 63.7571 91.6888 64.7652 91.6888 64.7652H81.9209C81.9209 64.7652 97.3272 59.16 95.903 61.1501Z" fill="#233862"/>
<path d="M88.4016 81.3328C88.1469 81.567 88.1145 81.8287 88.2405 82.1083C88.2401 82.1095 88.2401 82.1107 88.2405 82.1119C88.4736 82.6287 89.2433 83.2063 90.1378 83.7824C90.2518 83.8566 90.353 83.924 90.4422 83.9869C90.4651 84.0033 90.4887 84.0196 90.5103 84.038C90.5319 84.0564 90.5453 84.0641 90.5632 84.0759C91.3966 84.6929 91.0827 84.8345 92.5808 86.0864C94.2884 87.5131 95.4643 87.5386 95.7986 87.4088C96.0819 87.2979 95.507 86.5398 94.8696 85.6912C94.8384 85.6503 94.806 85.6084 94.7767 85.567C94.692 85.454 94.608 85.339 94.522 85.2255C93.7758 84.2031 93.9675 83.7216 94.1445 82.1983C94.2884 80.9607 96.5428 75.283 96.5428 75.283L93.2697 74.8306C93.2697 74.8306 92.2841 79.3515 91.1986 80.0477C90.6179 80.4188 89.9679 80.4234 89.4095 80.6985C89.37 80.7174 89.3318 80.7373 89.2936 80.7572C88.9797 80.9234 88.6563 81.0977 88.4016 81.3328Z" fill="#FFB27D"/>
<path d="M88.4016 81.3326C88.1469 81.5668 88.1145 81.8285 88.2405 82.1081C88.2401 82.1093 88.2401 82.1105 88.2405 82.1117C88.5264 82.628 89.2764 83.2026 90.1404 83.7771C90.2537 83.8523 90.353 83.9213 90.4422 83.9862C90.4651 84.0026 90.4887 84.0189 90.5103 84.0373C90.5319 84.0557 90.5453 84.0634 90.5631 84.0751C91.3966 84.6921 91.0827 84.8337 92.5808 86.0856C94.2883 87.5124 95.4643 87.5379 95.7986 87.4081C96.0819 87.2971 95.5069 86.5391 94.8696 85.6905C93.6751 85.3158 92.625 84.6943 91.8257 83.8891C90.7968 82.8355 90.1111 81.4819 89.4108 80.6978C89.3713 80.7167 89.3331 80.7366 89.2949 80.7565C88.9797 80.9232 88.6563 81.0975 88.4016 81.3326Z" fill="#231F20"/>
<path d="M114.793 79.6938C114.995 80.5051 116.435 80.3696 118.044 80.0517C119.653 79.7337 119.27 80.111 121.56 79.9075C123.849 79.7041 124.543 79.0185 124.616 78.7451C124.68 78.5028 123.547 78.4169 122.333 78.3049C122.181 78.2911 122.028 78.2758 121.874 78.261C120.504 78.123 119.501 77.4129 118.256 76.8297C117.078 76.2771 115.318 74.0273 115.318 74.0273L112.178 74.2272C112.178 74.2272 113.826 76.2367 114.463 77.1103C114.838 77.6215 114.818 78.3034 114.772 78.8284C114.743 79.1141 114.719 79.4055 114.793 79.6938Z" fill="#FFB27D"/>
<path d="M118.041 80.0514C119.65 79.7355 119.267 80.1107 121.556 79.9072C123.846 79.7038 124.54 79.0183 124.612 78.7448C124.676 78.5025 123.543 78.4166 122.33 78.3047L122.318 78.3236C121.337 78.8288 120.204 79.1114 119.04 79.1415C117.486 79.1716 115.841 78.8143 114.768 78.8281C114.744 79.1134 114.72 79.4047 114.792 79.6905C114.993 80.5022 116.434 80.3668 118.041 80.0514Z" fill="#231F20"/>
<path d="M102.76 63.57L99.8241 69.9123L95.9919 78.1935C95.9919 78.1935 94.9516 78.2743 93.9546 78.0442C93.0378 77.8316 91.9854 77.2775 91.9854 77.2775C91.9854 77.2775 93.0499 68.3859 95.035 63.2822C95.5444 61.972 96.1136 60.9124 96.7426 60.3173C99.819 57.3928 102.76 63.57 102.76 63.57Z" fill="#418E5C"/>
<path d="M75.9896 57.654C75.9896 57.654 95.4357 52.375 99.7727 53.4981C104.11 54.6212 117.131 75.4223 117.131 75.4223C117.131 75.4223 116.838 75.7362 116.035 75.9775C115.289 76.2024 113.483 76.1881 113.483 76.1881C113.483 76.1881 101.732 68.1006 100.332 65.7415C98.933 63.3824 98.374 61.1362 96.9745 61.3611C96.1201 61.4981 89.5127 64.7646 83.5941 64.7646H75.0276C71.3241 61.5636 72.3612 56.4885 72.3612 56.4885L75.9896 57.654Z" fill="#8DB17E"/>
<path d="M89.4984 21.7368C88.6975 21.3018 87.6973 21.1975 86.9918 21.1867C87.1873 21.0482 87.5483 21.016 87.5483 21.016C87.1179 20.9368 86.112 21.223 86.112 21.223C80.2341 18.9697 78.5877 26.0732 78.554 27.7458C78.5202 29.4184 78.349 31.3338 75.1796 32.6378C68.9401 35.2024 73.4682 40.643 73.4682 40.643C73.5127 40.668 75.8761 44.5448 75.8761 44.5448C75.8532 43.1907 84.2694 36.5765 88.5071 34.703C89.601 33.6039 90.1485 31.5766 90.1905 31.4166C89.8633 33.0314 89.4265 33.9214 89.07 34.4152C92.7283 32.1051 91.6218 22.889 89.4984 21.7368Z" fill="#231F20"/>
<path d="M86.7373 34.5048C86.7564 34.5146 84.6522 35.0912 83.2458 34.5912C81.9221 34.1215 80.92 32.3737 80.9397 32.3727C81.5414 32.3502 82.2023 31.9275 82.7116 29.1548L82.9663 29.2289L87.2766 30.4742C87.2766 30.4742 86.9646 31.5844 86.7622 32.6416C86.5934 33.53 86.5024 34.3806 86.7373 34.5048Z" fill="#FFB27D"/>
<path d="M87.2781 30.4752C87.2781 30.4752 86.9661 31.5855 86.7636 32.6426C84.2882 32.2848 83.3167 30.3045 82.9678 29.23L87.2781 30.4752Z" fill="#ED975D"/>
<path d="M81.9277 28.3649C81.9277 28.3649 80.6097 26.6933 80.2933 25.264C80.0679 24.2416 80.7154 20.4589 85.4504 21.0053C86.4039 21.1116 87.3155 21.3883 88.1181 21.815C89.1457 22.3722 90.6292 23.5761 88.9706 26.8758L88.5396 27.9907L81.9277 28.3649Z" fill="#231F20"/>
<path d="M87.9193 31.5773C87.9193 31.5773 82.0224 30.9414 82.5712 27.999C83.12 25.0566 82.7298 22.993 86.5186 23.2741C90.3075 23.5553 90.827 24.7663 90.941 25.7841C91.0549 26.8018 89.4677 31.6668 87.9193 31.5773Z" fill="#FFB27D"/>
<path d="M89.2119 23.5273C89.2119 23.5273 86.9524 26.7836 84.3847 26.9942C81.8169 27.2048 80.8447 26.5428 80.8447 26.5428C80.8447 26.5428 82.968 25.5634 83.7582 23.5002C83.7582 23.5002 88.3079 21.7372 89.2119 23.5273Z" fill="#231F20"/>
<path d="M88.7598 23.7591C88.7598 23.7591 89.8179 24.6757 89.9695 25.4603C90.121 26.245 89.9631 27.8036 90.5361 27.8189C90.5361 27.8189 92.1915 25.6209 91.0766 24.1277C89.8937 22.5435 88.7598 23.7591 88.7598 23.7591Z" fill="#231F20"/>
<path d="M71.4286 57.7367C71.747 58.4524 72.7332 58.6359 74.0524 58.5117C76.5666 58.2755 80.302 56.9204 82.9939 55.9829C87.0979 54.5546 88.9634 55.8965 90.2692 54.9876C91.575 54.0787 88.7768 52.057 91.2019 42.6716C92.0245 39.489 86.7637 32.6427 86.7637 32.6427C86.7637 32.6427 86.3619 34.6404 81.3754 32.2644C81.1997 32.1806 79.2368 34.5136 77.3465 37.3906C75.2627 40.564 73.2667 44.3979 73.8531 46.3731C74.9724 50.1395 70.4959 55.6583 71.4286 57.7367Z" fill="#8DB17E"/>
<path d="M71.4286 57.7368C71.747 58.4524 72.7332 58.636 74.0524 58.5117C75.7924 57.9029 83.3109 55.5642 83.2269 53.9796C83.0996 51.6332 81.7816 51.5586 82.7176 48.6632C83.4663 46.3384 76.5195 42.0148 75.411 41.0747C73.3272 44.2487 73.2699 44.3974 73.8563 46.3742C74.9724 50.1396 70.4959 55.6583 71.4286 57.7368Z" fill="#418E5C"/>
<path d="M99.8222 69.9123L95.99 78.1935C95.99 78.1935 94.9497 78.2743 93.9526 78.0442C93.0358 77.8316 91.9834 77.2775 91.9834 77.2775C91.9834 77.2775 93.0479 68.3859 95.0331 63.2822L99.8222 69.9123Z" fill="#418E5C"/>
<path d="M86.7637 32.6426C86.7637 32.6426 91.8934 33.3409 92.4938 35.1142C93.0942 36.8875 96.6405 47.3126 96.6405 47.3126C96.6405 47.3126 94.0377 47.6888 92.828 46.7222C91.6183 45.7555 88.6361 37.7483 88.6361 37.7483L86.7637 32.6426Z" fill="#418E5C"/>
<path d="M81.3754 32.2646C81.3754 32.2646 76.5271 32.5044 74.8481 34.384C72.4854 37.0304 67.7982 48.3072 70.4844 49.8111C73.5099 51.5046 84.2531 50.2543 84.2531 50.2543C84.2531 50.2543 84.611 48.9124 84.1131 48.2607C83.6152 47.6089 75.5319 46.5635 75.1588 46.264C74.7857 45.9644 79.8225 40.4227 79.8225 39.524C79.8225 38.6253 81.3754 32.2646 81.3754 32.2646Z" fill="#418E5C"/>
<path d="M81.5762 53.9097H102.283L106.016 43.458H85.3408L81.5762 53.9097Z" fill="#F99746"/>
<path d="M75.1406 53.9092H102.211V53.5018H75.1406V53.9092Z" fill="#ED7D2B"/>
<path d="M95.7074 48.5142C95.8386 48.1466 95.5737 47.8496 95.116 47.8496C94.6582 47.8496 94.1813 48.1476 94.0502 48.5142C93.919 48.8807 94.1839 49.1787 94.641 49.1787C95.0981 49.1787 95.5763 48.8812 95.7074 48.5142Z" fill="#FFB93E"/>
<path d="M43.6954 90.5708L34.0586 99.3698L34.4094 95.3514L36.4671 90.5708H43.6954Z" fill="#DB6A1D"/>
</svg>
