<svg width="25" height="23" viewBox="0 0 25 23" fill="none" xmlns="http://www.w3.org/2000/svg">
<path d="M12.4999 4.98958L3.01512 13.3555C2.9448 13.4188 2.85496 13.4484 2.7777 13.5009V21.5278C2.7777 21.9115 3.08847 22.2222 3.47215 22.2222H9.94914L8.33326 19.0621L12.8519 16.2843L10.2408 11.1098L16.6666 17.0464L12.1479 19.8242L13.8806 22.2222H21.5277C21.9114 22.2222 22.2221 21.9115 22.2221 21.5278V13.5026C22.1484 13.4523 22.0607 13.4236 21.9938 13.3637L12.4999 4.98958ZM24.7695 10.2552L22.2221 8.00564V2.08333C22.2221 1.69965 21.9114 1.38889 21.5277 1.38889H18.7499C18.3662 1.38889 18.0555 1.69965 18.0555 2.08333V4.32682L13.6609 0.447484C13.3298 0.149741 12.9149 0.000434977 12.4999 9.49039e-07C12.085 -0.000433079 11.6709 0.148004 11.3411 0.445747L0.230393 10.2552C-0.0547635 10.5117 -0.078635 10.9505 0.177875 11.2361L1.10669 12.27C1.36277 12.5551 1.80201 12.579 2.0876 12.3225L12.0407 3.54297C12.3033 3.31163 12.697 3.31163 12.9596 3.54297L22.9127 12.322C23.1978 12.5781 23.6371 12.5547 23.8936 12.2695L24.8224 11.2357C25.0785 10.9505 25.055 10.5113 24.7695 10.2552Z" fill="white"/>
</svg>
