<svg width="10" height="19" viewBox="0 0 10 19" fill="none" xmlns="http://www.w3.org/2000/svg">
<path d="M8.71065 0.225115L0.23225 8.92275C0.0833396 9.07553 0 9.28042 0 9.49376C0 9.7071 0.0833396 9.912 0.23225 10.0648L8.71065 18.7657C8.78001 18.8369 8.86295 18.8935 8.95456 18.9322C9.04616 18.9709 9.14459 18.9908 9.24402 18.9908C9.34346 18.9908 9.44188 18.9709 9.53349 18.9322C9.6251 18.8935 9.70803 18.8369 9.7774 18.7657C9.92011 18.6196 10 18.4234 10 18.2192C10 18.015 9.92011 17.8189 9.7774 17.6727L1.80457 9.49376L9.7774 1.31641C9.91962 1.17038 9.9992 0.9746 9.9992 0.770762C9.9992 0.566925 9.91962 0.371142 9.7774 0.225115C9.70803 0.153872 9.6251 0.0972477 9.53349 0.0585838C9.44188 0.0199198 9.34346 0 9.24402 0C9.14459 0 9.04616 0.0199198 8.95456 0.0585838C8.86295 0.0972477 8.78001 0.153872 8.71065 0.225115Z" fill="#33277B"/>
</svg>
