<svg width="22" height="19" viewBox="0 0 22 19" fill="none" xmlns="http://www.w3.org/2000/svg">
<path d="M21.1505 8.28758C21.9716 8.28758 22.3144 7.3254 21.6474 6.88188L11.4995 0.149053C11.3546 0.0522091 11.1796 0 10.9999 0C10.8203 0 10.6453 0.0522091 10.5004 0.149053L0.352467 6.88188C-0.314494 7.32298 0.028287 8.28758 0.852024 8.28758H2.49684V17.3519H0.583645C0.466728 17.3519 0.371068 17.4392 0.371068 17.5458V18.8061C0.371068 18.9128 0.466728 19 0.583645 19H21.4162C21.5331 19 21.6288 18.9128 21.6288 18.8061V17.5458C21.6288 17.4392 21.5331 17.3519 21.4162 17.3519H19.503V8.28758H21.1505ZM7.51898 17.3519H4.41004V8.28758H7.51898V17.3519ZM12.5411 17.3519H9.43218V8.28758H12.5411V17.3519ZM17.5898 17.3519H14.4543V8.28758H17.5898V17.3519Z" fill="#33277B"/>
</svg>
