<svg width="34" height="27" viewBox="0 0 34 27" fill="none" xmlns="http://www.w3.org/2000/svg">
<path d="M6.18723 26.2176V24.4737C6.18723 23.805 5.77856 23.3691 5.07808 23.3691C4.72791 23.3691 4.34849 23.4854 4.08579 23.8633C3.88159 23.5435 3.58978 23.3691 3.152 23.3691C2.86005 23.3691 2.56837 23.4563 2.33479 23.776V23.4273H1.72192V26.2176H2.33479V24.677C2.33479 24.183 2.59749 23.9504 3.00616 23.9504C3.41456 23.9504 3.61903 24.212 3.61903 24.677V26.2176H4.2319V24.677C4.2319 24.183 4.52357 23.9504 4.90299 23.9504C5.31166 23.9504 5.51586 24.212 5.51586 24.677V26.2176H6.18723ZM15.2634 23.4273H14.2713V22.5844H13.6584V23.4273H13.1039V23.9794H13.6583V25.2584C13.6583 25.8979 13.9209 26.2757 14.6214 26.2757C14.8841 26.2757 15.1758 26.1886 15.3803 26.0723L15.205 25.5491C15.03 25.6653 14.8258 25.6944 14.6798 25.6944C14.388 25.6944 14.2713 25.5201 14.2713 25.2293V23.9794H15.2634V23.4273ZM20.4583 23.369C20.1081 23.369 19.8747 23.5435 19.7287 23.776V23.4273H19.1158V26.2176H19.7287V24.648C19.7287 24.183 19.9329 23.9214 20.3123 23.9214C20.4291 23.9214 20.575 23.9505 20.6918 23.9795L20.8668 23.3983C20.7501 23.3691 20.575 23.3691 20.4583 23.3691V23.369ZM12.6077 23.6598C12.3158 23.4563 11.9073 23.3691 11.4695 23.3691C10.7691 23.3691 10.3022 23.7179 10.3022 24.2702C10.3022 24.7353 10.6524 24.9968 11.2653 25.0841L11.5571 25.1132C11.8781 25.1712 12.0532 25.2584 12.0532 25.4038C12.0532 25.6072 11.8198 25.7526 11.4111 25.7526C11.0026 25.7526 10.6815 25.6072 10.4772 25.4619L10.1854 25.9269C10.5064 26.1594 10.9442 26.2757 11.3819 26.2757C12.1991 26.2757 12.6661 25.8979 12.6661 25.3747C12.6661 24.8805 12.2867 24.6189 11.7029 24.5318L11.4111 24.5027C11.1484 24.4735 10.9442 24.4155 10.9442 24.2412C10.9442 24.0377 11.1484 23.9214 11.4695 23.9214C11.8198 23.9214 12.1699 24.0667 12.345 24.1539L12.6077 23.6598ZM28.8926 23.3691C28.5423 23.3691 28.3089 23.5435 28.1629 23.776V23.4273H27.55V26.2176H28.1629V24.648C28.1629 24.183 28.3672 23.9214 28.7465 23.9214C28.8634 23.9214 29.0094 23.9505 29.1261 23.9795L29.3012 23.3983C29.1844 23.3691 29.0094 23.3691 28.8926 23.3691ZM21.0712 24.8224C21.0712 25.6653 21.6548 26.2757 22.5596 26.2757C22.9681 26.2757 23.26 26.1886 23.5518 25.9561L23.26 25.4619C23.0265 25.6363 22.7931 25.7234 22.5304 25.7234C22.0342 25.7234 21.684 25.3747 21.684 24.8224C21.684 24.2993 22.0342 23.9504 22.5304 23.9214C22.7931 23.9214 23.0265 24.0085 23.26 24.183L23.5518 23.6889C23.26 23.4563 22.9681 23.3691 22.5596 23.3691C21.6548 23.3691 21.0712 23.9795 21.0712 24.8224ZM26.733 24.8224V23.4273H26.1201V23.776C25.9158 23.5145 25.624 23.3691 25.2445 23.3691C24.4566 23.3691 23.8437 23.9795 23.8437 24.8224C23.8437 25.6653 24.4566 26.2757 25.2445 26.2757C25.6531 26.2757 25.945 26.1304 26.1201 25.8688V26.2176H26.733V24.8224ZM24.4857 24.8224C24.4857 24.3283 24.8068 23.9214 25.332 23.9214C25.8282 23.9214 26.1785 24.2993 26.1785 24.8224C26.1785 25.3166 25.8282 25.7234 25.332 25.7234C24.8068 25.6943 24.4857 25.3166 24.4857 24.8224ZM17.1605 23.3691C16.3433 23.3691 15.7596 23.9504 15.7596 24.8224C15.7596 25.6944 16.3432 26.2757 17.1896 26.2757C17.5982 26.2757 18.0068 26.1594 18.3279 25.8979L18.0359 25.4619C17.8025 25.6363 17.5107 25.7526 17.2189 25.7526C16.8395 25.7526 16.46 25.5782 16.3724 25.0839H18.4446V24.8516C18.4739 23.9504 17.9485 23.3691 17.1604 23.3691H17.1605ZM17.1605 23.8923C17.5398 23.8923 17.8026 24.1249 17.8609 24.5609H16.4017C16.46 24.183 16.7227 23.8923 17.1605 23.8923ZM32.3655 24.8224V22.3228H31.7527V23.776C31.5483 23.5145 31.2565 23.3691 30.8771 23.3691C30.0891 23.3691 29.4763 23.9795 29.4763 24.8224C29.4763 25.6653 30.0891 26.2757 30.8771 26.2757C31.2858 26.2757 31.5776 26.1304 31.7527 25.8688V26.2176H32.3655V24.8224ZM30.1184 24.8224C30.1184 24.3283 30.4393 23.9214 30.9647 23.9214C31.4608 23.9214 31.811 24.2993 31.811 24.8224C31.811 25.3166 31.4608 25.7234 30.9647 25.7234C30.4393 25.6943 30.1184 25.3166 30.1184 24.8224ZM9.63086 24.8224V23.4273H9.01799V23.776C8.81366 23.5145 8.52185 23.3691 8.14243 23.3691C7.35447 23.3691 6.7416 23.9795 6.7416 24.8224C6.7416 25.6653 7.35447 26.2757 8.14243 26.2757C8.5511 26.2757 8.84291 26.1304 9.01799 25.8688V26.2176H9.63086V24.8224ZM7.35447 24.8224C7.35447 24.3283 7.67553 23.9214 8.20079 23.9214C8.69693 23.9214 9.04724 24.2993 9.04724 24.8224C9.04724 25.3166 8.69693 25.7234 8.20079 25.7234C7.67553 25.6943 7.35447 25.3166 7.35447 24.8224Z" fill="black"/>
<path d="M12.4033 2.23804H21.5964V18.6895H12.4033V2.23804Z" fill="#FF5F00"/>
<path d="M12.9871 10.4638C12.9871 7.12125 14.563 4.15645 16.9853 2.23804C15.2051 0.842888 12.958 0 10.5065 0C4.69862 0 0 4.67958 0 10.4638C0 16.2479 4.69862 20.9276 10.5064 20.9276C12.9579 20.9276 15.205 20.0847 16.9853 18.6895C14.563 16.8002 12.9871 13.8064 12.9871 10.4638Z" fill="#EB001B"/>
<path d="M33.9999 10.4638C33.9999 16.2479 29.3013 20.9276 23.4935 20.9276C21.042 20.9276 18.7949 20.0847 17.0146 18.6895C19.4661 16.7712 21.0129 13.8064 21.0129 10.4638C21.0129 7.12125 19.4369 4.15645 17.0146 2.23804C18.7948 0.842888 21.042 0 23.4935 0C29.3013 0 34 4.70871 34 10.4638H33.9999Z" fill="#F79E1B"/>
</svg>
