<svg width="27" height="29" viewBox="0 0 27 29" fill="none" xmlns="http://www.w3.org/2000/svg">
<path d="M0 22.9564V25.375C0 27.3744 4.53516 29 10.125 29C15.7148 29 20.25 27.3744 20.25 25.375V22.9564C18.0721 24.6047 14.0906 25.375 10.125 25.375C6.15938 25.375 2.17793 24.6047 0 22.9564ZM16.875 7.25C22.4648 7.25 27 5.62441 27 3.625C27 1.62559 22.4648 0 16.875 0C11.2852 0 6.75 1.62559 6.75 3.625C6.75 5.62441 11.2852 7.25 16.875 7.25ZM0 17.0148V19.9375C0 21.9369 4.53516 23.5625 10.125 23.5625C15.7148 23.5625 20.25 21.9369 20.25 19.9375V17.0148C18.0721 18.9406 14.0854 19.9375 10.125 19.9375C6.16465 19.9375 2.17793 18.9406 0 17.0148ZM21.9375 17.6379C24.9592 17.0092 27 15.8424 27 14.5V12.0814C25.7766 13.0104 23.9783 13.6447 21.9375 14.0355V17.6379ZM10.125 9.0625C4.53516 9.0625 0 11.0902 0 13.5938C0 16.0973 4.53516 18.125 10.125 18.125C15.7148 18.125 20.25 16.0973 20.25 13.5938C20.25 11.0902 15.7148 9.0625 10.125 9.0625ZM21.6896 12.2514C24.8537 11.6396 27 10.4389 27 9.0625V6.64395C25.1279 8.06563 21.9111 8.83027 18.5256 9.01152C20.0813 9.82148 21.2256 10.909 21.6896 12.2514Z" fill="#F9B233"/>
</svg>
