<svg width="42" height="38" viewBox="0 0 42 38" fill="none" xmlns="http://www.w3.org/2000/svg">
<path d="M0.166626 19.0003L10.5833 27.3337V21.0837H29.3333V16.917H10.5833V10.667L0.166626 19.0003Z" fill="#33277B" fill-opacity="0.8"/>
<path d="M23.0856 0.248118C20.6221 0.241288 18.1818 0.723349 15.9059 1.66638C13.6301 2.6094 11.5639 3.99465 9.82727 5.74187L12.7731 8.6877C15.5273 5.93354 19.1898 4.41478 23.0856 4.41478C26.9814 4.41478 30.6439 5.93354 33.3981 8.6877C36.1523 11.4419 37.671 15.1044 37.671 19.0002C37.671 22.896 36.1523 26.5585 33.3981 29.3127C30.6439 32.0669 26.9814 33.5856 23.0856 33.5856C19.1898 33.5856 15.5273 32.0669 12.7731 29.3127L9.82727 32.2585C13.3669 35.8002 18.0752 37.7523 23.0856 37.7523C28.096 37.7523 32.8043 35.8002 36.3439 32.2585C39.8856 28.719 41.8377 24.0106 41.8377 19.0002C41.8377 13.9898 39.8856 9.28145 36.3439 5.74187C34.6073 3.99465 32.5411 2.6094 30.2653 1.66638C27.9894 0.723349 25.5491 0.241288 23.0856 0.248118Z" fill="#33277B" fill-opacity="0.8"/>
</svg>
