<svg width="50" height="50" viewBox="0 0 50 50" fill="none" xmlns="http://www.w3.org/2000/svg">
<circle cx="25" cy="25" r="25" fill="white"/>
<circle cx="25" cy="25" r="24.5" stroke="#33277B" stroke-opacity="0.6"/>
<g clip-path="url(#clip0_85_351)">
<path d="M25.0002 36.6286C25.4502 36.6182 25.882 36.4491 26.2192 36.151C26.5565 35.853 26.7775 35.4453 26.8431 35H23.0859C23.1534 35.4574 23.3847 35.8746 23.7369 36.1742C24.089 36.4738 24.538 36.6353 25.0002 36.6286Z" fill="#33277B"/>
<path d="M35.3641 32.0218C34.6754 31.4078 34.0723 30.7039 33.5713 29.929C33.0243 28.8594 32.6965 27.6913 32.607 26.4933V22.9647C32.6041 22.5361 32.5659 22.1085 32.4927 21.6861C31.9305 21.5738 31.3902 21.3711 30.8927 21.0861C31.0823 21.6967 31.1787 22.3325 31.1784 22.9718V26.5004C31.266 27.9619 31.668 29.3872 32.357 30.679C32.8501 31.4604 33.4353 32.1798 34.0999 32.8218H15.807C16.4716 32.1798 17.0567 31.4604 17.5499 30.679C18.2389 29.3872 18.6409 27.9619 18.7284 26.5004V22.9647C18.7247 22.1381 18.884 21.3188 19.1973 20.5538C19.5106 19.7888 19.9718 19.0931 20.5543 18.5066C21.1368 17.9201 21.8294 17.4542 22.5922 17.1357C23.355 16.8172 24.1732 16.6523 24.9999 16.6504C26.2097 16.6514 27.3924 17.0092 28.3999 17.679C28.2888 17.2711 28.2264 16.8515 28.2141 16.429V15.979C27.4683 15.6121 26.6671 15.3708 25.8427 15.2647V14.3647C25.8427 14.1118 25.7423 13.8693 25.5634 13.6904C25.3846 13.5116 25.142 13.4111 24.8891 13.4111C24.6362 13.4111 24.3937 13.5116 24.2149 13.6904C24.036 13.8693 23.9356 14.1118 23.9356 14.3647V15.3004C22.0897 15.5608 20.4003 16.4802 19.1793 17.8889C17.9583 19.2976 17.2882 21.1005 17.2927 22.9647V26.4933C17.2033 27.6913 16.8754 28.8594 16.3284 29.929C15.8362 30.7021 15.2429 31.4059 14.5641 32.0218C14.488 32.0888 14.4269 32.1712 14.385 32.2635C14.3431 32.3559 14.3214 32.4561 14.3213 32.5576V33.529C14.3213 33.7184 14.3965 33.9001 14.5305 34.0341C14.6645 34.168 14.8461 34.2433 15.0356 34.2433H34.8927C35.0822 34.2433 35.2638 34.168 35.3978 34.0341C35.5317 33.9001 35.607 33.7184 35.607 33.529V32.5576C35.6069 32.4561 35.5852 32.3559 35.5433 32.2635C35.5014 32.1712 35.4403 32.0888 35.3641 32.0218Z" fill="#33277B"/>
<path d="M33.5714 20.0003C35.5439 20.0003 37.1429 18.4013 37.1429 16.4289C37.1429 14.4564 35.5439 12.8574 33.5714 12.8574C31.599 12.8574 30 14.4564 30 16.4289C30 18.4013 31.599 20.0003 33.5714 20.0003Z" fill="#33277B"/>
</g>
<defs>
<clipPath id="clip0_85_351">
<rect width="25.7143" height="25.7143" fill="white" transform="translate(12.1427 12.1431)"/>
</clipPath>
</defs>
</svg>
