<svg width="50" height="50" viewBox="0 0 50 50" fill="none" xmlns="http://www.w3.org/2000/svg">
<circle cx="25" cy="25" r="25" fill="white"/>
<circle cx="25" cy="25" r="24.5" stroke="#33277B" stroke-opacity="0.6"/>
<path d="M36.5596 32.0534C35.8212 31.4247 35.1747 30.704 34.6376 29.9107C34.0511 28.8157 33.6997 27.6198 33.6038 26.3933V22.7808C33.6088 20.8543 32.8771 18.9924 31.5459 17.5449C30.2148 16.0973 28.376 15.1637 26.3749 14.9196V13.9763C26.3749 13.7173 26.2672 13.469 26.0754 13.2859C25.8837 13.1029 25.6237 13 25.3526 13C25.0814 13 24.8214 13.1029 24.6297 13.2859C24.438 13.469 24.3303 13.7173 24.3303 13.9763V14.9342C22.3471 15.196 20.5305 16.1352 19.2168 17.5779C17.9032 19.0206 17.1816 20.869 17.1856 22.7808V26.3933C17.0897 27.6198 16.7382 28.8157 16.1518 29.9107C15.6241 30.7022 14.988 31.4228 14.2604 32.0534C14.1787 32.1219 14.1132 32.2062 14.0683 32.3008C14.0234 32.3954 14.0001 32.498 14 32.6018V33.5963C14 33.7903 14.0807 33.9763 14.2243 34.1134C14.3679 34.2506 14.5627 34.3276 14.7658 34.3276H36.0542C36.2573 34.3276 36.4521 34.2506 36.5957 34.1134C36.7393 33.9763 36.82 33.7903 36.82 33.5963V32.6018C36.8199 32.498 36.7966 32.3954 36.7517 32.3008C36.7068 32.2062 36.6413 32.1219 36.5596 32.0534ZM15.5928 32.8651C16.3053 32.2078 16.9326 31.4713 17.4613 30.6713C18.2 29.3487 18.631 27.8895 18.7248 26.3933V22.7808C18.6944 21.9238 18.845 21.0697 19.1675 20.2694C19.4899 19.469 19.9778 18.7389 20.6019 18.1224C21.226 17.5058 21.9737 17.0156 22.8004 16.6807C23.6271 16.3459 24.5159 16.1733 25.4138 16.1733C26.3118 16.1733 27.2006 16.3459 28.0273 16.6807C28.854 17.0156 29.6016 17.5058 30.2257 18.1224C30.8499 18.7389 31.3377 19.469 31.6602 20.2694C31.9827 21.0697 32.1332 21.9238 32.1028 22.7808V26.3933C32.1967 27.8895 32.6277 29.3487 33.3664 30.6713C33.8951 31.4713 34.5224 32.2078 35.2349 32.8651H15.5928Z" fill="#33277B"/>
<path d="M25.4483 36.7698C25.9307 36.7592 26.3936 36.5861 26.7551 36.2809C27.1167 35.9758 27.3536 35.5584 27.424 35.1025H23.396C23.4683 35.5708 23.7163 35.998 24.0938 36.3047C24.4714 36.6114 24.9527 36.7767 25.4483 36.7698Z" fill="#33277B"/>
</svg>
