<svg width="25" height="25" viewBox="0 0 25 25" fill="none" xmlns="http://www.w3.org/2000/svg">
<path fill-rule="evenodd" clip-rule="evenodd" d="M12.5 0C10.4379 0.00646643 8.44606 0.750211 6.88438 2.09688C5.6875 3.12813 4.82031 4.47187 4.59687 5.82031C1.97812 6.39844 0 8.67969 0 11.4344C0 14.6344 2.66875 17.1875 5.90781 17.1875H11.7188V8.59375C11.7188 8.38655 11.8011 8.18784 11.9476 8.04132C12.0941 7.89481 12.2928 7.8125 12.5 7.8125C12.7072 7.8125 12.9059 7.89481 13.0524 8.04132C13.1989 8.18784 13.2812 8.38655 13.2812 8.59375V17.1875H19.825C22.6594 17.1875 25 14.9531 25 12.1453C25 9.58906 23.0594 7.50625 20.5719 7.15469C20.1922 3.12344 16.7031 0 12.5 0ZM11.9469 24.7719C12.0194 24.8446 12.1057 24.9024 12.2006 24.9417C12.2955 24.9811 12.3972 25.0014 12.5 25.0014C12.6028 25.0014 12.7045 24.9811 12.7994 24.9417C12.8943 24.9024 12.9806 24.8446 13.0531 24.7719L17.7406 20.0844C17.8873 19.9377 17.9697 19.7387 17.9697 19.5312C17.9697 19.3238 17.8873 19.1248 17.7406 18.9781C17.5939 18.8314 17.395 18.749 17.1875 18.749C16.98 18.749 16.7811 18.8314 16.6344 18.9781L13.2812 22.3328V17.1875H11.7188V22.3328L8.36563 18.9781C8.21893 18.8314 8.01996 18.749 7.8125 18.749C7.60504 18.749 7.40607 18.8314 7.25937 18.9781C7.11268 19.1248 7.03026 19.3238 7.03026 19.5312C7.03026 19.7387 7.11268 19.9377 7.25937 20.0844L11.9469 24.7719Z" fill="#03B66B"/>
</svg>
