<svg width="20" height="19" viewBox="0 0 20 19" fill="none" xmlns="http://www.w3.org/2000/svg">
<path d="M9.83155 13.3957C9.85156 13.4213 9.87712 13.442 9.90631 13.4562C9.9355 13.4704 9.96754 13.4778 10 13.4778C10.0325 13.4778 10.0645 13.4704 10.0937 13.4562C10.1229 13.442 10.1484 13.4213 10.1684 13.3957L13.1631 9.60695C13.2727 9.46791 13.1738 9.26203 12.9947 9.26203H11.0134V0.213904C11.0134 0.0962567 10.9171 0 10.7995 0H9.19519C9.07754 0 8.98128 0.0962567 8.98128 0.213904V9.25936H7.00535C6.8262 9.25936 6.72727 9.46524 6.8369 9.60428L9.83155 13.3957ZM19.7861 12.4599H18.1818C18.0642 12.4599 17.9679 12.5561 17.9679 12.6738V16.7914H2.03209V12.6738C2.03209 12.5561 1.93583 12.4599 1.81818 12.4599H0.213904C0.0962567 12.4599 0 12.5561 0 12.6738V17.9679C0 18.4412 0.382353 18.8235 0.855615 18.8235H19.1444C19.6176 18.8235 20 18.4412 20 17.9679V12.6738C20 12.5561 19.9037 12.4599 19.7861 12.4599Z" fill="#059157"/>
</svg>
