<svg width="60" height="60" viewBox="0 0 60 60" fill="none" xmlns="http://www.w3.org/2000/svg">
<path d="M11.25 9.375C11.25 6.8886 12.2377 4.50403 13.9959 2.74587C15.754 0.98772 18.1386 0 20.625 0C23.1114 0 25.496 0.98772 27.2541 2.74587C29.0123 4.50403 30 6.8886 30 9.375C30 6.8886 30.9877 4.50403 32.7459 2.74587C34.504 0.98772 36.8886 0 39.375 0C41.8614 0 44.246 0.98772 46.0041 2.74587C47.7623 4.50403 48.75 6.8886 48.75 9.375V9.3975C48.75 9.66 48.75 10.41 48.6075 11.25H56.25C57.2446 11.25 58.1984 11.6451 58.9016 12.3483C59.6049 13.0516 60 14.0054 60 15V18.75C60 19.7446 59.6049 20.6984 58.9016 21.4016C58.1984 22.1049 57.2446 22.5 56.25 22.5H3.75C2.75544 22.5 1.80161 22.1049 1.09835 21.4016C0.395088 20.6984 0 19.7446 0 18.75V15C0 14.0054 0.395088 13.0516 1.09835 12.3483C1.80161 11.6451 2.75544 11.25 3.75 11.25H11.3925C11.2935 10.6376 11.2458 10.0179 11.25 9.3975V9.375ZM15.255 11.25H26.25V9.375C26.25 8.63631 26.1045 7.90486 25.8218 7.22241C25.5391 6.53995 25.1248 5.91985 24.6025 5.39752C24.0801 4.87519 23.4601 4.46086 22.7776 4.17818C22.0951 3.89549 21.3637 3.75 20.625 3.75C19.8863 3.75 19.1549 3.89549 18.4724 4.17818C17.7899 4.46086 17.1699 4.87519 16.6475 5.39752C16.1252 5.91985 15.7109 6.53995 15.4282 7.22241C15.1455 7.90486 15 8.63631 15 9.375C15 9.69375 15.0075 10.4025 15.1688 10.9875C15.1913 11.0769 15.2201 11.1646 15.255 11.25ZM33.75 11.25H44.745C44.7795 11.1645 44.8083 11.0768 44.8312 10.9875C44.9925 10.4025 45 9.69375 45 9.375C45 7.88316 44.4074 6.45242 43.3525 5.39752C42.2976 4.34263 40.8668 3.75 39.375 3.75C37.8832 3.75 36.4524 4.34263 35.3975 5.39752C34.3426 6.45242 33.75 7.88316 33.75 9.375V11.25ZM56.25 26.25V54.375C56.25 55.8668 55.6574 57.2976 54.6025 58.3525C53.5476 59.4074 52.1168 60 50.625 60H33.75V26.25H56.25ZM9.375 60C7.88316 60 6.45242 59.4074 5.39752 58.3525C4.34263 57.2976 3.75 55.8668 3.75 54.375V26.25H26.25V60H9.375Z" fill="white"/>
</svg>
