<svg width="71" height="71" viewBox="0 0 71 71" fill="none"
    xmlns="http://www.w3.org/2000/svg">
    <circle cx="35.5" cy="35.5" r="35" fill="white" stroke="#EBA10F"/>
    <path d="M36.5776 41.8882L36.8931 41.5347C40.3448 37.6673 40.9697 34.847 40.4085 33.078C39.8534 31.3282 38.0473 30.3485 36.0004 30.3485C34.2869 30.3485 33.0118 30.9939 32.2511 31.9608C31.4897 32.9285 31.1992 34.2742 31.5644 35.7644C32.0017 37.4086 33.1722 39.3332 35.1102 41.5375L35.421 41.8911L35.0868 42.2227C32.871 44.4203 30.8887 45.5136 29.0704 45.6654C27.2354 45.9054 25.5783 45.2305 24.5413 44.0571C23.4974 42.8759 23.0932 41.1981 23.765 39.5092L23.7702 39.4961L23.7704 39.4962C24.2893 38.2917 26.1808 34.7905 27.9569 31.5469C28.5846 30.4005 29.2012 29.2805 29.7424 28.2974C29.9703 27.8835 30.1847 27.4939 30.3811 27.1368C31.0541 25.9127 31.4948 25.1044 31.5533 24.9733L31.5645 24.9483L31.5783 24.9247C31.682 24.7476 31.7844 24.5668 31.8871 24.3855C32.2815 23.6892 32.681 22.9837 33.1791 22.4378C33.8475 21.7052 34.7109 21.2278 35.997 21.2278C37.2322 21.2278 38.0902 21.6832 38.777 22.4216C39.3567 23.0448 39.8208 23.8814 40.3058 24.7557C40.3655 24.8633 40.4255 24.9716 40.4862 25.0801C40.4865 25.0807 40.4868 25.0812 40.4871 25.0818L40.0506 25.3257L36.5776 41.8882ZM36.5776 41.8882L36.9135 42.2222M36.5776 41.8882L36.9135 42.2222M36.9135 42.2222C38.1296 43.4316 39.4767 44.5124 40.9069 45.1462M36.9135 42.2222L40.9069 45.1462M40.9069 45.1462C42.3481 45.7847 43.8931 45.9761 45.4573 45.3669L40.9069 45.1462ZM35.627 40.8324L35.7761 40.9999H36.0004H36.0044H36.2295L36.3787 40.8314C38.0593 38.9335 39.1135 37.1973 39.5089 35.6308C39.9247 34.1708 39.6232 32.9931 38.8733 32.186C38.1433 31.4004 37.0521 31.0348 36.0024 31.0348C34.9527 31.0348 33.8615 31.4004 33.1315 32.186C32.3824 32.9923 32.0807 34.1684 32.4946 35.6264C32.8554 37.1701 33.9145 38.9094 35.627 40.8324ZM47.9791 36.9325C47.9841 36.944 47.989 36.9547 47.993 36.9631C48.0041 36.9869 48.0186 37.0164 48.0345 37.0482C48.0668 37.1129 48.1121 37.2017 48.165 37.3047C48.1836 37.3411 48.2033 37.3795 48.2239 37.4195C48.3207 37.608 48.4363 37.8331 48.5519 38.0625C48.6926 38.3415 48.8304 38.6209 48.9322 38.8429C48.9834 38.9547 49.0225 39.0453 49.0478 39.111C49.054 39.1271 49.0587 39.14 49.0623 39.1502L49.062 39.1955L49.0994 39.2875C49.8738 41.1912 49.4651 42.9544 48.388 44.2557C47.3002 45.57 45.5169 46.4243 43.546 46.4229H43.5456C43.5308 46.4229 43.5152 46.423 43.4987 46.423C43.1203 46.4239 42.3061 46.4258 41.137 46.0137C39.9123 45.5821 38.2732 44.6864 36.349 42.8146L36.0001 42.4752L35.6515 42.8148C32.27 46.109 29.7835 46.4229 28.4551 46.4229C26.484 46.4229 24.7005 45.5684 23.6125 44.2545C22.5352 42.9536 22.1262 41.1911 22.9 39.2873L22.9001 39.2874L22.9043 39.2765L22.9044 39.276C22.9499 39.1561 23.6274 37.3711 30.7523 24.6182L30.7523 24.6183L30.7561 24.6112C31.4203 23.376 32.0426 22.3531 32.8444 21.6324C33.6237 20.9319 34.5929 20.5 36.0004 20.5C36.8345 20.5 37.3825 20.5203 37.9185 20.7531C38.4496 20.9837 39.0264 21.4517 39.8105 22.4815C41.3912 24.5574 43.6491 28.6848 47.9791 36.9325Z" fill="#EBA10F" stroke="#EBA10F"/>
</svg>
