<svg width="30" height="27" viewBox="0 0 30 27" fill="none" xmlns="http://www.w3.org/2000/svg">
<path d="M0 13.4998L7.49917 19.4992V14.9997H20.9977V12H7.49917V7.50049L0 13.4998Z" />
<path d="M16.5 5.1536e-05C14.7265 -0.00486597 12.9696 0.34218 11.3312 1.02108C9.69278 1.69999 8.20535 2.69726 6.95508 3.95511L9.07584 6.07588C11.0586 4.0931 13.6953 2.99972 16.5 2.99972C19.3047 2.99972 21.9414 4.0931 23.9242 6.07588C25.907 8.05866 27.0004 10.6954 27.0004 13.5001C27.0004 16.3048 25.907 18.9415 23.9242 20.9242C21.9414 22.907 19.3047 24.0004 16.5 24.0004C13.6953 24.0004 11.0586 22.907 9.07584 20.9242L6.95508 23.045C9.5033 25.5947 12.8929 27.0001 16.5 27.0001C20.1071 27.0001 23.4968 25.5947 26.045 23.045C28.5947 20.4968 30 17.1072 30 13.5001C30 9.89296 28.5947 6.50333 26.045 3.95511C24.7947 2.69726 23.3073 1.69999 21.6688 1.02108C20.0304 0.34218 18.2735 -0.00486597 16.5 5.1536e-05V5.1536e-05Z"/>
</svg>
