<svg width="50" height="37" viewBox="0 0 50 37" fill="none" xmlns="http://www.w3.org/2000/svg">
<path d="M9.09982 35.9748V33.6486C9.09982 32.7567 8.49884 32.1753 7.46873 32.1753C6.95377 32.1753 6.39579 32.3304 6.00948 32.8345C5.70918 32.4079 5.28005 32.1753 4.63625 32.1753C4.20692 32.1753 3.77798 32.2915 3.43448 32.7181V32.2529H2.5332V35.9748H3.43448V33.9199C3.43448 33.261 3.8208 32.9507 4.42178 32.9507C5.02237 32.9507 5.32306 33.2997 5.32306 33.9199V35.9748H6.22434V33.9199C6.22434 33.261 6.65327 32.9507 7.21125 32.9507C7.81223 32.9507 8.11252 33.2997 8.11252 33.9199V35.9748H9.09982ZM22.4471 32.2529H20.9881V31.1285H20.0868V32.2529H19.2714V32.9893H20.0866V34.6954C20.0866 35.5485 20.4729 36.0524 21.503 36.0524C21.8894 36.0524 22.3183 35.9362 22.619 35.7811L22.3613 35.0831C22.1038 35.2382 21.8035 35.277 21.5889 35.277C21.1597 35.277 20.9881 35.0444 20.9881 34.6566V32.9893H22.4471V32.2529ZM30.0867 32.1751C29.5717 32.1751 29.2284 32.4079 29.0138 32.7181V32.2529H28.1125V35.9748H29.0138V33.8812C29.0138 33.261 29.3141 32.912 29.872 32.912C30.0437 32.912 30.2583 32.9508 30.43 32.9895L30.6875 32.2142C30.5158 32.1753 30.2583 32.1753 30.0867 32.1753V32.1751ZM18.5417 32.563C18.1124 32.2915 17.5116 32.1753 16.8678 32.1753C15.8379 32.1753 15.1513 32.6405 15.1513 33.3772C15.1513 33.9976 15.6662 34.3464 16.5675 34.4628L16.9967 34.5017C17.4688 34.579 17.7263 34.6954 17.7263 34.8894C17.7263 35.1606 17.383 35.3546 16.782 35.3546C16.1812 35.3546 15.7091 35.1606 15.4086 34.9669L14.9794 35.5872C15.4516 35.8973 16.0954 36.0524 16.739 36.0524C17.9408 36.0524 18.6276 35.5485 18.6276 34.8505C18.6276 34.1914 18.0696 33.8424 17.2111 33.7262L16.782 33.6873C16.3957 33.6485 16.0954 33.5711 16.0954 33.3385C16.0954 33.0671 16.3957 32.912 16.8678 32.912C17.383 32.912 17.8979 33.1057 18.1554 33.2221L18.5417 32.563ZM42.4901 32.1753C41.975 32.1753 41.6317 32.4079 41.417 32.7181V32.2529H40.5157V35.9748H41.417V33.8812C41.417 33.261 41.7175 32.912 42.2753 32.912C42.4471 32.912 42.6618 32.9508 42.8334 32.9895L43.0909 32.2142C42.9192 32.1753 42.6618 32.1753 42.4901 32.1753ZM30.988 34.1138C30.988 35.2382 31.8462 36.0524 33.1768 36.0524C33.7776 36.0524 34.2068 35.9362 34.6359 35.626L34.2068 34.9669C33.8635 35.1995 33.5202 35.3157 33.1338 35.3157C32.4042 35.3157 31.8892 34.8505 31.8892 34.1138C31.8892 33.416 32.4042 32.9507 33.1338 32.912C33.5202 32.912 33.8635 33.0282 34.2068 33.261L34.6359 32.6018C34.2068 32.2915 33.7776 32.1753 33.1768 32.1753C31.8462 32.1753 30.988 32.9895 30.988 34.1138ZM39.3141 34.1138V32.2529H38.4129V32.7181C38.1124 32.3692 37.6832 32.1753 37.1253 32.1753C35.9665 32.1753 35.0652 32.9895 35.0652 34.1138C35.0652 35.2382 35.9665 36.0524 37.1253 36.0524C37.7261 36.0524 38.1554 35.8586 38.4129 35.5096V35.9748H39.3141V34.1138ZM36.0093 34.1138C36.0093 33.4547 36.4815 32.912 37.2539 32.912C37.9835 32.912 38.4987 33.416 38.4987 34.1138C38.4987 34.773 37.9835 35.3157 37.2539 35.3157C36.4815 35.2769 36.0093 34.773 36.0093 34.1138ZM25.237 32.1753C24.0352 32.1753 23.1768 32.9507 23.1768 34.1138C23.1768 35.277 24.035 36.0524 25.2798 36.0524C25.8806 36.0524 26.4816 35.8973 26.9537 35.5485L26.5244 34.9669C26.1811 35.1995 25.752 35.3546 25.3228 35.3546C24.7649 35.3546 24.2069 35.122 24.078 34.4627H27.1254V34.1527C27.1684 32.9507 26.3958 32.1753 25.2368 32.1753H25.237ZM25.237 32.8731C25.7948 32.8731 26.1813 33.1834 26.2669 33.765H24.1211C24.2069 33.261 24.5932 32.8731 25.237 32.8731ZM47.5973 34.1138V30.7795H46.696V32.7181C46.3955 32.3692 45.9664 32.1753 45.4084 32.1753C44.2497 32.1753 43.3484 32.9895 43.3484 34.1138C43.3484 35.2382 44.2497 36.0524 45.4084 36.0524C46.0094 36.0524 46.4385 35.8586 46.696 35.5096V35.9748H47.5973V34.1138ZM44.2927 34.1138C44.2927 33.4547 44.7646 32.912 45.5373 32.912C46.2669 32.912 46.7818 33.416 46.7818 34.1138C46.7818 34.773 46.2669 35.3157 45.5373 35.3157C44.7646 35.2769 44.2927 34.773 44.2927 34.1138ZM14.164 34.1138V32.2529H13.2627V32.7181C12.9622 32.3692 12.5331 32.1753 11.9751 32.1753C10.8164 32.1753 9.91508 32.9895 9.91508 34.1138C9.91508 35.2382 10.8164 36.0524 11.9751 36.0524C12.5761 36.0524 13.0052 35.8586 13.2627 35.5096V35.9748H14.164V34.1138ZM10.8164 34.1138C10.8164 33.4547 11.2885 32.912 12.0609 32.912C12.7906 32.912 13.3057 33.416 13.3057 34.1138C13.3057 34.773 12.7906 35.3157 12.0609 35.3157C11.2885 35.2769 10.8164 34.773 10.8164 34.1138Z" fill="white"/>
<path d="M19.0987 13.9575C19.0987 9.49891 21.4162 5.54421 24.9783 2.98528C22.3605 1.12431 19.0558 0 15.4507 0C6.90972 0 0 6.24201 0 13.9575C0 21.6728 6.90972 27.915 15.4505 27.915C19.0557 27.915 22.3603 26.7907 24.9783 24.9295C21.4162 22.4094 19.0987 18.4161 19.0987 13.9575Z" fill="#EB001B"/>
<path d="M49.9988 13.9575C49.9988 21.6728 43.0891 27.915 34.5483 27.915C30.9431 27.915 27.6385 26.7907 25.0205 24.9295C28.6256 22.3708 30.9003 18.4161 30.9003 13.9575C30.9003 9.49891 28.5826 5.54421 25.0205 2.98528C27.6383 1.12431 30.9431 0 34.5483 0C43.0891 0 49.999 6.28086 49.999 13.9575H49.9988Z" fill="#F79E1B"/>
</svg>
