<svg width="32" height="28" viewBox="0 0 32 28" fill="none" xmlns="http://www.w3.org/2000/svg">
<path d="M12.2646 0C10.6382 0 9.07841 0.646078 7.92839 1.7961C6.77836 2.94613 6.13228 4.5059 6.13228 6.13228C6.13228 7.75867 6.77836 9.31844 7.92839 10.4685C9.07841 11.6185 10.6382 12.2646 12.2646 12.2646C13.891 12.2646 15.4507 11.6185 16.6007 10.4685C17.7508 9.31844 18.3969 7.75867 18.3969 6.13228C18.3969 4.5059 17.7508 2.94613 16.6007 1.7961C15.4507 0.646078 13.891 0 12.2646 0ZM12.2646 3.06614C13.0778 3.06614 13.8576 3.38918 14.4327 3.96419C15.0077 4.53921 15.3307 5.31909 15.3307 6.13228C15.3307 6.94548 15.0077 7.72536 14.4327 8.30037C13.8576 8.87539 13.0778 9.19843 12.2646 9.19843C11.4514 9.19843 10.6715 8.87539 10.0965 8.30037C9.52147 7.72536 9.19843 6.94548 9.19843 6.13228C9.19843 5.31909 9.52147 4.53921 10.0965 3.96419C10.6715 3.38918 11.4514 3.06614 12.2646 3.06614ZM22.9961 12.2646C22.7508 12.2646 22.6281 12.3872 22.6281 12.6325L22.2295 14.5642C21.8923 14.8401 21.4017 15.0854 21.0337 15.3307L19.0714 14.5642C18.9488 14.5642 18.7035 14.5642 18.5808 14.7175L17.1091 17.4157C16.9864 17.5383 16.9864 17.7836 17.2317 17.9063L18.8261 19.1634V20.6965L17.2317 21.9536C17.1091 22.0762 16.9864 22.3215 17.1091 22.4442L18.5808 25.1424C18.7035 25.2957 18.9488 25.2957 19.0714 25.2957L21.0337 24.5291C21.4017 24.7744 21.8923 25.0197 22.2295 25.2957L22.6281 27.2273C22.6281 27.4726 22.7508 27.5953 22.9961 27.5953H26.0622C26.1849 27.5953 26.4301 27.4726 26.4301 27.2273L26.6754 25.2957C27.166 25.0197 27.6566 24.7744 28.0245 24.5291L29.8949 25.2957C30.1095 25.2957 30.3548 25.2957 30.3548 25.1424L31.9492 22.4442C32.0718 22.3215 31.9492 22.0762 31.8266 21.9536L30.2322 20.6965V19.1634L31.8266 17.9063C31.9492 17.7836 32.0718 17.5383 31.9492 17.4157L30.3548 14.7175C30.3548 14.5642 30.1095 14.5642 29.8949 14.5642L28.0245 15.3307C27.6566 15.0854 27.166 14.8401 26.6754 14.5642L26.4301 12.6325C26.4301 12.3872 26.1849 12.2646 26.0622 12.2646H22.9961ZM12.2646 13.7976C8.17127 13.7976 0 15.8366 0 19.9299V24.5291H14.8248C14.3955 23.6246 14.0889 22.6435 13.9356 21.6163H2.91284V19.9299C2.91284 18.9488 7.71135 16.7105 12.2646 16.7105C12.9238 16.7105 13.5983 16.7718 14.2576 16.8638C14.5642 15.8826 14.9781 14.9628 15.5147 14.1196C14.3189 13.9203 13.1844 13.7976 12.2646 13.7976ZM24.5905 17.6303C25.8169 17.6303 26.8287 18.6421 26.8287 19.9912C26.8287 21.2177 25.8169 22.2295 24.5905 22.2295C23.2414 22.2295 22.2295 21.2177 22.2295 19.9912C22.2295 18.6421 23.2414 17.6303 24.5905 17.6303Z" />
</svg>
