<svg width="10" height="12" viewBox="0 0 10 12" fill="none" xmlns="http://www.w3.org/2000/svg">
<path d="M1.82988 12V7.888H0.581875V6.864H1.82988V5.552H0.581875V4.528H1.82988V0.575999H3.49388L5.01388 4.528H6.90188V0.575999H8.16588V4.528H9.41388V5.552H8.16588V6.864H9.41388V7.888H8.16588V12H6.48588L4.96588 7.888H3.07788V12H1.82988ZM3.07788 6.864H4.58188L4.10188 5.552H3.04588L3.07788 6.864ZM6.90188 9.744H6.96588L6.91788 7.888H6.24588L6.90188 9.744ZM3.04588 4.528H3.71788L3.04588 2.544H2.98188L3.04588 4.528ZM5.86188 6.864H6.93388L6.90188 5.552H5.38188L5.86188 6.864Z" fill="#333333"/>
</svg>
