<svg width="22" height="23" viewBox="0 0 22 23" fill="none" xmlns="http://www.w3.org/2000/svg">
<path d="M3.85693 21.1969V2.7706C3.85683 2.37899 3.96714 1.99843 4.17053 1.68869C4.37393 1.37895 4.65888 1.15758 4.98064 1.05934C5.30241 0.961101 5.64276 0.99156 5.94823 1.14593C6.25371 1.30031 6.50702 1.56985 6.66836 1.91223L15.3312 20.2847C15.4926 20.6271 15.7459 20.8966 16.0514 21.051C16.3568 21.2054 16.6972 21.2358 17.0189 21.1376C17.3407 21.0394 17.6257 20.818 17.8291 20.5082C18.0324 20.1985 18.1428 19.818 18.1427 19.4263V1" stroke="#FFF" stroke-width="2" stroke-linecap="round" stroke-linejoin="round"/>
<path d="M1 7.73242H21" stroke="#FFF" stroke-width="2" stroke-linecap="round" stroke-linejoin="round"/>
<path d="M1 14.4648H21" stroke="#FFF" stroke-width="2" stroke-linecap="round" stroke-linejoin="round"/>
</svg>
