<svg width="20" height="25" viewBox="0 0 20 25" fill="none" xmlns="http://www.w3.org/2000/svg">
<path d="M17.1429 6.25H14.2857C14.2857 5.75754 14.1749 5.26991 13.9595 4.81494C13.7441 4.35997 13.4284 3.94657 13.0305 3.59835C12.6325 3.25013 12.16 2.97391 11.6401 2.78545C11.1201 2.597 10.5628 2.5 10 2.5C9.43719 2.5 8.8799 2.597 8.35993 2.78545C7.83996 2.97391 7.36751 3.25013 6.96954 3.59835C6.57158 3.94657 6.25589 4.35997 6.04052 4.81494C5.82514 5.26991 5.71429 5.75754 5.71429 6.25V12.5H17.1429C17.9006 12.5 18.6273 12.7634 19.1632 13.2322C19.699 13.7011 20 14.337 20 15V22.5C20 23.163 19.699 23.7989 19.1632 24.2678C18.6273 24.7366 17.9006 25 17.1429 25H2.85714C2.09938 25 1.37266 24.7366 0.836838 24.2678C0.30102 23.7989 0 23.163 0 22.5V15C0 14.337 0.30102 13.7011 0.836838 13.2322C1.37266 12.7634 2.09938 12.5 2.85714 12.5V6.25C2.85714 4.5924 3.60969 3.00269 4.94924 1.83058C6.28878 0.65848 8.1056 0 10 0C11.8944 0 13.7112 0.65848 15.0508 1.83058C16.3903 3.00269 17.1429 4.5924 17.1429 6.25V6.25ZM10 21.25C10.7578 21.25 11.4845 20.9866 12.0203 20.5178C12.5561 20.0489 12.8571 19.413 12.8571 18.75C12.8571 18.087 12.5561 17.4511 12.0203 16.9822C11.4845 16.5134 10.7578 16.25 10 16.25C9.24224 16.25 8.51551 16.5134 7.97969 16.9822C7.44388 17.4511 7.14286 18.087 7.14286 18.75C7.14286 19.413 7.44388 20.0489 7.97969 20.5178C8.51551 20.9866 9.24224 21.25 10 21.25V21.25Z" fill="#33277B"/>
</svg>
