<svg width="396" height="190" viewBox="0 0 396 190" fill="none" xmlns="http://www.w3.org/2000/svg">
<rect opacity="0.5" x="17.1392" y="8.85547" width="359.918" height="181.144" rx="20" fill="url(#paint0_linear_106_283)"/>
<rect width="396" height="181.144" rx="20" fill="url(#paint1_linear_106_283)"/>
<mask id="mask0_106_283" style="mask-type:alpha" maskUnits="userSpaceOnUse" x="0" y="0" width="396" height="182">
<rect width="396" height="181.144" rx="20" fill="url(#paint2_linear_106_283)"/>
</mask>
<g mask="url(#mask0_106_283)">
<path d="M391.992 -9.15845C408.085 -11.6235 421.378 2.64775 415.724 16.3186L368.876 129.589C363.308 143.051 343.482 145.843 333.042 134.635L246.556 41.789C236.116 30.5813 242.812 13.6937 258.658 11.2663L391.992 -9.15845Z" fill="url(#paint3_linear_106_283)"/>
<path d="M120.402 195.736C115.414 209.119 97.7688 212.352 87.2768 201.806L-2.32044 111.742C-13.6964 100.307 -8.21242 81.5483 7.33963 78.6988L139.53 54.478C155.082 51.6284 168.403 66.9412 162.995 81.4516L120.402 195.736Z" fill="url(#paint4_linear_106_283)"/>
<path opacity="0.5" d="M287.156 129.707L370.907 215.621C375.689 220.526 373.272 228.484 366.65 229.635L241.409 251.412C234.787 252.563 229.2 245.998 231.569 239.849L273.059 132.158C275.242 126.491 282.749 125.186 287.156 129.707Z" stroke="url(#paint5_linear_106_283)" stroke-width="27" stroke-linejoin="round"/>
<path d="M54.1444 98.6893C55.9444 98.6893 57.4244 99.2093 58.5844 100.329H58.7244V97.0893C57.4644 96.3693 56.0044 96.0493 54.0244 96.0493C49.5044 96.0493 46.6244 98.7093 46.6244 102.889C46.6244 107.069 49.5044 109.729 54.0244 109.729C56.0044 109.729 57.4644 109.409 58.7244 108.689V102.169H52.9444V104.649H55.8644V106.909C55.3244 107.029 54.7644 107.089 54.1444 107.089C51.4044 107.089 49.6244 105.449 49.6244 102.889C49.6244 100.329 51.4044 98.6893 54.1444 98.6893ZM70.2683 105.489V104.429C70.2683 101.669 68.4483 99.9293 65.5283 99.9293C62.6683 99.9293 60.6283 101.949 60.6283 104.829C60.6283 107.729 62.8883 109.729 66.2083 109.729C67.6683 109.729 68.9283 109.409 69.7083 108.849V106.329H69.6083C68.8483 107.069 67.6883 107.469 66.3283 107.469C64.7083 107.469 63.5483 106.769 63.2683 105.489H70.2683ZM65.6083 102.189C66.8483 102.189 67.7283 102.769 67.9083 103.909H63.2683C63.5283 102.809 64.4883 102.189 65.6083 102.189ZM77.9886 106.869H77.8886C77.4886 107.289 77.0486 107.409 76.5686 107.409C75.7486 107.409 75.2686 106.909 75.2686 106.009V102.349H77.9686V100.129H75.2686V97.4893H73.0686L72.7286 100.129H71.0886V102.349H72.6486V106.109C72.6486 108.489 73.8686 109.729 76.1486 109.729C76.9486 109.729 77.5286 109.629 77.9886 109.409V106.869ZM88.4356 95.3293C86.1156 95.3293 84.8556 96.6493 84.8556 99.0093V100.129H83.2956V102.349H84.8556V109.529H87.4756V102.349H90.1756V100.129H87.4756V99.0893C87.4756 98.1693 87.9756 97.6493 88.8356 97.6493C89.3356 97.6493 89.8756 97.7693 90.2956 98.0493H90.3956V95.6493C89.9356 95.4493 89.2756 95.3293 88.4356 95.3293ZM96.738 99.9293C95.378 99.9293 94.458 100.489 93.938 101.589H93.898L93.778 100.129H91.598V109.529H94.218V105.489C94.218 103.389 94.938 102.409 96.538 102.409C97.118 102.409 97.618 102.569 98.018 102.849H98.118V100.289C97.838 100.069 97.338 99.9293 96.738 99.9293ZM108.471 105.489V104.429C108.471 101.669 106.651 99.9293 103.731 99.9293C100.871 99.9293 98.8314 101.949 98.8314 104.829C98.8314 107.729 101.091 109.729 104.411 109.729C105.871 109.729 107.131 109.409 107.911 108.849V106.329H107.811C107.051 107.069 105.891 107.469 104.531 107.469C102.911 107.469 101.751 106.769 101.471 105.489H108.471ZM103.811 102.189C105.051 102.189 105.931 102.769 106.111 103.909H101.471C101.731 102.809 102.691 102.189 103.811 102.189ZM119.35 105.489V104.429C119.35 101.669 117.53 99.9293 114.61 99.9293C111.75 99.9293 109.71 101.949 109.71 104.829C109.71 107.729 111.97 109.729 115.29 109.729C116.75 109.729 118.01 109.409 118.79 108.849V106.329H118.69C117.93 107.069 116.77 107.469 115.41 107.469C113.79 107.469 112.63 106.769 112.35 105.489H119.35ZM114.69 102.189C115.93 102.189 116.81 102.769 116.99 103.909H112.35C112.61 102.809 113.57 102.189 114.69 102.189ZM134.204 109.529H137.764V96.2493H134.904V105.169H134.864L129.844 96.2493H125.784V109.529H128.644V99.6693H128.684L134.204 109.529ZM149.028 109.529V96.2493H146.748L142.148 98.8293V101.709L146.248 99.4093V109.529H149.028ZM152.056 111.649H154.176L156.596 106.629H153.896L152.056 111.649ZM164.204 96.0493C160.704 96.0493 158.684 98.5493 158.684 102.889C158.684 107.229 160.704 109.729 164.204 109.729C167.704 109.729 169.724 107.229 169.724 102.889C169.724 98.5493 167.704 96.0493 164.204 96.0493ZM164.204 98.5293C165.944 98.5293 166.904 100.109 166.904 102.889C166.904 105.669 165.944 107.249 164.204 107.249C162.464 107.249 161.504 105.669 161.504 102.889C161.504 100.109 162.464 98.5293 164.204 98.5293ZM177.211 96.0493C173.711 96.0493 171.691 98.5493 171.691 102.889C171.691 107.229 173.711 109.729 177.211 109.729C180.711 109.729 182.731 107.229 182.731 102.889C182.731 98.5493 180.711 96.0493 177.211 96.0493ZM177.211 98.5293C178.951 98.5293 179.911 100.109 179.911 102.889C179.911 105.669 178.951 107.249 177.211 107.249C175.471 107.249 174.511 105.669 174.511 102.889C174.511 100.109 175.471 98.5293 177.211 98.5293ZM190.219 96.0493C186.719 96.0493 184.699 98.5493 184.699 102.889C184.699 107.229 186.719 109.729 190.219 109.729C193.719 109.729 195.739 107.229 195.739 102.889C195.739 98.5493 193.719 96.0493 190.219 96.0493ZM190.219 98.5293C191.959 98.5293 192.919 100.109 192.919 102.889C192.919 105.669 191.959 107.249 190.219 107.249C188.479 107.249 187.519 105.669 187.519 102.889C187.519 100.109 188.479 98.5293 190.219 98.5293Z" fill="white"/>
<path d="M42.8221 146.063V134.783H47.5901C48.7955 134.783 49.7288 135.071 50.3901 135.647C51.0515 136.213 51.3821 137.007 51.3821 138.031C51.3821 138.703 51.2328 139.279 50.9341 139.759C50.6355 140.239 50.2141 140.607 49.6701 140.863C49.1261 141.109 48.4861 141.231 47.7501 141.231L48.0061 140.975H48.4381C48.8755 140.975 49.2648 141.087 49.6061 141.311C49.9581 141.535 50.2461 141.893 50.4701 142.383L52.0861 146.063H50.2621L48.6621 142.367C48.5021 141.93 48.2515 141.647 47.9101 141.519C47.5795 141.391 47.1688 141.327 46.6781 141.327H44.4861V146.063H42.8221ZM44.4861 140.063H47.3181C48.1181 140.063 48.7208 139.893 49.1261 139.551C49.5421 139.21 49.7501 138.719 49.7501 138.079C49.7501 137.429 49.5421 136.938 49.1261 136.607C48.7208 136.277 48.1181 136.111 47.3181 136.111H44.4861V140.063ZM57.3749 146.207C56.0736 146.207 55.0496 145.839 54.3029 145.103C53.5562 144.367 53.1829 143.349 53.1829 142.047C53.1829 141.205 53.3429 140.469 53.6629 139.839C53.9936 139.21 54.4469 138.725 55.0229 138.383C55.6096 138.031 56.2869 137.855 57.0549 137.855C57.8122 137.855 58.4469 138.015 58.9589 138.335C59.4709 138.655 59.8602 139.109 60.1269 139.695C60.3936 140.271 60.5269 140.954 60.5269 141.743V142.255H54.4469V141.327H59.4229L59.1509 141.535C59.1509 140.735 58.9696 140.117 58.6069 139.679C58.2549 139.231 57.7429 139.007 57.0709 139.007C56.3242 139.007 55.7482 139.269 55.3429 139.791C54.9376 140.303 54.7349 141.013 54.7349 141.919V142.079C54.7349 143.029 54.9642 143.743 55.4229 144.223C55.8922 144.703 56.5536 144.943 57.4069 144.943C57.8762 144.943 58.3136 144.879 58.7189 144.751C59.1349 144.613 59.5296 144.389 59.9029 144.079L60.4309 145.183C60.0576 145.514 59.6042 145.77 59.0709 145.951C58.5376 146.122 57.9722 146.207 57.3749 146.207ZM62.8456 146.063V139.247H61.2776V137.999H63.2936L62.8456 138.415V137.135C62.8456 136.186 63.0856 135.466 63.5656 134.975C64.0456 134.474 64.7496 134.223 65.6776 134.223C65.9016 134.223 66.1363 134.239 66.3816 134.271C66.627 134.303 66.8296 134.357 66.9896 134.431V135.743C66.8616 135.69 66.7016 135.647 66.5096 135.615C66.3283 135.573 66.1416 135.551 65.9496 135.551C65.6403 135.551 65.3736 135.615 65.1496 135.743C64.9256 135.861 64.7496 136.042 64.6216 136.287C64.5043 136.533 64.4456 136.847 64.4456 137.231V138.319L64.2056 137.999H66.6376V139.247H64.4616V146.063H62.8456ZM71.4999 146.207C70.1986 146.207 69.1746 145.839 68.4279 145.103C67.6812 144.367 67.3079 143.349 67.3079 142.047C67.3079 141.205 67.4679 140.469 67.7879 139.839C68.1186 139.21 68.5719 138.725 69.1479 138.383C69.7346 138.031 70.4119 137.855 71.1799 137.855C71.9372 137.855 72.5719 138.015 73.0839 138.335C73.5959 138.655 73.9852 139.109 74.2519 139.695C74.5186 140.271 74.6519 140.954 74.6519 141.743V142.255H68.5719V141.327H73.5479L73.2759 141.535C73.2759 140.735 73.0946 140.117 72.7319 139.679C72.3799 139.231 71.8679 139.007 71.1959 139.007C70.4492 139.007 69.8732 139.269 69.4679 139.791C69.0626 140.303 68.8599 141.013 68.8599 141.919V142.079C68.8599 143.029 69.0892 143.743 69.5479 144.223C70.0172 144.703 70.6786 144.943 71.5319 144.943C72.0012 144.943 72.4386 144.879 72.8439 144.751C73.2599 144.613 73.6546 144.389 74.0279 144.079L74.5559 145.183C74.1826 145.514 73.7292 145.77 73.1959 145.951C72.6626 146.122 72.0972 146.207 71.4999 146.207ZM76.4743 146.063V139.999C76.4743 139.669 76.4636 139.338 76.4423 139.007C76.4316 138.666 76.4103 138.33 76.3783 137.999H77.9463L78.1223 140.079H77.8663C77.9729 139.578 78.1543 139.162 78.4103 138.831C78.6663 138.501 78.9756 138.255 79.3383 138.095C79.7116 137.935 80.1009 137.855 80.5063 137.855C80.6769 137.855 80.8209 137.866 80.9383 137.887C81.0556 137.898 81.1729 137.919 81.2903 137.951L81.2743 139.391C81.0929 139.317 80.9329 139.274 80.7943 139.263C80.6663 139.242 80.5063 139.231 80.3143 139.231C79.8449 139.231 79.4449 139.338 79.1143 139.551C78.7836 139.754 78.5329 140.031 78.3623 140.383C78.1916 140.735 78.1063 141.114 78.1063 141.519V146.063H76.4743ZM89.8911 146.207C89.1765 146.207 88.5525 146.042 88.0191 145.711C87.4858 145.381 87.0698 144.901 86.7711 144.271C86.4831 143.642 86.3391 142.895 86.3391 142.031C86.3391 141.157 86.4831 140.41 86.7711 139.791C87.0698 139.173 87.4858 138.698 88.0191 138.367C88.5525 138.026 89.1765 137.855 89.8911 137.855C90.5951 137.855 91.2085 138.031 91.7311 138.383C92.2538 138.735 92.6005 139.215 92.7711 139.823H92.5951L92.7551 137.999H94.3231C94.2911 138.33 94.2591 138.661 94.2271 138.991C94.2058 139.311 94.1951 139.626 94.1951 139.935V146.063H92.5791V144.271H92.7551C92.5845 144.869 92.2325 145.343 91.6991 145.695C91.1765 146.037 90.5738 146.207 89.8911 146.207ZM90.2911 144.943C90.9845 144.943 91.5391 144.698 91.9551 144.207C92.3818 143.717 92.5951 142.991 92.5951 142.031C92.5951 141.071 92.3818 140.351 91.9551 139.871C91.5391 139.381 90.9845 139.135 90.2911 139.135C89.5871 139.135 89.0218 139.381 88.5951 139.871C88.1791 140.351 87.9711 141.071 87.9711 142.031C87.9711 142.991 88.1791 143.717 88.5951 144.207C89.0111 144.698 89.5765 144.943 90.2911 144.943ZM96.5531 146.063V139.935C96.5531 139.626 96.5371 139.311 96.5051 138.991C96.4838 138.661 96.4571 138.33 96.4251 137.999H97.9931L98.1371 139.695H97.9451C98.1905 139.098 98.5691 138.645 99.0811 138.335C99.5931 138.015 100.185 137.855 100.857 137.855C101.806 137.855 102.521 138.117 103.001 138.639C103.492 139.162 103.737 139.973 103.737 141.071V146.063H102.121V141.167C102.121 140.453 101.977 139.941 101.689 139.631C101.412 139.311 100.985 139.151 100.409 139.151C99.7265 139.151 99.1825 139.365 98.7771 139.791C98.3718 140.207 98.1691 140.773 98.1691 141.487V146.063H96.5531ZM109.126 146.207C108.422 146.207 107.798 146.042 107.254 145.711C106.72 145.381 106.304 144.901 106.006 144.271C105.718 143.642 105.574 142.895 105.574 142.031C105.574 141.157 105.718 140.41 106.006 139.791C106.304 139.173 106.72 138.698 107.254 138.367C107.798 138.026 108.422 137.855 109.126 137.855C109.819 137.855 110.427 138.031 110.95 138.383C111.483 138.725 111.835 139.194 112.006 139.791H111.814V134.287H113.43V146.063H111.83V144.239H112.022C111.84 144.847 111.488 145.327 110.966 145.679C110.443 146.031 109.83 146.207 109.126 146.207ZM109.526 144.943C110.219 144.943 110.779 144.698 111.206 144.207C111.632 143.717 111.846 142.991 111.846 142.031C111.846 141.071 111.632 140.351 111.206 139.871C110.779 139.381 110.219 139.135 109.526 139.135C108.822 139.135 108.256 139.381 107.83 139.871C107.414 140.351 107.206 141.071 107.206 142.031C107.206 142.991 107.414 143.717 107.83 144.207C108.256 144.698 108.822 144.943 109.526 144.943ZM123.685 149.647C122.96 149.647 122.298 149.562 121.701 149.391C121.114 149.221 120.586 148.965 120.117 148.623L120.517 147.439C120.848 147.663 121.173 147.839 121.493 147.967C121.813 148.106 122.149 148.207 122.501 148.271C122.853 148.335 123.216 148.367 123.589 148.367C124.357 148.367 124.933 148.17 125.317 147.775C125.712 147.391 125.909 146.831 125.909 146.095V143.935H126.069C125.898 144.533 125.546 145.007 125.013 145.359C124.49 145.701 123.882 145.871 123.189 145.871C122.453 145.871 121.813 145.711 121.269 145.391C120.736 145.061 120.32 144.597 120.021 143.999C119.733 143.391 119.589 142.677 119.589 141.855C119.589 141.034 119.733 140.325 120.021 139.727C120.32 139.13 120.736 138.671 121.269 138.351C121.813 138.021 122.453 137.855 123.189 137.855C123.893 137.855 124.501 138.031 125.013 138.383C125.536 138.725 125.882 139.194 126.053 139.791L125.909 139.663L126.053 137.999H127.621C127.578 138.33 127.546 138.661 127.525 138.991C127.504 139.311 127.493 139.626 127.493 139.935V145.903C127.493 147.119 127.168 148.047 126.517 148.687C125.877 149.327 124.933 149.647 123.685 149.647ZM123.573 144.607C124.277 144.607 124.837 144.367 125.253 143.887C125.68 143.407 125.893 142.73 125.893 141.855C125.893 140.981 125.68 140.309 125.253 139.839C124.837 139.37 124.277 139.135 123.573 139.135C122.848 139.135 122.272 139.37 121.845 139.839C121.429 140.309 121.221 140.981 121.221 141.855C121.221 142.73 121.429 143.407 121.845 143.887C122.272 144.367 122.848 144.607 123.573 144.607ZM133.578 146.207C132.277 146.207 131.253 145.839 130.506 145.103C129.759 144.367 129.386 143.349 129.386 142.047C129.386 141.205 129.546 140.469 129.866 139.839C130.197 139.21 130.65 138.725 131.226 138.383C131.813 138.031 132.49 137.855 133.258 137.855C134.015 137.855 134.65 138.015 135.162 138.335C135.674 138.655 136.063 139.109 136.33 139.695C136.597 140.271 136.73 140.954 136.73 141.743V142.255H130.65V141.327H135.626L135.354 141.535C135.354 140.735 135.173 140.117 134.81 139.679C134.458 139.231 133.946 139.007 133.274 139.007C132.527 139.007 131.951 139.269 131.546 139.791C131.141 140.303 130.938 141.013 130.938 141.919V142.079C130.938 143.029 131.167 143.743 131.626 144.223C132.095 144.703 132.757 144.943 133.61 144.943C134.079 144.943 134.517 144.879 134.922 144.751C135.338 144.613 135.733 144.389 136.106 144.079L136.634 145.183C136.261 145.514 135.807 145.77 135.274 145.951C134.741 146.122 134.175 146.207 133.578 146.207ZM141.705 146.207C140.83 146.207 140.169 145.973 139.721 145.503C139.273 145.023 139.049 144.309 139.049 143.359V139.247H137.481V137.999H139.049V135.871L140.665 135.439V137.999H142.905V139.247H140.665V143.215C140.665 143.813 140.771 144.239 140.985 144.495C141.198 144.751 141.507 144.879 141.913 144.879C142.115 144.879 142.291 144.863 142.441 144.831C142.601 144.789 142.745 144.741 142.873 144.687V145.999C142.713 146.063 142.526 146.111 142.313 146.143C142.099 146.186 141.897 146.207 141.705 146.207ZM148.647 149.519V139.935C148.647 139.626 148.631 139.311 148.599 138.991C148.578 138.661 148.551 138.33 148.519 137.999H150.087L150.247 139.823H150.071C150.242 139.215 150.583 138.735 151.095 138.383C151.618 138.031 152.236 137.855 152.951 137.855C153.666 137.855 154.29 138.026 154.823 138.367C155.356 138.698 155.767 139.173 156.055 139.791C156.354 140.41 156.503 141.157 156.503 142.031C156.503 142.895 156.354 143.642 156.055 144.271C155.767 144.901 155.356 145.381 154.823 145.711C154.29 146.042 153.666 146.207 152.951 146.207C152.247 146.207 151.634 146.037 151.111 145.695C150.599 145.343 150.258 144.869 150.087 144.271H150.263V149.519H148.647ZM152.551 144.943C153.255 144.943 153.815 144.698 154.231 144.207C154.658 143.717 154.871 142.991 154.871 142.031C154.871 141.071 154.658 140.351 154.231 139.871C153.815 139.381 153.255 139.135 152.551 139.135C151.847 139.135 151.282 139.381 150.855 139.871C150.439 140.351 150.231 141.071 150.231 142.031C150.231 142.991 150.439 143.717 150.855 144.207C151.282 144.698 151.847 144.943 152.551 144.943ZM161.485 146.207C160.77 146.207 160.146 146.042 159.613 145.711C159.08 145.381 158.664 144.901 158.365 144.271C158.077 143.642 157.933 142.895 157.933 142.031C157.933 141.157 158.077 140.41 158.365 139.791C158.664 139.173 159.08 138.698 159.613 138.367C160.146 138.026 160.77 137.855 161.485 137.855C162.189 137.855 162.802 138.031 163.325 138.383C163.848 138.735 164.194 139.215 164.365 139.823H164.189L164.349 137.999H165.917C165.885 138.33 165.853 138.661 165.821 138.991C165.8 139.311 165.789 139.626 165.789 139.935V146.063H164.173V144.271H164.349C164.178 144.869 163.826 145.343 163.293 145.695C162.77 146.037 162.168 146.207 161.485 146.207ZM161.885 144.943C162.578 144.943 163.133 144.698 163.549 144.207C163.976 143.717 164.189 142.991 164.189 142.031C164.189 141.071 163.976 140.351 163.549 139.871C163.133 139.381 162.578 139.135 161.885 139.135C161.181 139.135 160.616 139.381 160.189 139.871C159.773 140.351 159.565 141.071 159.565 142.031C159.565 142.991 159.773 143.717 160.189 144.207C160.605 144.698 161.17 144.943 161.885 144.943ZM168.147 146.063V137.999H169.763V146.063H168.147ZM168.019 136.319V134.639H169.891V136.319H168.019ZM175.219 146.207C174.515 146.207 173.891 146.042 173.347 145.711C172.814 145.381 172.398 144.901 172.099 144.271C171.811 143.642 171.667 142.895 171.667 142.031C171.667 141.157 171.811 140.41 172.099 139.791C172.398 139.173 172.814 138.698 173.347 138.367C173.891 138.026 174.515 137.855 175.219 137.855C175.913 137.855 176.521 138.031 177.043 138.383C177.577 138.725 177.929 139.194 178.099 139.791H177.907V134.287H179.523V146.063H177.923V144.239H178.115C177.934 144.847 177.582 145.327 177.059 145.679C176.537 146.031 175.923 146.207 175.219 146.207ZM175.619 144.943C176.313 144.943 176.873 144.698 177.299 144.207C177.726 143.717 177.939 142.991 177.939 142.031C177.939 141.071 177.726 140.351 177.299 139.871C176.873 139.381 176.313 139.135 175.619 139.135C174.915 139.135 174.35 139.381 173.923 139.871C173.507 140.351 173.299 141.071 173.299 142.031C173.299 142.991 173.507 143.717 173.923 144.207C174.35 144.698 174.915 144.943 175.619 144.943ZM186.627 146.063V139.247H185.059V137.999H187.075L186.627 138.415V137.135C186.627 136.186 186.867 135.466 187.347 134.975C187.827 134.474 188.531 134.223 189.459 134.223C189.683 134.223 189.918 134.239 190.163 134.271C190.408 134.303 190.611 134.357 190.771 134.431V135.743C190.643 135.69 190.483 135.647 190.291 135.615C190.11 135.573 189.923 135.551 189.731 135.551C189.422 135.551 189.155 135.615 188.931 135.743C188.707 135.861 188.531 136.042 188.403 136.287C188.286 136.533 188.227 136.847 188.227 137.231V138.319L187.987 137.999H190.419V139.247H188.243V146.063H186.627ZM195.009 146.207C194.209 146.207 193.516 146.042 192.929 145.711C192.342 145.37 191.889 144.89 191.569 144.271C191.249 143.642 191.089 142.895 191.089 142.031C191.089 141.167 191.249 140.426 191.569 139.807C191.889 139.178 192.342 138.698 192.929 138.367C193.516 138.026 194.209 137.855 195.009 137.855C195.809 137.855 196.502 138.026 197.089 138.367C197.686 138.698 198.145 139.178 198.465 139.807C198.796 140.426 198.961 141.167 198.961 142.031C198.961 142.895 198.796 143.642 198.465 144.271C198.145 144.89 197.686 145.37 197.089 145.711C196.502 146.042 195.809 146.207 195.009 146.207ZM195.009 144.943C195.713 144.943 196.273 144.698 196.689 144.207C197.105 143.717 197.313 142.991 197.313 142.031C197.313 141.071 197.105 140.351 196.689 139.871C196.273 139.381 195.713 139.135 195.009 139.135C194.316 139.135 193.761 139.381 193.345 139.871C192.929 140.351 192.721 141.071 192.721 142.031C192.721 142.991 192.924 143.717 193.329 144.207C193.745 144.698 194.305 144.943 195.009 144.943ZM200.818 146.063V139.999C200.818 139.669 200.807 139.338 200.786 139.007C200.775 138.666 200.754 138.33 200.722 137.999H202.29L202.466 140.079H202.21C202.317 139.578 202.498 139.162 202.754 138.831C203.01 138.501 203.319 138.255 203.682 138.095C204.055 137.935 204.445 137.855 204.85 137.855C205.021 137.855 205.165 137.866 205.282 137.887C205.399 137.898 205.517 137.919 205.634 137.951L205.618 139.391C205.437 139.317 205.277 139.274 205.138 139.263C205.01 139.242 204.85 139.231 204.658 139.231C204.189 139.231 203.789 139.338 203.458 139.551C203.127 139.754 202.877 140.031 202.706 140.383C202.535 140.735 202.45 141.114 202.45 141.519V146.063H200.818ZM214.875 146.207C213.574 146.207 212.55 145.839 211.803 145.103C211.056 144.367 210.683 143.349 210.683 142.047C210.683 141.205 210.843 140.469 211.163 139.839C211.494 139.21 211.947 138.725 212.523 138.383C213.11 138.031 213.787 137.855 214.555 137.855C215.312 137.855 215.947 138.015 216.459 138.335C216.971 138.655 217.36 139.109 217.627 139.695C217.894 140.271 218.027 140.954 218.027 141.743V142.255H211.947V141.327H216.923L216.651 141.535C216.651 140.735 216.47 140.117 216.107 139.679C215.755 139.231 215.243 139.007 214.571 139.007C213.824 139.007 213.248 139.269 212.843 139.791C212.438 140.303 212.235 141.013 212.235 141.919V142.079C212.235 143.029 212.464 143.743 212.923 144.223C213.392 144.703 214.054 144.943 214.907 144.943C215.376 144.943 215.814 144.879 216.219 144.751C216.635 144.613 217.03 144.389 217.403 144.079L217.931 145.183C217.558 145.514 217.104 145.77 216.571 145.951C216.038 146.122 215.472 146.207 214.875 146.207ZM222.14 146.063L218.684 137.999H220.412L223.132 144.735H222.668L225.436 137.999H227.084L223.612 146.063H222.14ZM231.953 146.207C230.652 146.207 229.628 145.839 228.881 145.103C228.134 144.367 227.761 143.349 227.761 142.047C227.761 141.205 227.921 140.469 228.241 139.839C228.572 139.21 229.025 138.725 229.601 138.383C230.188 138.031 230.865 137.855 231.633 137.855C232.39 137.855 233.025 138.015 233.537 138.335C234.049 138.655 234.438 139.109 234.705 139.695C234.972 140.271 235.105 140.954 235.105 141.743V142.255H229.025V141.327H234.001L233.729 141.535C233.729 140.735 233.548 140.117 233.185 139.679C232.833 139.231 232.321 139.007 231.649 139.007C230.902 139.007 230.326 139.269 229.921 139.791C229.516 140.303 229.313 141.013 229.313 141.919V142.079C229.313 143.029 229.542 143.743 230.001 144.223C230.47 144.703 231.132 144.943 231.985 144.943C232.454 144.943 232.892 144.879 233.297 144.751C233.713 144.613 234.108 144.389 234.481 144.079L235.009 145.183C234.636 145.514 234.182 145.77 233.649 145.951C233.116 146.122 232.55 146.207 231.953 146.207ZM236.927 146.063V139.999C236.927 139.669 236.917 139.338 236.895 139.007C236.885 138.666 236.863 138.33 236.831 137.999H238.399L238.575 140.079H238.319C238.426 139.578 238.607 139.162 238.863 138.831C239.119 138.501 239.429 138.255 239.791 138.095C240.165 137.935 240.554 137.855 240.959 137.855C241.13 137.855 241.274 137.866 241.391 137.887C241.509 137.898 241.626 137.919 241.743 137.951L241.727 139.391C241.546 139.317 241.386 139.274 241.247 139.263C241.119 139.242 240.959 139.231 240.767 139.231C240.298 139.231 239.898 139.338 239.567 139.551C239.237 139.754 238.986 140.031 238.815 140.383C238.645 140.735 238.559 141.114 238.559 141.519V146.063H236.927ZM243.235 149.695L242.851 148.383C243.352 148.277 243.768 148.149 244.099 147.999C244.44 147.85 244.723 147.653 244.947 147.407C245.171 147.173 245.363 146.869 245.523 146.495L245.923 145.551L245.891 146.207L242.387 137.999H244.115L246.835 144.719H246.403L249.123 137.999H250.787L247.091 146.639C246.856 147.173 246.606 147.621 246.339 147.983C246.072 148.346 245.784 148.639 245.475 148.863C245.166 149.087 244.824 149.263 244.451 149.391C244.078 149.519 243.672 149.621 243.235 149.695ZM256.799 146.063V139.247H255.231V137.999H257.247L256.799 138.415V137.135C256.799 136.186 257.039 135.466 257.519 134.975C257.999 134.474 258.703 134.223 259.631 134.223C259.855 134.223 260.089 134.239 260.335 134.271C260.58 134.303 260.783 134.357 260.943 134.431V135.743C260.815 135.69 260.655 135.647 260.463 135.615C260.281 135.573 260.095 135.551 259.903 135.551C259.593 135.551 259.327 135.615 259.103 135.743C258.879 135.861 258.703 136.042 258.575 136.287C258.457 136.533 258.399 136.847 258.399 137.231V138.319L258.159 137.999H260.591V139.247H258.415V146.063H256.799ZM261.912 146.063V139.999C261.912 139.669 261.901 139.338 261.88 139.007C261.869 138.666 261.848 138.33 261.816 137.999H263.384L263.56 140.079H263.304C263.41 139.578 263.592 139.162 263.848 138.831C264.104 138.501 264.413 138.255 264.776 138.095C265.149 137.935 265.538 137.855 265.944 137.855C266.114 137.855 266.258 137.866 266.376 137.887C266.493 137.898 266.61 137.919 266.728 137.951L266.712 139.391C266.53 139.317 266.37 139.274 266.232 139.263C266.104 139.242 265.944 139.231 265.752 139.231C265.282 139.231 264.882 139.338 264.552 139.551C264.221 139.754 263.97 140.031 263.8 140.383C263.629 140.735 263.544 141.114 263.544 141.519V146.063H261.912ZM267.975 146.063V137.999H269.591V146.063H267.975ZM267.847 136.319V134.639H269.719V136.319H267.847ZM275.687 146.207C274.386 146.207 273.362 145.839 272.615 145.103C271.869 144.367 271.495 143.349 271.495 142.047C271.495 141.205 271.655 140.469 271.975 139.839C272.306 139.21 272.759 138.725 273.335 138.383C273.922 138.031 274.599 137.855 275.367 137.855C276.125 137.855 276.759 138.015 277.271 138.335C277.783 138.655 278.173 139.109 278.439 139.695C278.706 140.271 278.839 140.954 278.839 141.743V142.255H272.759V141.327H277.735L277.463 141.535C277.463 140.735 277.282 140.117 276.919 139.679C276.567 139.231 276.055 139.007 275.383 139.007C274.637 139.007 274.061 139.269 273.655 139.791C273.25 140.303 273.047 141.013 273.047 141.919V142.079C273.047 143.029 273.277 143.743 273.735 144.223C274.205 144.703 274.866 144.943 275.719 144.943C276.189 144.943 276.626 144.879 277.031 144.751C277.447 144.613 277.842 144.389 278.215 144.079L278.743 145.183C278.37 145.514 277.917 145.77 277.383 145.951C276.85 146.122 276.285 146.207 275.687 146.207ZM280.694 146.063V139.935C280.694 139.626 280.678 139.311 280.646 138.991C280.624 138.661 280.598 138.33 280.566 137.999H282.134L282.278 139.695H282.086C282.331 139.098 282.71 138.645 283.222 138.335C283.734 138.015 284.326 137.855 284.998 137.855C285.947 137.855 286.662 138.117 287.142 138.639C287.632 139.162 287.878 139.973 287.878 141.071V146.063H286.262V141.167C286.262 140.453 286.118 139.941 285.83 139.631C285.552 139.311 285.126 139.151 284.55 139.151C283.867 139.151 283.323 139.365 282.918 139.791C282.512 140.207 282.31 140.773 282.31 141.487V146.063H280.694ZM293.266 146.207C292.562 146.207 291.938 146.042 291.394 145.711C290.861 145.381 290.445 144.901 290.146 144.271C289.858 143.642 289.714 142.895 289.714 142.031C289.714 141.157 289.858 140.41 290.146 139.791C290.445 139.173 290.861 138.698 291.394 138.367C291.938 138.026 292.562 137.855 293.266 137.855C293.959 137.855 294.567 138.031 295.09 138.383C295.623 138.725 295.975 139.194 296.146 139.791H295.954V134.287H297.57V146.063H295.97V144.239H296.162C295.981 144.847 295.629 145.327 295.106 145.679C294.583 146.031 293.97 146.207 293.266 146.207ZM293.666 144.943C294.359 144.943 294.919 144.698 295.346 144.207C295.773 143.717 295.986 142.991 295.986 142.031C295.986 141.071 295.773 140.351 295.346 139.871C294.919 139.381 294.359 139.135 293.666 139.135C292.962 139.135 292.397 139.381 291.97 139.871C291.554 140.351 291.346 141.071 291.346 142.031C291.346 142.991 291.554 143.717 291.97 144.207C292.397 144.698 292.962 144.943 293.666 144.943ZM307.33 146.207C306.455 146.207 305.794 145.973 305.346 145.503C304.898 145.023 304.674 144.309 304.674 143.359V139.247H303.106V137.999H304.674V135.871L306.29 135.439V137.999H308.53V139.247H306.29V143.215C306.29 143.813 306.396 144.239 306.61 144.495C306.823 144.751 307.132 144.879 307.538 144.879C307.74 144.879 307.916 144.863 308.066 144.831C308.226 144.789 308.37 144.741 308.498 144.687V145.999C308.338 146.063 308.151 146.111 307.938 146.143C307.724 146.186 307.522 146.207 307.33 146.207ZM310.006 146.063V134.287H311.622V139.711H311.398C311.633 139.103 312.012 138.645 312.534 138.335C313.057 138.015 313.66 137.855 314.342 137.855C315.302 137.855 316.017 138.122 316.486 138.655C316.956 139.178 317.19 139.973 317.19 141.039V146.063H315.574V141.135C315.574 140.442 315.436 139.941 315.158 139.631C314.892 139.311 314.465 139.151 313.878 139.151C313.196 139.151 312.646 139.365 312.23 139.791C311.825 140.207 311.622 140.762 311.622 141.455V146.063H310.006ZM322.579 146.207C321.864 146.207 321.24 146.042 320.707 145.711C320.173 145.381 319.757 144.901 319.459 144.271C319.171 143.642 319.027 142.895 319.027 142.031C319.027 141.157 319.171 140.41 319.459 139.791C319.757 139.173 320.173 138.698 320.707 138.367C321.24 138.026 321.864 137.855 322.579 137.855C323.283 137.855 323.896 138.031 324.419 138.383C324.941 138.735 325.288 139.215 325.459 139.823H325.283L325.443 137.999H327.011C326.979 138.33 326.947 138.661 326.915 138.991C326.893 139.311 326.883 139.626 326.883 139.935V146.063H325.267V144.271H325.443C325.272 144.869 324.92 145.343 324.387 145.695C323.864 146.037 323.261 146.207 322.579 146.207ZM322.979 144.943C323.672 144.943 324.227 144.698 324.643 144.207C325.069 143.717 325.283 142.991 325.283 142.031C325.283 141.071 325.069 140.351 324.643 139.871C324.227 139.381 323.672 139.135 322.979 139.135C322.275 139.135 321.709 139.381 321.283 139.871C320.867 140.351 320.659 141.071 320.659 142.031C320.659 142.991 320.867 143.717 321.283 144.207C321.699 144.698 322.264 144.943 322.979 144.943ZM332.377 146.207C331.502 146.207 330.841 145.973 330.393 145.503C329.945 145.023 329.721 144.309 329.721 143.359V139.247H328.153V137.999H329.721V135.871L331.337 135.439V137.999H333.577V139.247H331.337V143.215C331.337 143.813 331.443 144.239 331.657 144.495C331.87 144.751 332.179 144.879 332.585 144.879C332.787 144.879 332.963 144.863 333.113 144.831C333.273 144.789 333.417 144.741 333.545 144.687V145.999C333.385 146.063 333.198 146.111 332.985 146.143C332.771 146.186 332.569 146.207 332.377 146.207ZM45.4461 166.207C44.7741 166.207 44.1555 166.122 43.5901 165.951C43.0248 165.781 42.5555 165.541 42.1821 165.231L42.6781 164.127C43.0728 164.426 43.5101 164.65 43.9901 164.799C44.4701 164.949 44.9608 165.023 45.4621 165.023C46.0488 165.023 46.4915 164.922 46.7901 164.719C47.0888 164.506 47.2381 164.218 47.2381 163.855C47.2381 163.578 47.1421 163.354 46.9501 163.183C46.7688 163.013 46.4648 162.885 46.0381 162.799L44.5021 162.495C43.8195 162.346 43.3021 162.09 42.9501 161.727C42.5981 161.365 42.4221 160.901 42.4221 160.335C42.4221 159.855 42.5501 159.429 42.8061 159.055C43.0728 158.682 43.4461 158.389 43.9261 158.175C44.4168 157.962 44.9875 157.855 45.6381 157.855C46.2355 157.855 46.7901 157.941 47.3021 158.111C47.8141 158.282 48.2408 158.527 48.5821 158.847L48.0701 159.919C47.7395 159.642 47.3661 159.429 46.9501 159.279C46.5341 159.119 46.1128 159.039 45.6861 159.039C45.0888 159.039 44.6461 159.151 44.3581 159.375C44.0701 159.599 43.9261 159.893 43.9261 160.255C43.9261 160.533 44.0115 160.762 44.1821 160.943C44.3635 161.114 44.6461 161.247 45.0301 161.343L46.5661 161.647C47.2915 161.797 47.8355 162.042 48.1981 162.383C48.5608 162.725 48.7421 163.183 48.7421 163.759C48.7421 164.261 48.6035 164.698 48.3261 165.071C48.0488 165.445 47.6648 165.727 47.1741 165.919C46.6835 166.111 46.1075 166.207 45.4461 166.207ZM50.6469 166.063V157.999H52.2629V166.063H50.6469ZM50.5189 156.319V154.639H52.3909V156.319H50.5189ZM58.2633 169.647C57.5379 169.647 56.8766 169.562 56.2793 169.391C55.6926 169.221 55.1646 168.965 54.6953 168.623L55.0953 167.439C55.4259 167.663 55.7513 167.839 56.0713 167.967C56.3913 168.106 56.7273 168.207 57.0793 168.271C57.4313 168.335 57.7939 168.367 58.1673 168.367C58.9353 168.367 59.5113 168.17 59.8953 167.775C60.2899 167.391 60.4873 166.831 60.4873 166.095V163.935H60.6473C60.4766 164.533 60.1246 165.007 59.5913 165.359C59.0686 165.701 58.4606 165.871 57.7673 165.871C57.0313 165.871 56.3913 165.711 55.8473 165.391C55.3139 165.061 54.8979 164.597 54.5993 163.999C54.3113 163.391 54.1673 162.677 54.1673 161.855C54.1673 161.034 54.3113 160.325 54.5993 159.727C54.8979 159.13 55.3139 158.671 55.8473 158.351C56.3913 158.021 57.0313 157.855 57.7673 157.855C58.4713 157.855 59.0793 158.031 59.5913 158.383C60.1139 158.725 60.4606 159.194 60.6313 159.791L60.4873 159.663L60.6313 157.999H62.1993C62.1566 158.33 62.1246 158.661 62.1033 158.991C62.0819 159.311 62.0713 159.626 62.0713 159.935V165.903C62.0713 167.119 61.7459 168.047 61.0953 168.687C60.4553 169.327 59.5113 169.647 58.2633 169.647ZM58.1513 164.607C58.8553 164.607 59.4153 164.367 59.8313 163.887C60.2579 163.407 60.4713 162.73 60.4713 161.855C60.4713 160.981 60.2579 160.309 59.8313 159.839C59.4153 159.37 58.8553 159.135 58.1513 159.135C57.4259 159.135 56.8499 159.37 56.4233 159.839C56.0073 160.309 55.7993 160.981 55.7993 161.855C55.7993 162.73 56.0073 163.407 56.4233 163.887C56.8499 164.367 57.4259 164.607 58.1513 164.607ZM64.4281 166.063V159.935C64.4281 159.626 64.4121 159.311 64.3801 158.991C64.3588 158.661 64.3321 158.33 64.3001 157.999H65.8681L66.0121 159.695H65.8201C66.0655 159.098 66.4441 158.645 66.9561 158.335C67.4681 158.015 68.0601 157.855 68.7321 157.855C69.6815 157.855 70.3961 158.117 70.8761 158.639C71.3668 159.162 71.6121 159.973 71.6121 161.071V166.063H69.9961V161.167C69.9961 160.453 69.8521 159.941 69.5641 159.631C69.2868 159.311 68.8601 159.151 68.2841 159.151C67.6015 159.151 67.0575 159.365 66.6521 159.791C66.2468 160.207 66.0441 160.773 66.0441 161.487V166.063H64.4281ZM76.6805 166.207C76.0085 166.207 75.3898 166.122 74.8245 165.951C74.2592 165.781 73.7898 165.541 73.4165 165.231L73.9125 164.127C74.3072 164.426 74.7445 164.65 75.2245 164.799C75.7045 164.949 76.1952 165.023 76.6965 165.023C77.2832 165.023 77.7258 164.922 78.0245 164.719C78.3232 164.506 78.4725 164.218 78.4725 163.855C78.4725 163.578 78.3765 163.354 78.1845 163.183C78.0032 163.013 77.6992 162.885 77.2725 162.799L75.7365 162.495C75.0538 162.346 74.5365 162.09 74.1845 161.727C73.8325 161.365 73.6565 160.901 73.6565 160.335C73.6565 159.855 73.7845 159.429 74.0405 159.055C74.3072 158.682 74.6805 158.389 75.1605 158.175C75.6512 157.962 76.2218 157.855 76.8725 157.855C77.4698 157.855 78.0245 157.941 78.5365 158.111C79.0485 158.282 79.4752 158.527 79.8165 158.847L79.3045 159.919C78.9738 159.642 78.6005 159.429 78.1845 159.279C77.7685 159.119 77.3472 159.039 76.9205 159.039C76.3232 159.039 75.8805 159.151 75.5925 159.375C75.3045 159.599 75.1605 159.893 75.1605 160.255C75.1605 160.533 75.2458 160.762 75.4165 160.943C75.5978 161.114 75.8805 161.247 76.2645 161.343L77.8005 161.647C78.5258 161.797 79.0698 162.042 79.4325 162.383C79.7952 162.725 79.9765 163.183 79.9765 163.759C79.9765 164.261 79.8378 164.698 79.5605 165.071C79.2832 165.445 78.8992 165.727 78.4085 165.919C77.9178 166.111 77.3418 166.207 76.6805 166.207ZM89.0109 166.207C88.0402 166.207 87.3096 165.946 86.8189 165.423C86.3389 164.89 86.0989 164.074 86.0989 162.975V157.999H87.7149V162.943C87.7149 163.615 87.8536 164.111 88.1309 164.431C88.4082 164.751 88.8296 164.911 89.3949 164.911C90.0349 164.911 90.5522 164.698 90.9469 164.271C91.3416 163.845 91.5389 163.279 91.5389 162.575V157.999H93.1549V166.063H91.5869V164.335H91.7949C91.5709 164.933 91.2136 165.397 90.7229 165.727C90.2322 166.047 89.6616 166.207 89.0109 166.207ZM95.5219 169.519V159.935C95.5219 159.626 95.5059 159.311 95.4739 158.991C95.4526 158.661 95.4259 158.33 95.3939 157.999H96.9619L97.1219 159.823H96.9459C97.1166 159.215 97.4579 158.735 97.9699 158.383C98.4926 158.031 99.1112 157.855 99.8259 157.855C100.541 157.855 101.165 158.026 101.698 158.367C102.231 158.698 102.642 159.173 102.93 159.791C103.229 160.41 103.378 161.157 103.378 162.031C103.378 162.895 103.229 163.642 102.93 164.271C102.642 164.901 102.231 165.381 101.698 165.711C101.165 166.042 100.541 166.207 99.8259 166.207C99.1219 166.207 98.5086 166.037 97.9859 165.695C97.4739 165.343 97.1326 164.869 96.9619 164.271H97.1379V169.519H95.5219ZM99.4259 164.943C100.13 164.943 100.69 164.698 101.106 164.207C101.533 163.717 101.746 162.991 101.746 162.031C101.746 161.071 101.533 160.351 101.106 159.871C100.69 159.381 100.13 159.135 99.4259 159.135C98.7219 159.135 98.1566 159.381 97.7299 159.871C97.3139 160.351 97.1059 161.071 97.1059 162.031C97.1059 162.991 97.3139 163.717 97.7299 164.207C98.1566 164.698 98.7219 164.943 99.4259 164.943ZM112.626 166.207C111.911 166.207 111.287 166.042 110.754 165.711C110.22 165.381 109.804 164.901 109.506 164.271C109.218 163.642 109.074 162.895 109.074 162.031C109.074 161.157 109.218 160.41 109.506 159.791C109.804 159.173 110.22 158.698 110.754 158.367C111.287 158.026 111.911 157.855 112.626 157.855C113.33 157.855 113.943 158.031 114.466 158.383C114.988 158.735 115.335 159.215 115.506 159.823H115.33L115.49 157.999H117.058C117.026 158.33 116.994 158.661 116.962 158.991C116.94 159.311 116.93 159.626 116.93 159.935V166.063H115.314V164.271H115.49C115.319 164.869 114.967 165.343 114.434 165.695C113.911 166.037 113.308 166.207 112.626 166.207ZM113.026 164.943C113.719 164.943 114.274 164.698 114.69 164.207C115.116 163.717 115.33 162.991 115.33 162.031C115.33 161.071 115.116 160.351 114.69 159.871C114.274 159.381 113.719 159.135 113.026 159.135C112.322 159.135 111.756 159.381 111.33 159.871C110.914 160.351 110.706 161.071 110.706 162.031C110.706 162.991 110.914 163.717 111.33 164.207C111.746 164.698 112.311 164.943 113.026 164.943ZM119.288 166.063V159.935C119.288 159.626 119.272 159.311 119.24 158.991C119.218 158.661 119.192 158.33 119.16 157.999H120.728L120.872 159.695H120.68C120.925 159.098 121.304 158.645 121.816 158.335C122.328 158.015 122.92 157.855 123.592 157.855C124.541 157.855 125.256 158.117 125.736 158.639C126.226 159.162 126.472 159.973 126.472 161.071V166.063H124.856V161.167C124.856 160.453 124.712 159.941 124.424 159.631C124.146 159.311 123.72 159.151 123.144 159.151C122.461 159.151 121.917 159.365 121.512 159.791C121.106 160.207 120.904 160.773 120.904 161.487V166.063H119.288ZM131.86 166.207C131.156 166.207 130.532 166.042 129.988 165.711C129.455 165.381 129.039 164.901 128.74 164.271C128.452 163.642 128.308 162.895 128.308 162.031C128.308 161.157 128.452 160.41 128.74 159.791C129.039 159.173 129.455 158.698 129.988 158.367C130.532 158.026 131.156 157.855 131.86 157.855C132.553 157.855 133.161 158.031 133.684 158.383C134.217 158.725 134.569 159.194 134.74 159.791H134.548V154.287H136.164V166.063H134.564V164.239H134.756C134.575 164.847 134.223 165.327 133.7 165.679C133.177 166.031 132.564 166.207 131.86 166.207ZM132.26 164.943C132.953 164.943 133.513 164.698 133.94 164.207C134.367 163.717 134.58 162.991 134.58 162.031C134.58 161.071 134.367 160.351 133.94 159.871C133.513 159.381 132.953 159.135 132.26 159.135C131.556 159.135 130.991 159.381 130.564 159.871C130.148 160.351 129.94 161.071 129.94 162.031C129.94 162.991 130.148 163.717 130.564 164.207C130.991 164.698 131.556 164.943 132.26 164.943ZM145.556 166.207C144.884 166.207 144.265 166.122 143.7 165.951C143.134 165.781 142.665 165.541 142.292 165.231L142.788 164.127C143.182 164.426 143.62 164.65 144.1 164.799C144.58 164.949 145.07 165.023 145.572 165.023C146.158 165.023 146.601 164.922 146.9 164.719C147.198 164.506 147.348 164.218 147.348 163.855C147.348 163.578 147.252 163.354 147.06 163.183C146.878 163.013 146.574 162.885 146.148 162.799L144.612 162.495C143.929 162.346 143.412 162.09 143.06 161.727C142.708 161.365 142.532 160.901 142.532 160.335C142.532 159.855 142.66 159.429 142.916 159.055C143.182 158.682 143.556 158.389 144.036 158.175C144.526 157.962 145.097 157.855 145.748 157.855C146.345 157.855 146.9 157.941 147.412 158.111C147.924 158.282 148.35 158.527 148.692 158.847L148.18 159.919C147.849 159.642 147.476 159.429 147.06 159.279C146.644 159.119 146.222 159.039 145.796 159.039C145.198 159.039 144.756 159.151 144.468 159.375C144.18 159.599 144.036 159.893 144.036 160.255C144.036 160.533 144.121 160.762 144.292 160.943C144.473 161.114 144.756 161.247 145.14 161.343L146.676 161.647C147.401 161.797 147.945 162.042 148.308 162.383C148.67 162.725 148.852 163.183 148.852 163.759C148.852 164.261 148.713 164.698 148.436 165.071C148.158 165.445 147.774 165.727 147.284 165.919C146.793 166.111 146.217 166.207 145.556 166.207ZM153.844 166.207C153.13 166.207 152.506 166.042 151.972 165.711C151.439 165.381 151.023 164.901 150.724 164.271C150.436 163.642 150.292 162.895 150.292 162.031C150.292 161.157 150.436 160.41 150.724 159.791C151.023 159.173 151.439 158.698 151.972 158.367C152.506 158.026 153.13 157.855 153.844 157.855C154.548 157.855 155.162 158.031 155.684 158.383C156.207 158.735 156.554 159.215 156.724 159.823H156.548L156.708 157.999H158.276C158.244 158.33 158.212 158.661 158.18 158.991C158.159 159.311 158.148 159.626 158.148 159.935V166.063H156.532V164.271H156.708C156.538 164.869 156.186 165.343 155.652 165.695C155.13 166.037 154.527 166.207 153.844 166.207ZM154.244 164.943C154.938 164.943 155.492 164.698 155.908 164.207C156.335 163.717 156.548 162.991 156.548 162.031C156.548 161.071 156.335 160.351 155.908 159.871C155.492 159.381 154.938 159.135 154.244 159.135C153.54 159.135 152.975 159.381 152.548 159.871C152.132 160.351 151.924 161.071 151.924 162.031C151.924 162.991 152.132 163.717 152.548 164.207C152.964 164.698 153.53 164.943 154.244 164.943ZM162.796 166.063L159.34 157.999H161.068L163.788 164.735H163.324L166.092 157.999H167.74L164.268 166.063H162.796ZM172.609 166.207C171.308 166.207 170.284 165.839 169.537 165.103C168.791 164.367 168.417 163.349 168.417 162.047C168.417 161.205 168.577 160.469 168.897 159.839C169.228 159.21 169.681 158.725 170.257 158.383C170.844 158.031 171.521 157.855 172.289 157.855C173.047 157.855 173.681 158.015 174.193 158.335C174.705 158.655 175.095 159.109 175.361 159.695C175.628 160.271 175.761 160.954 175.761 161.743V162.255H169.681V161.327H174.657L174.385 161.535C174.385 160.735 174.204 160.117 173.841 159.679C173.489 159.231 172.977 159.007 172.305 159.007C171.559 159.007 170.983 159.269 170.577 159.791C170.172 160.303 169.969 161.013 169.969 161.919V162.079C169.969 163.029 170.199 163.743 170.657 164.223C171.127 164.703 171.788 164.943 172.641 164.943C173.111 164.943 173.548 164.879 173.953 164.751C174.369 164.613 174.764 164.389 175.137 164.079L175.665 165.183C175.292 165.514 174.839 165.77 174.305 165.951C173.772 166.122 173.207 166.207 172.609 166.207Z" fill="white"/>
</g>
<defs>
<linearGradient id="paint0_linear_106_283" x1="8.5287" y1="-0.201776" x2="291.758" y2="113.561" gradientUnits="userSpaceOnUse">
<stop stop-color="#EBA10F"/>
<stop offset="1" stop-color="#059157"/>
</linearGradient>
<linearGradient id="paint1_linear_106_283" x1="-9.47366" y1="-9.05724" x2="293.294" y2="124.744" gradientUnits="userSpaceOnUse">
<stop stop-color="#EBA10F"/>
<stop offset="1" stop-color="#059157"/>
</linearGradient>
<linearGradient id="paint2_linear_106_283" x1="-9.47366" y1="-9.05724" x2="293.294" y2="124.744" gradientUnits="userSpaceOnUse">
<stop stop-color="#EBA10F"/>
<stop offset="1" stop-color="#059157"/>
</linearGradient>
<linearGradient id="paint3_linear_106_283" x1="357.233" y1="-108.154" x2="442.567" y2="69.339" gradientUnits="userSpaceOnUse">
<stop stop-color="#EBA10F"/>
<stop offset="1" stop-color="#059157"/>
</linearGradient>
<linearGradient id="paint4_linear_106_283" x1="235.648" y1="212.265" x2="20.0959" y2="212.994" gradientUnits="userSpaceOnUse">
<stop stop-color="#EBA10F"/>
<stop offset="1" stop-color="#059157"/>
</linearGradient>
<linearGradient id="paint5_linear_106_283" x1="272.397" y1="95.6086" x2="309.326" y2="307.994" gradientUnits="userSpaceOnUse">
<stop stop-color="#EBA10F"/>
<stop offset="0.4375" stop-color="#EBA10F" stop-opacity="0"/>
</linearGradient>
</defs>
</svg>
