<svg width="20" height="20" viewBox="0 0 20 20" fill="none" xmlns="http://www.w3.org/2000/svg">
<path d="M4.53124 15.1506C1.77281 12.1849 1.82159 7.53629 4.68733 4.64982C5.81046 3.51364 7.27084 2.77104 8.85058 2.53283L8.76644 0C6.54875 0.267769 4.48697 1.27824 2.91667 2.86696C-0.923419 6.73266 -0.969759 12.9751 2.76668 16.9286L0.643592 19.0651L7.36284 19.4322L7.34454 12.3178L4.53124 15.1506ZM12.637 0.567051L12.6553 7.6814L15.4686 4.84981C18.227 7.81798 18.1783 12.4666 15.3125 15.3506C14.1896 16.4871 12.7291 17.2297 11.1493 17.4676L11.2334 19.9992C13.4511 19.7311 15.513 18.7212 17.0844 17.1335C20.9233 13.2653 20.9696 7.02289 17.2332 3.07183L19.3563 0.93289L12.637 0.567051Z" fill="#059157"/>
</svg>
