<svg width="27" height="27" viewBox="0 0 27 27" fill="none" xmlns="http://www.w3.org/2000/svg">
<path d="M27 13.4745C27.0137 20.9125 20.9478 26.9947 13.5098 26.9999C10.2973 27.0022 7.34644 25.8824 5.02755 24.0108C4.42457 23.5242 4.37949 22.6205 4.92744 22.0725L5.54077 21.4592C6.0094 20.9906 6.75756 20.9393 7.27677 21.3512C8.98522 22.7069 11.1473 23.5161 13.5 23.5161C19.0363 23.5161 23.5161 19.0355 23.5161 13.5C23.5161 7.96363 19.0355 3.48387 13.5 3.48387C10.8428 3.48387 8.42938 4.51645 6.63742 6.20194L9.40024 8.96475C9.94895 9.51346 9.56033 10.4516 8.78441 10.4516H0.870967C0.389921 10.4516 0 10.0617 0 9.58064V1.66719C0 0.891271 0.93814 0.502657 1.48685 1.05131L4.17444 3.7389C6.59806 1.42272 9.88286 0 13.5 0C20.9473 0 26.9862 6.03036 27 13.4745ZM17.152 17.7631L17.6867 17.0756C18.1297 16.506 18.0271 15.6852 17.4575 15.2422L15.2419 13.519V7.8387C15.2419 7.11716 14.657 6.53225 13.9355 6.53225H13.0645C12.343 6.53225 11.7581 7.11716 11.7581 7.8387V15.2229L15.3186 17.9923C15.8882 18.4352 16.709 18.3327 17.152 17.7631Z"/>
</svg>
