<svg width="26" height="25" viewBox="0 0 26 25" fill="none" xmlns="http://www.w3.org/2000/svg">
<path d="M13.0003 19.0356C11.4266 17.2683 10.5014 15.7192 10.1946 14.3939C8.78859 9.48321 17.2158 9.48321 15.8098 14.3939C15.47 15.7471 14.5448 17.2957 13.0041 19.0356H13.0003ZM21.614 23.1221C18.9916 24.1438 16.3972 22.5149 14.1756 20.3057C20.6538 13.0474 17.0506 9.14504 13.0003 9.14504C9.57607 9.14504 7.6906 11.7405 8.43132 14.7533C8.86341 16.3822 10.0044 18.2348 11.825 20.3057C9.79679 22.3174 8.04974 23.246 6.51593 23.3704C3.39842 23.785 0.959899 21.0791 2.07036 18.2873C3.01184 16.102 9.03612 5.38669 9.29488 4.80745C10.2769 3.12945 10.8885 1.60434 12.9972 1.60434C15.0136 1.60434 15.7032 3.05188 16.7613 4.94529C19.0059 8.88611 22.3323 14.8493 23.9216 18.2873C24.7428 20.1327 23.8362 22.2655 21.614 23.1221ZM24.5445 15.5261C16.5088 0.219308 16.0636 0 13.0003 0C10.1622 0 8.95569 1.76729 7.72178 4.06192C1.10268 15.9095 0.461097 17.5886 0.405606 17.7348C-1.16687 21.6037 2.07285 24.9999 5.99405 24.9999C7.34768 24.9999 9.7731 24.6617 13.0003 21.5177C16.6591 25.0769 19.3139 24.9999 20.0066 24.9999C23.9278 25.0027 27.1676 21.6037 25.5938 17.7348C25.5951 17.5178 24.5451 15.5641 24.5451 15.5261H24.5445Z" fill="#EBA10F"/>
</svg>
