<svg width="32" height="34" viewBox="0 0 32 34" fill="none" xmlns="http://www.w3.org/2000/svg">
<path d="M28.5167 6.74967L18.6167 1.03301C17 0.0996745 15 0.0996745 13.3667 1.03301L3.48337 6.74967C1.8667 7.68301 0.866699 9.41634 0.866699 11.2997V22.6997C0.866699 24.5663 1.8667 26.2997 3.48337 27.2497L13.3834 32.9663C15 33.8997 17 33.8997 18.6334 32.9663L28.5334 27.2497C30.15 26.3163 31.15 24.583 31.15 22.6997V11.2997C31.1334 9.41634 30.1334 7.69967 28.5167 6.74967ZM14.75 9.91634C14.75 9.23301 15.3167 8.66634 16 8.66634C16.6834 8.66634 17.25 9.23301 17.25 9.91634V18.6663C17.25 19.3497 16.6834 19.9163 16 19.9163C15.3167 19.9163 14.75 19.3497 14.75 18.6663V9.91634ZM17.5334 24.7163C17.45 24.9163 17.3334 25.0997 17.1834 25.2663C16.8667 25.583 16.45 25.7497 16 25.7497C15.7834 25.7497 15.5667 25.6997 15.3667 25.6163C15.15 25.533 14.9834 25.4163 14.8167 25.2663C14.6667 25.0997 14.55 24.9163 14.45 24.7163C14.3667 24.5163 14.3334 24.2997 14.3334 24.083C14.3334 23.6497 14.5 23.2163 14.8167 22.8997C14.9834 22.7497 15.15 22.633 15.3667 22.5497C15.9834 22.283 16.7167 22.433 17.1834 22.8997C17.3334 23.0663 17.45 23.233 17.5334 23.4497C17.6167 23.6497 17.6667 23.8663 17.6667 24.083C17.6667 24.2997 17.6167 24.5163 17.5334 24.7163Z" fill="#E2B93B"/>
</svg>
