<svg width="33" height="36" viewBox="0 0 33 36" fill="none" xmlns="http://www.w3.org/2000/svg">
<path d="M31.5 0H1.5C1.10218 0 0.720644 0.18762 0.43934 0.521585C0.158035 0.855551 0 1.3085 0 1.7808V16.0272C0 16.4995 0.158035 16.9525 0.43934 17.2864C0.720644 17.6204 1.10218 17.808 1.5 17.808H6V33.8353C6 34.3076 6.15804 34.7605 6.43934 35.0945C6.72064 35.4284 7.10218 35.6161 7.5 35.6161H25.5C25.8978 35.6161 26.2794 35.4284 26.5607 35.0945C26.842 34.7605 27 34.3076 27 33.8353V17.808H31.5C31.8978 17.808 32.2794 17.6204 32.5607 17.2864C32.842 16.9525 33 16.4995 33 16.0272V1.7808C33 1.3085 32.842 0.855551 32.5607 0.521585C32.2794 0.18762 31.8978 0 31.5 0ZM9 32.0545V28.4929C9.79565 28.4929 10.5587 28.8681 11.1213 29.536C11.6839 30.204 12 31.1099 12 32.0545H9ZM24 32.0545H21C21 31.1099 21.3161 30.204 21.8787 29.536C22.4413 28.8681 23.2044 28.4929 24 28.4929V32.0545ZM24 24.9312C22.4087 24.9312 20.8826 25.6817 19.7574 27.0176C18.6321 28.3535 18 30.1653 18 32.0545H15C15 30.1653 14.3679 28.3535 13.2426 27.0176C12.1174 25.6817 10.5913 24.9312 9 24.9312V10.6848H24V24.9312ZM30 14.2464H27V8.90402C27 8.43172 26.842 7.97876 26.5607 7.6448C26.2794 7.31083 25.8978 7.12321 25.5 7.12321H7.5C7.10218 7.12321 6.72064 7.31083 6.43934 7.6448C6.15804 7.97876 6 8.43172 6 8.90402V14.2464H3V3.56161H30V14.2464ZM16.5 23.1504C17.39 23.1504 18.26 22.8371 19.0001 22.2501C19.7401 21.6631 20.3169 20.8287 20.6575 19.8525C20.9981 18.8763 21.0872 17.8021 20.9135 16.7658C20.7399 15.7295 20.3113 14.7775 19.682 14.0304C19.0526 13.2832 18.2508 12.7744 17.3779 12.5683C16.505 12.3621 15.6002 12.4679 14.7779 12.8723C13.9557 13.2766 13.2529 13.9614 12.7584 14.8399C12.2639 15.7185 12 16.7514 12 17.808C12 19.2249 12.4741 20.5838 13.318 21.5857C14.1619 22.5876 15.3065 23.1504 16.5 23.1504ZM16.5 16.0272C16.7967 16.0272 17.0867 16.1317 17.3334 16.3273C17.58 16.523 17.7723 16.8011 17.8858 17.1265C17.9994 17.4519 18.0291 17.81 17.9712 18.1555C17.9133 18.5009 17.7704 18.8182 17.5607 19.0673C17.3509 19.3163 17.0836 19.4859 16.7926 19.5546C16.5017 19.6233 16.2001 19.5881 15.926 19.4533C15.6519 19.3185 15.4176 19.0902 15.2528 18.7974C15.088 18.5045 15 18.1602 15 17.808C15 17.3357 15.158 16.8828 15.4393 16.5488C15.7206 16.2148 16.1022 16.0272 16.5 16.0272Z" fill="current"/>
</svg>
