<svg width="30" height="33" viewBox="0 0 30 33" fill="none" xmlns="http://www.w3.org/2000/svg">
<path d="M28.6364 0H1.36364C1.00198 0 0.655131 0.170563 0.3994 0.474168C0.143668 0.777773 0 1.18955 0 1.61891V14.5702C0 14.9996 0.143668 15.4113 0.3994 15.715C0.655131 16.0186 1.00198 16.1891 1.36364 16.1891H5.45455V30.7593C5.45455 31.1887 5.59821 31.6005 5.85395 31.9041C6.10968 32.2077 6.45652 32.3782 6.81818 32.3782H23.1818C23.5435 32.3782 23.8903 32.2077 24.1461 31.9041C24.4018 31.6005 24.5455 31.1887 24.5455 30.7593V16.1891H28.6364C28.998 16.1891 29.3449 16.0186 29.6006 15.715C29.8563 15.4113 30 14.9996 30 14.5702V1.61891C30 1.18955 29.8563 0.777773 29.6006 0.474168C29.3449 0.170563 28.998 0 28.6364 0ZM8.18182 29.1404V25.9026C8.90514 25.9026 9.59883 26.2437 10.1103 26.8509C10.6218 27.4581 10.9091 28.2817 10.9091 29.1404H8.18182ZM21.8182 29.1404H19.0909C19.0909 28.2817 19.3782 27.4581 19.8897 26.8509C20.4012 26.2437 21.0949 25.9026 21.8182 25.9026V29.1404ZM21.8182 22.6648C20.3715 22.6648 18.9842 23.347 17.9612 24.5614C16.9383 25.7759 16.3636 27.423 16.3636 29.1404H13.6364C13.6364 27.423 13.0617 25.7759 12.0388 24.5614C11.0158 23.347 9.62845 22.6648 8.18182 22.6648V9.71347H21.8182V22.6648ZM27.2727 12.9513H24.5455V8.09456C24.5455 7.6652 24.4018 7.25342 24.1461 6.94982C23.8903 6.64621 23.5435 6.47565 23.1818 6.47565H6.81818C6.45652 6.47565 6.10968 6.64621 5.85395 6.94982C5.59821 7.25342 5.45455 7.6652 5.45455 8.09456V12.9513H2.72727V3.23782H27.2727V12.9513ZM15 21.0459C15.8091 21.0459 16.6 20.761 17.2728 20.2274C17.9455 19.6937 18.4699 18.9352 18.7795 18.0477C19.0891 17.1603 19.1702 16.1837 19.0123 15.2416C18.8545 14.2995 18.4648 13.4341 17.8927 12.7549C17.3206 12.0757 16.5917 11.6131 15.7981 11.4257C15.0045 11.2383 14.182 11.3345 13.4345 11.7021C12.687 12.0697 12.048 12.6922 11.5985 13.4909C11.149 14.2895 10.9091 15.2285 10.9091 16.1891C10.9091 17.4772 11.3401 18.7125 12.1073 19.6234C12.8745 20.5342 13.915 21.0459 15 21.0459ZM15 14.5702C15.2697 14.5702 15.5333 14.6652 15.7576 14.843C15.9818 15.0209 16.1566 15.2738 16.2598 15.5696C16.363 15.8654 16.3901 16.1909 16.3374 16.505C16.2848 16.819 16.1549 17.1075 15.9642 17.3339C15.7735 17.5603 15.5306 17.7145 15.266 17.7769C15.0015 17.8394 14.7273 17.8073 14.4782 17.6848C14.229 17.5623 14.016 17.3548 13.8662 17.0885C13.7163 16.8223 13.6364 16.5093 13.6364 16.1891C13.6364 15.7598 13.78 15.348 14.0358 15.0444C14.2915 14.7408 14.6383 14.5702 15 14.5702Z" />
</svg>
