<svg width="60" height="60" viewBox="0 0 60 60" fill="none" xmlns="http://www.w3.org/2000/svg">
<circle cx="30" cy="30" r="30" fill="white" fill-opacity="0.4"/>
<path d="M41.689 17.1431H18.3124C18.0024 17.1431 17.7051 17.2893 17.4859 17.5495C17.2667 17.8097 17.1436 18.1627 17.1436 18.5307V29.6318C17.1436 29.9998 17.2667 30.3528 17.4859 30.613C17.7051 30.8733 18.0024 31.0195 18.3124 31.0195H21.8189V43.5082C21.8189 43.8762 21.942 44.2292 22.1612 44.4894C22.3804 44.7496 22.6777 44.8958 22.9877 44.8958H37.0137C37.3237 44.8958 37.621 44.7496 37.8402 44.4894C38.0594 44.2292 38.1825 43.8762 38.1825 43.5082V31.0195H41.689C41.999 31.0195 42.2963 30.8733 42.5155 30.613C42.7347 30.3528 42.8578 29.9998 42.8578 29.6318V18.5307C42.8578 18.1627 42.7347 17.8097 42.5155 17.5495C42.2963 17.2893 41.999 17.1431 41.689 17.1431ZM24.1565 42.1206V39.3453C24.7765 39.3453 25.3711 39.6377 25.8095 40.1581C26.2479 40.6786 26.4942 41.3845 26.4942 42.1206H24.1565ZM35.8449 42.1206H33.5072C33.5072 41.3845 33.7535 40.6786 34.1919 40.1581C34.6303 39.6377 35.2249 39.3453 35.8449 39.3453V42.1206ZM35.8449 36.57C34.6049 36.57 33.4157 37.1548 32.5389 38.1957C31.6621 39.2367 31.1695 40.6485 31.1695 42.1206H28.8319C28.8319 40.6485 28.3393 39.2367 27.4625 38.1957C26.5857 37.1548 25.3965 36.57 24.1565 36.57V25.4689H35.8449V36.57ZM40.5202 28.2442H38.1825V24.0813C38.1825 23.7132 38.0594 23.3603 37.8402 23.1001C37.621 22.8398 37.3237 22.6936 37.0137 22.6936H22.9877C22.6777 22.6936 22.3804 22.8398 22.1612 23.1001C21.942 23.3603 21.8189 23.7132 21.8189 24.0813V28.2442H19.4812V19.9183H40.5202V28.2442ZM30.0007 35.1824C30.6942 35.1824 31.3722 34.9382 31.9488 34.4808C32.5254 34.0234 32.9749 33.3732 33.2403 32.6125C33.5057 31.8519 33.5751 31.0148 33.4398 30.2073C33.3045 29.3998 32.9706 28.658 32.4802 28.0758C31.9898 27.4936 31.365 27.0972 30.6848 26.9365C30.0046 26.7759 29.2995 26.8583 28.6588 27.1734C28.0181 27.4885 27.4705 28.0221 27.0852 28.7067C26.6999 29.3913 26.4942 30.1961 26.4942 31.0195C26.4942 32.1235 26.8636 33.1824 27.5212 33.9631C28.1788 34.7438 29.0707 35.1824 30.0007 35.1824ZM30.0007 29.6318C30.2319 29.6318 30.4579 29.7132 30.6501 29.8657C30.8423 30.0182 30.9921 30.2349 31.0806 30.4884C31.169 30.742 31.1922 31.021 31.1471 31.2902C31.102 31.5593 30.9906 31.8066 30.8272 32.0007C30.6637 32.1947 30.4555 32.3269 30.2287 32.3804C30.002 32.434 29.767 32.4065 29.5534 32.3015C29.3398 32.1964 29.1573 32.0186 29.0288 31.7904C28.9004 31.5622 28.8319 31.2939 28.8319 31.0195C28.8319 30.6514 28.955 30.2985 29.1742 30.0382C29.3934 29.778 29.6907 29.6318 30.0007 29.6318Z" fill="white"/>
</svg>
